<mxfile host="app.diagrams.net" modified="2023-03-19T16:41:20.091Z" agent="5.0 (Macintosh; Intel Mac OS X 10_15_7) AppleWebKit/605.1.15 (KHTML, like Gecko) Version/16.1 Safari/605.1.15" etag="JBJkjG5EpChRY0YNyOFU" version="21.0.8" type="github">
  <diagram id="C5RBs43oDa-KdzZeNtuy" name="Page-1">
    <mxGraphModel dx="2141" dy="794" grid="1" gridSize="10" guides="1" tooltips="1" connect="1" arrows="1" fold="1" page="1" pageScale="1" pageWidth="827" pageHeight="1169" math="0" shadow="0">
      <root>
        <mxCell id="WIyWlLk6GJQsqaUBKTNV-0" />
        <mxCell id="WIyWlLk6GJQsqaUBKTNV-1" parent="WIyWlLk6GJQsqaUBKTNV-0" />
        <mxCell id="WIyWlLk6GJQsqaUBKTNV-2" value="" style="rounded=0;html=1;jettySize=auto;orthogonalLoop=1;fontSize=11;endArrow=block;endFill=0;endSize=8;strokeWidth=1;shadow=0;labelBackgroundColor=none;edgeStyle=orthogonalEdgeStyle;" parent="WIyWlLk6GJQsqaUBKTNV-1" source="WIyWlLk6GJQsqaUBKTNV-3" target="WIyWlLk6GJQsqaUBKTNV-6" edge="1">
          <mxGeometry relative="1" as="geometry" />
        </mxCell>
        <mxCell id="WIyWlLk6GJQsqaUBKTNV-3" value="Add a new coupon" style="rounded=1;whiteSpace=wrap;html=1;fontSize=12;glass=0;strokeWidth=1;shadow=0;" parent="WIyWlLk6GJQsqaUBKTNV-1" vertex="1">
          <mxGeometry x="160" y="80" width="120" height="40" as="geometry" />
        </mxCell>
        <mxCell id="WIyWlLk6GJQsqaUBKTNV-4" value="" style="rounded=0;html=1;jettySize=auto;orthogonalLoop=1;fontSize=11;endArrow=block;endFill=0;endSize=8;strokeWidth=1;shadow=0;labelBackgroundColor=none;edgeStyle=orthogonalEdgeStyle;" parent="WIyWlLk6GJQsqaUBKTNV-1" source="WIyWlLk6GJQsqaUBKTNV-6" target="WIyWlLk6GJQsqaUBKTNV-10" edge="1">
          <mxGeometry x="0.0032" y="20" relative="1" as="geometry">
            <mxPoint as="offset" />
          </mxGeometry>
        </mxCell>
        <mxCell id="WIyWlLk6GJQsqaUBKTNV-6" value="Go to CartCalculation: applyCoupon" style="rhombus;whiteSpace=wrap;html=1;shadow=0;fontFamily=Helvetica;fontSize=12;align=center;strokeWidth=1;spacing=6;spacingTop=-4;" parent="WIyWlLk6GJQsqaUBKTNV-1" vertex="1">
          <mxGeometry x="150" y="180" width="140" height="90" as="geometry" />
        </mxCell>
        <mxCell id="WIyWlLk6GJQsqaUBKTNV-8" value="Yes" style="rounded=0;html=1;jettySize=auto;orthogonalLoop=1;fontSize=11;endArrow=block;endFill=0;endSize=8;strokeWidth=1;shadow=0;labelBackgroundColor=none;edgeStyle=orthogonalEdgeStyle;" parent="WIyWlLk6GJQsqaUBKTNV-1" source="WIyWlLk6GJQsqaUBKTNV-10" edge="1">
          <mxGeometry x="0.3333" y="20" relative="1" as="geometry">
            <mxPoint as="offset" />
            <mxPoint x="220" y="565" as="targetPoint" />
          </mxGeometry>
        </mxCell>
        <mxCell id="WIyWlLk6GJQsqaUBKTNV-9" value="No" style="edgeStyle=orthogonalEdgeStyle;rounded=0;html=1;jettySize=auto;orthogonalLoop=1;fontSize=11;endArrow=block;endFill=0;endSize=8;strokeWidth=1;shadow=0;labelBackgroundColor=none;" parent="WIyWlLk6GJQsqaUBKTNV-1" source="WIyWlLk6GJQsqaUBKTNV-10" edge="1">
          <mxGeometry y="10" relative="1" as="geometry">
            <mxPoint as="offset" />
            <mxPoint x="430" y="400" as="targetPoint" />
          </mxGeometry>
        </mxCell>
        <mxCell id="WIyWlLk6GJQsqaUBKTNV-10" value="check validation&amp;nbsp;" style="rhombus;whiteSpace=wrap;html=1;shadow=0;fontFamily=Helvetica;fontSize=12;align=center;strokeWidth=1;spacing=6;spacingTop=-4;" parent="WIyWlLk6GJQsqaUBKTNV-1" vertex="1">
          <mxGeometry x="170" y="360" width="100" height="80" as="geometry" />
        </mxCell>
        <mxCell id="TAG7vl7gLuCY-1AviQvm-2" value="&lt;ol style=&quot;text-align: start;&quot; data-pm-slice=&quot;3 3 [&amp;quot;orderedList&amp;quot;,{&amp;quot;order&amp;quot;:1},&amp;quot;listItem&amp;quot;,null,&amp;quot;orderedList&amp;quot;,{&amp;quot;order&amp;quot;:1},&amp;quot;listItem&amp;quot;,null]&quot; class=&quot;ak-ol&quot;&gt;&lt;li&gt;&lt;p&gt;validate coupon type just for&amp;nbsp;&lt;strong&gt;cart_base&lt;/strong&gt;&lt;/p&gt;&lt;/li&gt;&lt;li&gt;&lt;p&gt;valid date&lt;/p&gt;&lt;/li&gt;&lt;li&gt;&lt;p&gt;coupon usage limit&amp;nbsp;&lt;/p&gt;&lt;/li&gt;&lt;li&gt;&lt;p&gt;coupon usage limit per user&lt;/p&gt;&lt;/li&gt;&lt;li&gt;&lt;p&gt;minimum amount to apply coupon&lt;/p&gt;&lt;/li&gt;&lt;/ol&gt;" style="text;html=1;align=center;verticalAlign=middle;resizable=0;points=[];autosize=1;strokeColor=none;fillColor=none;" parent="WIyWlLk6GJQsqaUBKTNV-1" vertex="1">
          <mxGeometry x="400" y="230" width="270" height="160" as="geometry" />
        </mxCell>
        <mxCell id="TAG7vl7gLuCY-1AviQvm-3" value="&lt;p style=&quot;margin:0px;margin-top:4px;text-align:center;&quot;&gt;&lt;b&gt;CartCalculation&lt;/b&gt;&lt;/p&gt;&lt;hr size=&quot;1&quot;&gt;&lt;p style=&quot;margin:0px;margin-left:4px;&quot;&gt;+&amp;nbsp;applyCoupon(String coupon)&lt;/p&gt;&lt;p style=&quot;margin:0px;margin-left:4px;&quot;&gt;+ validationCoupon() bool&lt;/p&gt;&lt;p style=&quot;margin:0px;margin-left:4px;&quot;&gt;+ caluculationCoupon(listOfCarts, coupon): float&amp;nbsp;&lt;/p&gt;&lt;p style=&quot;margin:0px;margin-left:4px;&quot;&gt;+ removeCoupon() float&lt;/p&gt;" style="verticalAlign=top;align=left;overflow=fill;fontSize=12;fontFamily=Helvetica;html=1;whiteSpace=wrap;" parent="WIyWlLk6GJQsqaUBKTNV-1" vertex="1">
          <mxGeometry x="420" y="70" width="300" height="90" as="geometry" />
        </mxCell>
        <mxCell id="TAG7vl7gLuCY-1AviQvm-4" value="return message" style="rounded=1;whiteSpace=wrap;html=1;fontSize=12;glass=0;strokeWidth=1;shadow=0;" parent="WIyWlLk6GJQsqaUBKTNV-1" vertex="1">
          <mxGeometry x="430" y="380" width="120" height="40" as="geometry" />
        </mxCell>
        <mxCell id="TAG7vl7gLuCY-1AviQvm-6" style="edgeStyle=orthogonalEdgeStyle;rounded=0;orthogonalLoop=1;jettySize=auto;html=1;" parent="WIyWlLk6GJQsqaUBKTNV-1" source="TAG7vl7gLuCY-1AviQvm-5" edge="1">
          <mxGeometry relative="1" as="geometry">
            <mxPoint x="220" y="710" as="targetPoint" />
          </mxGeometry>
        </mxCell>
        <mxCell id="TAG7vl7gLuCY-1AviQvm-5" value="go to&amp;nbsp;caluculationCoupon" style="rhombus;whiteSpace=wrap;html=1;shadow=0;fontFamily=Helvetica;fontSize=12;align=center;strokeWidth=1;spacing=6;spacingTop=-4;" parent="WIyWlLk6GJQsqaUBKTNV-1" vertex="1">
          <mxGeometry x="170" y="560" width="100" height="80" as="geometry" />
        </mxCell>
        <mxCell id="TAG7vl7gLuCY-1AviQvm-7" value="return couponDiscount" style="rounded=1;whiteSpace=wrap;html=1;fontSize=12;glass=0;strokeWidth=1;shadow=0;" parent="WIyWlLk6GJQsqaUBKTNV-1" vertex="1">
          <mxGeometry x="160" y="710" width="120" height="40" as="geometry" />
        </mxCell>
        <mxCell id="TAG7vl7gLuCY-1AviQvm-9" value="&lt;ol&gt;&lt;li&gt;Move functions apply_coupon_code and remove_coupon_code from CheckoutController to CouponController &amp;nbsp;[ in web and mobile] ! check backward.&lt;br&gt;&lt;/li&gt;&lt;li&gt;cart_summary [ remove any calculation from view to&amp;nbsp;CouponController ]&lt;/li&gt;&lt;li&gt;When applying a coupon in the cart, apply it to combined order or order, how I can divide the discount on multi-order from multi shops&lt;/li&gt;&lt;li style=&quot;border-color: var(--border-color);&quot;&gt;remove this line app/Http/Controllers/CommissionController.php:195&lt;/li&gt;&lt;li style=&quot;border-color: var(--border-color);&quot;&gt;add coupon applies column to order&amp;nbsp;&lt;/li&gt;&lt;li style=&quot;border-color: var(--border-color);&quot;&gt;&lt;b&gt;Add events&lt;/b&gt;&amp;nbsp;&lt;/li&gt;&lt;li style=&quot;border-color: var(--border-color);&quot;&gt;store on order&lt;/li&gt;&lt;/ol&gt;" style="text;html=1;strokeColor=none;fillColor=none;align=left;verticalAlign=middle;whiteSpace=wrap;rounded=0;" parent="WIyWlLk6GJQsqaUBKTNV-1" vertex="1">
          <mxGeometry x="420" y="520" width="451" height="190" as="geometry" />
        </mxCell>
        <mxCell id="TAG7vl7gLuCY-1AviQvm-11" value="" style="shape=image;verticalLabelPosition=bottom;labelBackgroundColor=default;verticalAlign=top;aspect=fixed;imageAspect=0;image=data:image/png,iVBORw0KGgoAAAANSUhEUgAABIQAAAIiCAYAAAC5RxP/AAAMQGlDQ1BJQ0MgUHJvZmlsZQAASImVVwdYU8kWnluSkJDQAghICb0JIjWAlBBaAOlFsBGSAKGEmBBU7OiigmsXC9jQVRHFDogdsbMoNuyLBRVlXSzYlTcpoOu+8r35vrnz33/O/OfMuTP33gFA8wRXLM5DtQDIFxVK4sOCGKNT0xikpwAFRgAHroDK5UnFrNjYKADLQPv38u4GQOTtVSe51j/7/2vR5gukPACQWIgz+FJePsQHAMCreGJJIQBEOW85qVAsx7ACXQkMEOL5cpylxFVynKHEexQ2ifFsiFsAUKNyuZIsADQuQ55RxMuCGhq9ELuI+EIRAJoMiP3z8wv4EKdDbAdtxBDL9ZkZP+hk/U0zY1CTy80axMq5KIpasFAqzuNO+T/T8b9Lfp5swIcNrNRsSXi8fM4wbzdzCyLlmApxjygjOgZiHYg/CPkKe4hRSrYsPElpjxrzpGyYM6APsQufGxwJsTHEoaK86CgVn5EpDOVADFcIOllYyEmE2ADi+QJpSILKZqOkIF7lC63PlLBZKv4cV6LwK/d1X5abxFLpv84WcFT6mEZxdmIKxBSIrYqEydEQa0DsLM1NiFTZjCzOZkcP2Ehk8fL4rSCOF4jCgpT6WFGmJDReZV+WLx2YL7YxW8iJVuF9hdmJ4cr8YC08riJ+OBfsskDEShrQEUhHRw3MhS8IDlHOHXsmECUlqHQ+iAuD4pVjcYo4L1Zlj1sI8sLkvAXE7tKiBNVYPLkQLkilPp4pLoxNVMaJF+dwI2KV8eBLQBRgg2DAADJYM0AByAHCtp6GHnin7AkFXCABWUAAnFTMwIgURY8IXhNAMfgTIgGQDo4LUvQKQBHkvw6yyqsTyFT0FilG5IInEOeDSJAH72WKUaJBb8ngMWSE//DOhZUH482DVd7/7/kB9jvDgkyUipENeGRoDlgSQ4jBxHBiKNEeN8L9cV88Cl4DYXXFmbj3wDy+2xOeENoJDwnXCZ2EWxOEJZKfohwFOqF+qCoXGT/mAreBmh54EO4H1aEyro8bASfcHfph4QHQswdk2aq45Vlh/KT9txn88DRUdmQXMkoeQg4k2/08UsNBw2NQRZ7rH/OjjDVjMN/swZ6f/bN/yD4ftpE/W2Lzsf3YWewkdh47gjUABnYca8RasaNyPLi6HitW14C3eEU8uVBH+A9/A09WnkmpS61Lt8sXZV+hYLL8HQ3YBeIpEmFWdiGDBb8IAgZHxHMexnB1cXUDQP59Ub6+3sQpvhuIfut3bs4fAPgd7+/vP/ydizgOwF4vuP0PfefsmPDToQ7AuUM8maRIyeHyCwG+JTThTjMEpsAS2MH5uAJP4AsCQQiIADEgEaSC8TD6bLjOJWASmAZmg1JQDpaAlWAt2AA2g+1gF9gHGsARcBKcARfBZXAd3IGrpwu8AL3gHfiMIAgJoSF0xBAxQ6wRR8QVYSL+SAgShcQjqUg6koWIEBkyDZmDlCPLkLXIJqQG2YscQk4i55F25BbyAOlGXiOfUAylorqoCWqDDkeZKAuNRBPRcWgWOhEtRueii9DVaDW6E61HT6IX0etoJ/oC7cMApo7pY+aYE8bE2FgMloZlYhJsBlaGVWDVWB3WBJ/zVawT68E+4kScjjNwJ7iCw/EknIdPxGfgC/G1+Ha8Hm/Br+IP8F78G4FGMCY4EnwIHMJoQhZhEqGUUEHYSjhIOA33UhfhHZFI1CfaEr3gXkwl5hCnEhcS1xF3E08Q24mPiH0kEsmQ5EjyI8WQuKRCUilpDWkn6TjpCqmL9EFNXc1MzVUtVC1NTaRWolahtkPtmNoVtadqn8laZGuyDzmGzCdPIS8mbyE3kS+Ru8ifKdoUW4ofJZGSQ5lNWU2po5ym3KW8UVdXt1D3Vo9TF6rPUl+tvkf9nPoD9Y9UHaoDlU0dS5VRF1G3UU9Qb1Hf0Gg0G1ogLY1WSFtEq6Gdot2nfdCgazhrcDT4GjM1KjXqNa5ovNQka1prsjTHaxZrVmju17yk2aNF1rLRYmtxtWZoVWod0urQ6tOma4/QjtHO116ovUP7vPYzHZKOjU6IDl9nrs5mnVM6j+gY3ZLOpvPoc+hb6KfpXbpEXVtdjm6ObrnuLt023V49HT13vWS9yXqVekf1OvUxfRt9jn6e/mL9ffo39D8NMRnCGiIYsmBI3ZArQ94bDDUINBAYlBnsNrhu8MmQYRhimGu41LDB8J4RbuRgFGc0yWi90WmjnqG6Q32H8oaWDd039LYxauxgHG881Xizcatxn4mpSZiJ2GSNySmTHlN900DTHNMVpsdMu83oZv5mQrMVZsfNnjP0GCxGHmM1o4XRa25sHm4uM99k3mb+2cLWIsmixGK3xT1LiiXTMtNyhWWzZa+VmdUoq2lWtVa3rcnWTOts61XWZ63f29japNjMs2mweWZrYMuxLbattb1rR7MLsJtoV213zZ5oz7TPtV9nf9kBdfBwyHaodLjkiDp6Ogod1zm2DyMM8x4mGlY9rMOJ6sRyKnKqdXrgrO8c5Vzi3OD8crjV8LThS4efHf7NxcMlz2WLy50ROiMiRpSMaBrx2tXBleda6XrNjeYW6jbTrdHtlbuju8B9vftND7rHKI95Hs0eXz29PCWedZ7dXlZe6V5VXh1MXWYscyHznDfBO8h7pvcR748+nj6FPvt8/vJ18s313eH7bKTtSMHILSMf+Vn4cf02+XX6M/zT/Tf6dwaYB3ADqgMeBloG8gO3Bj5l2bNyWDtZL4NcgiRBB4Pes33Y09kngrHgsOCy4LYQnZCkkLUh90MtQrNCa0N7wzzCpoadCCeER4YvDe/gmHB4nBpOb4RXxPSIlkhqZELk2siHUQ5RkqimUeioiFHLR92Nto4WRTfEgBhOzPKYe7G2sRNjD8cR42LjKuOexI+InxZ/NoGeMCFhR8K7xKDExYl3kuySZEnNyZrJY5Nrkt+nBKcsS+kcPXz09NEXU41ShamNaaS05LStaX1jQsasHNM11mNs6dgb42zHTR53frzR+LzxRydoTuBO2J9OSE9J35H+hRvDreb2ZXAyqjJ6eWzeKt4LfiB/Bb9b4CdYJnia6Ze5LPNZll/W8qzu7IDsiuweIVu4VvgqJzxnQ8773Jjcbbn9eSl5u/PV8tPzD4l0RLmilgLTgskF7WJHcam4c6LPxJUTeyWRkq1SRDpO2lioC3/kW2V2sl9kD4r8iyqLPkxKnrR/svZk0eTWKQ5TFkx5Whxa/NtUfCpvavM082mzpz2Yzpq+aQYyI2NG80zLmXNnds0Km7V9NmV27uzfS1xKlpW8nZMyp2muydxZcx/9EvZLbalGqaS0Y57vvA3z8fnC+W0L3BasWfCtjF92odylvKL8y0Lewgu/jvh19a/9izIXtS32XLx+CXGJaMmNpQFLty/TXla87NHyUcvrVzBWlK14u3LCyvMV7hUbVlFWyVZ1ro5a3bjGas2SNV/WZq+9XhlUubvKuGpB1ft1/HVX1geur9tgsqF8w6eNwo03N4Vtqq+2qa7YTNxctPnJluQtZ39j/laz1Whr+dav20TbOrfHb2+p8aqp2WG8Y3EtWiur7d45duflXcG7Guuc6jbt1t9dvgfske15vjd97419kfua9zP31x2wPlB1kH6wrB6pn1Lf25Dd0NmY2th+KOJQc5Nv08HDzoe3HTE/UnlU7+jiY5Rjc4/1Hy8+3ndCfKLnZNbJR80Tmu+cGn3qWktcS9vpyNPnzoSeOXWWdfb4Ob9zR877nD90gXmh4aLnxfpWj9aDv3v8frDNs63+ktelxsvel5vaR7YfuxJw5eTV4KtnrnGuXbwefb39RtKNmx1jOzpv8m8+u5V369Xtotuf78y6S7hbdk/rXsV94/vVf9j/sbvTs/Pog+AHrQ8THt55xHv04rH08ZeuuU9oTyqemj2teeb67Eh3aPfl52Oed70Qv/jcU/qn9p9VL+1eHvgr8K/W3tG9Xa8kr/pfL3xj+GbbW/e3zX2xffff5b/7/L7sg+GH7R+ZH89+Svn09POkL6Qvq7/af236Fvntbn9+f7+YK+EqfgUwWNHMTABebwOAlgoAHZ7PKGOU5z9FQZRnVgUC/wkrz4iK4glAHfx/j+uBfzcdAOzZAo9fUF9zLACxNAASvQHq5jZYB85qinOlvBDhOWBj9NeM/Azwb4ryzPlD3D+3QK7qDn5u/wUwLHxmoYTqLwAAAIplWElmTU0AKgAAAAgABAEaAAUAAAABAAAAPgEbAAUAAAABAAAARgEoAAMAAAABAAIAAIdpAAQAAAABAAAATgAAAAAAAACQAAAAAQAAAJAAAAABAAOShgAHAAAAEgAAAHigAgAEAAAAAQAABISgAwAEAAAAAQAAAiIAAAAAQVNDSUkAAABTY3JlZW5zaG90Sa3oYgAAAAlwSFlzAAAWJQAAFiUBSVIk8AAAAddpVFh0WE1MOmNvbS5hZG9iZS54bXAAAAAAADx4OnhtcG1ldGEgeG1sbnM6eD0iYWRvYmU6bnM6bWV0YS8iIHg6eG1wdGs9IlhNUCBDb3JlIDYuMC4wIj4KICAgPHJkZjpSREYgeG1sbnM6cmRmPSJodHRwOi8vd3d3LnczLm9yZy8xOTk5LzAyLzIyLXJkZi1zeW50YXgtbnMjIj4KICAgICAgPHJkZjpEZXNjcmlwdGlvbiByZGY6YWJvdXQ9IiIKICAgICAgICAgICAgeG1sbnM6ZXhpZj0iaHR0cDovL25zLmFkb2JlLmNvbS9leGlmLzEuMC8iPgogICAgICAgICA8ZXhpZjpQaXhlbFlEaW1lbnNpb24+NTQ2PC9leGlmOlBpeGVsWURpbWVuc2lvbj4KICAgICAgICAgPGV4aWY6UGl4ZWxYRGltZW5zaW9uPjExNTY8L2V4aWY6UGl4ZWxYRGltZW5zaW9uPgogICAgICAgICA8ZXhpZjpVc2VyQ29tbWVudD5TY3JlZW5zaG90PC9leGlmOlVzZXJDb21tZW50PgogICAgICA8L3JkZjpEZXNjcmlwdGlvbj4KICAgPC9yZGY6UkRGPgo8L3g6eG1wbWV0YT4KfYGGNQAAABxpRE9UAAAAAgAAAAAAAAERAAAAKAAAAREAAAERAAC6/sIimngAAEAASURBVHgB7J0FYNS+F8cfNmDAGAy2MYa7u7u7u7u7/3F3d3d3d3f54e46bGMbY8Bw/kmPdr3e3Xa36223u2/5/dYkTV+ST9Je+/ryEiVj7gJ/CRsIgAAIgAAIgAAIgAAIgAAIgAAIgAAIgIDdEIgChZDd9DUaCgIgAAIgAAIgAAIgAAIgAAIgAAIgAAICASiEMBBAAARAAARAAARAAARAAARAAARAAARAwM4IQCFkZx2O5oIACIAACIAACIAACIAACIAACIAACIAAFEIYAyAAAiAAAiAAAiAAAiAAAiAAAiAAAiBgZwSgELKzDkdzQQAEQAAEQAAEQAAEQAAEQAAEQAAEQAAKIYwBEAABEAABEAABEAABEAABEAABEAABELAzAlAI2VmHo7kgAAIgAAIgAAIgAAIgAAIgAAIgAAIgAIUQxgAIgAAIgAAIgAAIgAAIgAAIgAAIgAAI2BkBKITsrMPRXBAAARAAARAAARAAARAAARAAARAAARCAQghjAARAAARAAARAAARAAARAAARAAARAAATsjAAUQnbW4WguCIAACIAACIAACIAACIAACIAACIAACEAhhDEAAiAAAiAAAiAAAiAAAiAAAiAAAiAAAnZGAAohO+twNBcEQAAEQAAEQAAEQAAEQAAEQAAEQAAEoBDCGAABEAABEAABEAABEAABEAABEAABEAABOyMAhZCddTiaCwIgAAIgAAIgAAIgAAIgAAIgAAIgAAJQCGEMgAAIgAAIgAAIgAAIgAAIgAAIgAAIgICdEYBCyM46HM0FARAAARAAARAAARAAARAAARAAARAAASiEMAZAAARAAARAAARAAARAAARAAARAAARAwM4IQCFkZx2O5oIACIAACIAACIAACIAACIAACIAACIAAFEIYAyAAAiAAAiAAAiAAAiAAAiAAAiAAAiBgZwSgELKzDkdzQQAEQAAEQAAEQAAEQAAEQAAEQAAEQAAKIYwBEAABEAABEAABEAABEAABEAABEAABELAzAlAI2VmHo7kgAAIgAAIgAAIgAAIgAAIgAAIgAAIgAIUQxgAIgAAIgAAIgAAIgAAIgAAIgAAIgAAI2BkBKITsrMPRXBAAARAAARAAARAAARAAARAAARAAARCAQghjAARAAARAAARAAARAAARAAARAAARAAATsjAAUQnbW4WguCIAACIAACIAACIAACIAACIAACIAACEAhhDEAAiAAAiAAAiAAAiAAAiAAAiAAAiAAAnZGAAohO+twNBcEQAAEQAAEQAAEQAAEQAAEQAAEQAAEoBDCGAABEAABEAABEAABEAABEAABEAABEAABOyMAhZCddTiaCwIgAAIgAAIgAAIgAAIgAAIgAAIgAAJQCGEMgAAIgAAIgAAIgAAIgAAIgAAIgAAIgICdEYBCyM46HM0FARAAARAAARAAARAAARAAARAAARAAASiEMAZAAARAAARAAARAAARAAARAAARAAARAwM4IQCFkZx2O5oIACIAACIAACIAACIAACIAACIAACIAAFEIYAyAAAiAAAiAAAiAAAiAAAiAAAiAAAiBgZwSgELKzDkdzQQAEQAAEQAAEQAAEQAAEQAAEQAAEQAAKIYwBEAABEAABEAABEAABEAABEAABEAABELAzAlAI2VmHo7kgAAIgAAIgAAIgAAIgAAIgAAIgAAIgAIUQxgAIgAAIgAAIgAAIgAAIgAAIgAAIgAAI2BkBKITsrMPRXBAAARAAARAAARAAARAAARAAARAAARCAQghjAARAAARAAARAAARAAARAAARAAARAAATsjAAUQnbW4WguCIAACIAACIAACIAACIAACIAACIAACEAhhDEAAiAAAiAAAiAAAiAAAiAAAiAAAiAAAnZGAAohO+twNBcEQAAEQAAEQAAEQAAEQAAEQAAEQAAEoBDCGAABEAABEAABEAABEAABEAABEAABEAABOyMAhZCddTiaCwIgAAIgAAIgAAIgAAIgAAIgAAIgAAJQCGEMgAAIgAAIgAAIgAAIgAAIgAAIgAAIgICdEYBCyM46HM0FARAAARAAARAAARAAARAAARAAARAAASiEMAZAAARAAARAAARAAARAAARAAARAAARAwM4IQCFkZx2O5oIACIAACIAACIAACIAACIAACIAACIAAFEIYAyAAAiAAAiAAAiAAAiAAAiAAAiAAAiBgZwSgELKzDkdzQQAEQAAEQAAEQAAEQAAEQAAEQAAEQAAKIYwBEAABEAABEAABEAABEAABEAABEAABELAzAlAI2VmHo7kgAAIgAAIgAAIgAAIgAAIgAAIgAAIgAIUQxgAIgAAIgAAIgAAIgAAIgAAIgAAIgAAI2BkBKITsrMPRXBAAARAAARAAARAAARAAARAAARAAARCAQghjAARAAARAAARAAARAAARAAARAAARAAATsjAAUQnbW4WguCIAACIAACIAACIAACIAACIAACIAACEAhhDEAAiAAAiAAAiAAAiAAAiAAAiAAAiAAAnZGAAohO+twNBcEQAAEQAAEQAAEQAAEQAAEQAAEQAAEoBDCGAABEAABEAABEAABEAABEAABEAABEAABOyMAhZCddTiaCwIgAAIgAAIgAAIgAAIgAAIgAAIgAAJQCGEMgAAIgAAIgAAIgAAIgAAIgAAIgAAIgICdEbB7hZBDNAf68fuHnXU7mgsCIAACIAACIAACIAACIAACIAACIGDPBOxKIRQ9WgzKniwf5U9TnDwSJidnx4QUg6V9CvpIb/xf0Wv/l3To5nYW9w+3McEVUn2qjqEoUaIS/f1L2/9bQ/fe3Ai38lEQCIAACIAACIAACIAACIAACIAACICA/RGwG4VQ5qS5qHnxrhQ/tnOIvfz5eyCtPT2frr+8GGI+tQ6md89KvSqPlMTNOzyBbr36T4ojAAIgAAIgAAIgAAIgAAIgAAIgAAIgAAJqE7ALhVDV3A2pcs66FIX949tf9s/3sw+98XtBv37/IjfnpJTE2ZOiciudf9uk3YPomc8DMWqxfaksVah+gdaC/L/MQmjA+jYU+C3AYuVBMAiAAAiAAAiAAAiAAAiAAAiAAAiAAAjYvEKoaIZy1KRIR6mnH769Q2vPzifvT2+lNB5I65aJWpXsSQnjJBLSb768TPOPjNfKY4lIw0LtqESmioLogK/+9L8NbS1RDGSCAAiAAAiAAAiAAAiAAAiAAAiAAAiAgETAphVC3OpncM1pFC1qNKHBu69uoP3XtwgWQhIBWSBV4nTUv9oEIYVbEQ3d1JlZEnnLcqgf7Fp+CGXxzCUIfurziCbv/p/6hUAiCIAACIAACIAACIAACIAACIAACIAACMgI2LRCqE3J3pQ3dRGhuXe9rtOcQ2MMKoNEJoNqTqFkCVMJ0bE7+pCX33PxUIj7lInSkjtTQEWhqPTE+z6zQHoTYn7x4LDaM4Xpajx+6clpWn5yBkWPGp1SJk5Pbk5J6OefX/TM+wH5BL4TTwnTPqz1C1NhOAkEQAAEQAAEQAAEQAAEQAAEQAAEQMCqCdisQsiVKVNG1JnNVu+KQt9+fqcRW7pQgBGrh3UuO4iyJc8jdJo+hdD0ZmvYymQOwvFNF5cKCiDuB4grb+Qbtyxaf24x3fG6Kk/WCU9vtpZixYglpO+9tpl+MwVQsYzlKUEcF6283p/e0aYLS42Qp279tCqBCAiAAAiAAAiAAAiAAAiAAAiAAAiAgE0QsFmFUMnMVahBQY2z5mvPL9CiY5ON6rDuFYZRpqQ5hLzjdvSlV37PpPO4lc2A6hOlOPczlC1ZHkHpJCXKAj9+/aAlx6cZXDXMM2FKNqVtqnTG/Te3KKNHNimuDHAH2EuZPEMroKldP2X5iIMACIAACIAACIAACIAACIAACIAACNgGAZtVCHUq+z/Knjyf0EurTs2h84+Pa/VYVs88VDBdKUqSIBlbaew73X51jS4+PkltS/eWpowN29xFa6qW0kG1KNDvywfyDfSh2A6OwvQv0WcRP3771VWae3ismFVrXzhdaWpWrItWGo+8DXhNvp/eUywmL3miNOQQLYaU58Gb2zTjwHApLg+oXT+5bIRBAARAAARAAARAAARAAARAAARAAARsh4DNKoSmNFlJcWLGFXqKL+X+Keij1GsN2MpeJf+t7CUlskAAyxM7hiM5RHegn8wap8eqhsSXghe3OvlbUtms1cQocQug/Te20IEbW6W07MnyUYvi3cgxZhwh7cfvn9RjZUPpuDxQK19zKp+thpT07ec32nF5NZ28d0BKy5AkO7Ur3Udqy5+/f6jL8nrScXlA7frJZSMMAiAAAiAAAiAAAiAAAiAAAiAAAiBgOwRsUiEUN1Z8mtx4mdBLXBHEFULiljtlYUHBIsY/fw+kh8zqJn2SLBQ3lpOYTK/9X9KY7b2kOA90LDOAcqTIL6Vtv7yGDt3cLsXFAF/mnlvr8I0rlDovryse0tq3L92PcqUs+C/tL228sIxO3N2nlYdHGhVuT8UzVhDSQ5Kndv10KoIEEAABEAABEAABEAABEAABEAABEAABmyBgkwqhtG6ZqU+V0UIHPXx7h6bvHyZ11sAakyi5SxohfubBYdrAHD///vtbWJq+a/lhzIdPVuHYlWfnmf+fKdJ5PMD9/XC/P3x7x6Z1jdzaXQgr/5TMXJn5L9IooX7/+U1dV9RXZhHiA2tMZnVJLYTffPSi0dt66M1XPnstqpW3qXAsJIWQ2vXTWxkkggAIgAAIgAAIgAAIgAAIgAAIgAAIRHoCNqkQkvvSOXX/IFvta5HQUU6xnWlCoyVsZbAoxKdecR9BfDUwcavBlC4VmfKFb3uvb6Y9VzeIh4T9VDYNzfHfNDS5XK1MLFIpR12qnqeRkMynlfVYpQkr801uvFyySuLTxDacX6zMIsTl9eLTynqtbqI3n9r101sIEkEABEAABEAABEAABEAABEAABEAABCI9AZtUCNUt0JrKsKXg+aaZhrVXCOdMXpA6lO0nhG+9vELzjowTwuKflsV7UIG0xYXo0uPT6fKzM+IhShzPnUbVmyvF15yZT2cfHpHi8kDTol2oSPrSQtKHQG8aurmT/LAQdonrSmPqz2PhKEJ8zel5dPbRUZ18PKFtqT6UJ1Vh4dhbZkk0So8lkdr101sRJIIACIAACIAACIAACIAACIAACIAACNgEAZtUCHUrP5Qye+YUOmjWgVF0780NIVwxRx2qkaexEN53fQvtvrpeqxP/V30SpWCrevFt7I4+5OX3XAjzP3lTFaU2pYJ9Ck3Y1Z9efHgiHZcHelYcSRn+TT17+PYum7I2VH5YCOdKUYjal+krpY/f2Y9e+j6V4vIAX+qeLynPtzte12jOoTHyw0JY7frpFIAEEAABEAABEAABEAABEAABEAABEAABmyFgkwqhMfUXkEvcxEInDdrYgfzZsvB8a1G8OxVMW0IILz8xgy49PS2ExT/Tm62hWDFi01/2r+eqJmwVse/iIaqWuxFVzqlxDh3SymH8BG5JxC12+Hb+0QladXq2EJb/qZKzPlXN3UBI+s7K6blKo6iS5xHDExstJT7djW8n2NSyjXqmlqldP7Fs7EEABEAABEAABEAABEAABEAABEAABGyPgM0phByix6QZzdcKfoK+/fzO/O0EK1rkljZKi5wEcRLRuAYLhR72/exDQzZ11OrtViV6Uv40xYQ0709vafiWrlrH5ZFZLTZQjGgxhKRdzA/RfuaPSLm1ZMqpAv+UUyE5qHaKnYAmNFxMUaJoppZturiMjt/RTIGTy1S7fnLZCIMACIAACIAACIAACIAACIAACIAACNgWAZtTCCVLmIoG1dSsDsandPGpXeI2ut48ShTPTYiOYCuEvWcrhYlb/tTFqFXJnkL0rtd1mn1otHhI2PerNp5SJ04vhB+wZepnHBiudVyMZPLIQd0rBq9qtvDoZLr+4oJ4WNr3qTKW0rplFOL3Xt+gWQdHScfkgRzJ81PHsgOkpOn7htPDd7eluBhQu36iXOxBAARAAARAAARAAARAAARAAARAAARsj4DNKYTyMcVO63+KnQuPT9LKU7OkXhvPLG2cHRMK8dkHx9Dd19eEMLe+6V9tguSn5yizwNnCLHHkm/zckBRC9dly86XYsvN8+/YziAasa00/fv+QixLCY5k1UkJmlcS30/cP0bpzGuskIUH2R+73iC9h33t1U73y1K6frAoIggAIgAAIgAAIgAAIgAAIgAAIgAAI2BgBm1MIyX3p7Lyyjg7c2Cp12ci6c8jVKYkQ59O0zj48Su/8vahk5kqUxTOXlG/t2QV05sFhKR4nphNNaryUokaJKqQZUvS4OnlQ36pjKF6s+EK+e69vMsufkZIcMRDbwZEmN15B0aJGE5K2XFpJR2/vEg9r7ZsV60qF05US0gytWKZ2/bQqgAgIgAAIgAAIgAAIgAAIgAAIgAAIgIDNEbA5hZB8yffFx6bR1ednpU6TK4ukRD2BqXuH0uP3d6UjWT3zUJfyg6Q4D5xkzp03yJw7p0qcjhoVbk/JXFJL+dafX0Sn7h2U4mJAOa1MvhKamEfc96o0mtInySxEH769w1YsC56OJuZRu36iXOxBAARAAARAAARAAARAAARAAARAAARsk4DNKYTalupLeVIVEnpr/uGJdPPVJannHKI5UAOmtCmUtqTkpPldwBvBGiidW2ZK467x6TNyaw/6/C1AOq9ctppUO18zKS4GPgS+ZyuY+VHMGA6UxDm55EiaH7/zii0Pf1h3eXh+rEzW6lQ3fwsepD9//1DftS0o6MdXIa78M7refOb3yFVIPvfoOK0+PUeZhdSun04BSAABEAABEAABEAABEAABEAABEAABELApAjanEOpWfihl9swpdNK8w+Pp1qvLOh0WM3oscouflAKZ0kdckl4nkyyhSZFOVDRDWSGFT9v6/P2T5G9Ilk0KvvnoRXOZjyK/Lz5SmjzQuHAHKpaxvJDk/8WXBm1sLz8shbkCa1qzNdLUMuUUODGj2vUT5WIPAiAAAiAAAiAAAiAAAiAAAiAAAiBgmwRsTiHUvnQ/ypWyoNBb+29so11X1prdcz0qjqSMHlkFOY/e3aONbKpYg0LtKJ17Ji3Z335+o3MPj9HOy6v1On4WM3cq8z/KniKfEH3i/YCm7NGejibm80yYkgbXnCpGaf7hCczi6T8pLgbUrp8oF3sQAAEQAAEQAAEQAAEQAAEQAAEQAAHbJGBzCqEK2WtTzbxNhN76/D2QBm1oTz/1rPJlSneOrDuXOaN2F0659OQ0LT85QwinTJSWPBIkZ8qfn+T/2YeeeN83Raxqea29fqo1FIJAAARAAARAAARAAARAAARAAARAAARUIWBzCqEUidLQ/6pPkuBcfnqW1p6dx5aA/yalmRKIHjU6m7a1lvkHii6ctvfaJtpzbaMpIiya19rrZ9HGQzgIgAAIgAAIgAAIgAAIgAAIgAAIgECYCNicQohTaMccS+f+51iax/kS80du7aLXfi9Y+BV9//Wd6C//j/0JZUvtmoH6VR0n5VKuXCYdiKCAtdcvgrCgWBAAARAAARAAARAAARAAARAAARAAgRAI2KRCyNnRhbpXHMZW/vI02PSnPg9p8u6BBo+LB4pnqkCNColOn//S4I2dDDqLFs8Jz7211y88WaAsEAABEAABEAABEAABEAABEAABEAAB4wjYpEKIN93RIS41LdqJcqYoIC0xL0dy48V/tODoBHmS3nC9Am2odJbKwrHAb5+o/7pWevNFVKK11y+iuKBcEAABEAABEAABEAABEAABEAABEAABwwRsViEkNtklrivlSV2EEsdzo4RxElOM6DGFQ1eenaWT9/aL2Qzua+RtStmT5xWOv/v4mhYfm2wwb0QcsPb6RQQTlAkCIAACIAACIAACIAACIAACIAACIBAyAZtXCIXcfBwFARAAARAAARAAARAAARAAARAAARAAAfsjAIWQ/fU5WgwCIAACIAACIAACIAACIAACIAACIGDnBKAQsvMBgOaDAAiAAAiAAAiAAAiAAAiAAAiAAAjYHwEohOyvz9FiEAABEAABEAABEAABEAABEAABEAABOycAhZCdDwA0HwRAAARAAARAAARAAARAAARAAARAwP4IQCFkf32OFoMACIAACIAACIAACIAACIAACIAACNg5ASiE7HwAoPkgAAIgAAIgAAIgAAIgAAIgAAIgAAL2RwAKIfvrc7QYBEAABEAABEAABEAABEAABEAABEDAzglEWoVQwsRuQtf5+by38y5E80EABEAABEAABEAABEAABEAABEAABEDANAJQCJnGC7lBAARAAARAAARAAARAAARAAARAAARAINITgEIo0nchGgACIAACIAACIAACIAACIAACIAACIAACphGAQsg0XsgNAiAAAiAAAiAAAiAAAiAAAiAAAiAAApGeABRCkb4L0QAQAAEQAAEQAAEQAAEQAAEQAAEQAAEQMI0AFEKm8UJuEAABEAABEAABEAABEAABEAABEAABEIj0BKAQivRdiAaAAAiAAAiAAAiAAAiAAAiAAAiAAAiAgGkEoBAyjRdygwAIgAAIgAAIgAAIgAAIgAAIgAAIgECkJwCFUKTvQjQABEAABEAABEAABEAABEAABEAABEAABEwjAIWQabyQGwRAAARAAARAAARAAARAAARAAARAAAQiPQEohCJ9F6IBIAACIAACIAACIAACIAACIAACIAACIGAaASiETONl97mdnZ3II6kb/f71mx48eGr3PAAgchPAeI7c/Yfa2zcBXL/23f+mth7jxVRiyA8CIAACIGAPBKAQsodeVrGN1WuUocHDupDvh49UuUJrFSVDFAiEPwGM5/BnjhJBQC0CuH7VImkfcjBe7KOf0UoQAAEQAAHTCEAhZBovu8+NByq7HwI2BQDj2aa6E42xMwK4fu2sw81sLsaLmQBxOgiAAAiAgE0SgELIJrvVco3CA5Xl2EJy+BPAeA5/5igRBNQigOtXLZL2IQfjxT762ZpbWbJUAYob15H27D5uzdVUrW721l7VwEEQCIQzASiEwhl4ZC9OfKDy+xBAlSq0iuzNQf3tnADGs50PADQ/UhPA9Rupuy/cK4/xEu7Iw73AlKk86YOPH33+/DXcyw6pQK4EWrZyIqVImVTI9sHHn/r1mUB37zwK6bRIe8ze2it2VJo0yen9+w9WN/7E+mEPAoYIQCFkiAzSJQLx4sWhKlVLUfmKxShtuhQUM6aDcOyNlzdduXKL9u89yfa3pfwIqEegVu3y1KRpjVAFTpq4iC5dvBFqPmQgsofxXLdeJWrYqKrQ3d++f6emjXqj6yOAAK5f9aHbw/WrPjX7lYjxEnF9Hx73P09Pd+rYpTFlzJCGErjEF6xvfrFFTwL8P5Gv30fh+XTd2l0hQgiP38sOnRpR67b1tOqxl1kJjRoxWyvNViL20l6ugOzExl+a1Cmk8ffz5y/66PeJvH18afvWg7R71zFb6Va0w4YJQCFkw52rRtMyZ0lHEyb1Jzd3F4Pi/v79S5vW76M5s1fRjx8/DeaTHxg4qCNVqlpSSPJ+50t1a3eRH47wsLXUr3nL2tSlW9NQeQzoO5FOHL8Yaj57z2Cp8WxtXFu1qUsdOzeWqlWxbCvy9w+Q4uYGrOX6MNQOa6kfrl9DPRS2dEtdv9YyXsJGBWcZImCv48VaxrOl739Nm9ekps1qUoKEToaGgJB++9ZDGjlsFr18+UZvPkv/XvJC27ZrQO06NtAq/+iRczRowBStNFuJ2EN7W7WuS40aV6P4CeIZ7Lbfv3/TudNXqW+f8QbzRLYD1nJ/iWzcrL2+UAhZew9FYP0SJnSmjVtmkVP8uEbVYs3KnTR71kqj8k6c3J9Kli4o5H3/7gNVr9LeqPPCK5O11M/SD1ThxdMayrHkeLaG9snrYOkHXGu5PuRtloetpX64fuW9Yl7YktevtYwX8wjhbDkBex4v1jKeLXn/K1osL40Z15tiO8aSdztx66Bo0aJSlChRtNIvnb9B3bqO1EoTI5b+vRTL2bR1Dpsy5iFE+Uq9QwdPoyuXbde63pbbW6RoHho/qZ80Y0LsY/6BXDn2+LE9zEpo9Mg5YrZIvbeW+0ukhmiFlYdCyAo7xVqqNHJ0D6pYuYRQHX6TO3niEvm896N6DSsJ82OXLd5MLVrXpvjxNdrxP3/+UPPGfenRo+ehNsHabyjWUr8cOTNRgYI5dXi6MGVdzTrlpHRYCEkoDAYsOZ4NFhpBByz9gGst14chvNZSP1y/hnrI9HRLXr/WMl5Mp4IzDBGw5/FiLePZkve/1eumUvoMqaTu51ZAG9fvoUMHzxCfxlO9elmqVrM0OTlpPmjyZ9g5M1fRmtU7pXPEgKV/L8Vy+J47WY4TJzbt3XNCnmyzYVtt79oN0wUXGmLH3b3zmLZu3k9nz1wVxl+lSsWpQuXiFCtWTCELnz0xZOBU4T1KPCey7q3l/hJZ+VlrvaEQstaeieB6cQ338dPrKHZszc1sH/vxGjl8FolOGfnXjcoVWlPSpG60bdd8qbaLF2ykJYs3SnFDAWu/oVh7/apWK0VDR3ST8EIhJKHQG7D0eNZbaAQmWvoB19qvD2uvH65f0y4OS1+/1j5eTKOF3PY+Xqx9PJt7/0uQID7t3LuIWWfEEAb7zRsPqF3rgToDvwpzSzBoSGeKHiO6cOw0+6jZlzlyVm6W/r1Ulod45CaQPLkHbdw6i6JGjSo05M7tR9S6xQCdRikt5PbuYT6jhkd+n1HWfn/R6QgkGEUACiGjMNlfJqWip2e30XT+3DUdhRAns3LNFMqYKbUA6diR8zRwwORQgVnqhlKwUC7iXv7fvfOmixduhNnTv6XqV7hIbsqSNT0FfQ2ie/eehNlc2NwHqlA7yMYyWHo8c1z8q2S2bOmZPwNn4l8jvdlKE/xB9e1b73CnaegBl9cxJ7M6c0+SmPhUzTOnr5APc3xo6map6wPXr6k9Ydn85dr1Y+bvmjJuHtlD757es2yBBqRb+vq11HhW635vAIvVJWO8mNcluP8Zx69O3YrUf2Cwm4HhQ2bQgf2n9J4sfz599PC53gUWDP1eZsiQmrLnyCBMCwoM/ELnzl4L0++l3oqpkMgVE7lyZ6YkSVzpwwd/unD+Gnl5vQuzZLXlhbkiBk5Usz9KlylEbm6JhOldd9hKbzeuG//bVr9BFerTv41Uy6GDpgmWaVKCLLBl21xKliKJkHL18h3q1GGo7GjIQbXuB7wUNZ9PLfV76ZYyAyXPmpt8Xj6h5zcvhQwHR1UnAIWQ6khtQ2C27BloyfJgJ2itmg8QlsdUWgjx1hYvkY/y5MkmNPzhw2fMFPa4FoQRo3qwFcqKaqVxzTr/iidu3PGavo2vZBaaw2lep8ZsJS6PpK5a83l/MU//Pmxpz727j9HiRYatlixdvxo1y1JD5njOPUkicnSMrdXMr0wxdObUZZo3Z61JigMohLQwhhpRczzLC0uc2IXata9PxUsW0OvYkiuG3ni9p0OHztCCeevkp2qFu3VvTo2aVhPS+AoVJYo00jouj2xmfgiSJnMTko4cOkvD2MOwclM+4JYp0ZQGD+1Mhdm8d9GEmZ/Dr7sH95/R9KnLmPLqvlKMELf09YHrl8haLfz6bjwjjYk9M0fQ/XNHpHh4BtS8fi09ns2935comZ/GjO8j+EHhjD/6B1LHdkMMOsRdvGQcZcmeTuqOhfPW08oV26R4eAYwXrRp4/lFm4cYM/f5RWl50av7GKasuSqK19p37tqUsrKPcHzzevWWxo2dr3WcR5S/l/VqdaU+/dpS3nxZJesino//Xt67+5RmzVgRqgJhz74llDBRfH6awa1h3R4Gr2v5SY2bVKeuPZoJST9+/KKWzfpRW/bcwf0oxY4d7EOJu2148vilMDXuwoXrchFaYbXlceFqtpc7axYdcH///pOasVVS+w1ob1Z/8DrGjetIg4d1Ie7/R1wtmaf/+fNXeL9ZMHetYHmfKHECnkwH9p3Suwpcf1aXOvUrCnn4e0aFsi0Nfnyev3A05c6bRcj78vkbqlenqxA29Mfc5yG5XDWeTy39eynWt1qPkZSuQEmKGi2akPT+yX1aP7wz/fr5Q8yCvYUJQCFkYcCRVXyiRAlp78ElUvWXLNpEixdu0GshJGUyEBg1pidVYPNpw7L5salpldjUNEPb+Il9BefUoummoXzcpLNPz3F6V1qyZP2GDO9KfC6xaLJsqH6+THHFTZnvsi8VxmzmPlAZU4YpeeI4JaSYjnFMOUXIG/Q5gII+fzL5PFNPUHM8i2Xzh4vFy8ZT6jTJxKQQ9yfZKnD92Wpw+rbuPVpSk+bVhUNcIVS0YH192YS0rdvnkWdydyF8lln49O45Viev/AGXP+xcZNZ9hYrm1sknJgR++kITxs2nI4fPiUnS3pLXB65fDWYohKThpjeg5vVryfGs1v1+3IQ+VKZcEYmFoeu8XfsG1LZDAykffxls3KCnFA/vgLUohCLLeMH9TzNCTb3/8Rf6aTMHS8NbdGkgJZgYkP9e8lNvXLtPOXJlNCjl8+evxK2Szpy+bDDP/oPLmELI2eBxfoArngytfCY/sQn74Nm9Vwsp6b+LtyhfAc1HWClRFuAfGqdPWUa7dh6VpQYH1ZbHJavZXkv0B59muHDJGObUO2kwCEXoNft4xxVsCV00irz9e0/QCLY6nXIbOKiT5MPzM7McK1NSo6xT5uNxT0935jPKUTj0/ccPev7MS182IU2N+4EoXK3nU0v+Xop1dU+VkZqMXUhR/imDxPSjy6bTtYNbxSj2FiYAhZCFAUdm8UeOr6Z4TpqX/Levval7t1HCdBOuYRd9CBnTPkvdUNq0q0/tOzbUqkJQ0Df6/u2n8HVVrLuY4TBzNjiEmXYqN0vVr0fPltS4meYlXyzz169f9Pa1j2AdxS2G5IoiQ/OQxXPle2tTCFXsOJCylqoir6JR4Zc3L9OmseHzAqPWeBYbNpQp+6pWLy1GhT13HPju7QeKHj0aubolZHuN7wIx05xZq2n1yu1iVNpbUiHEC+FfDrnS1N83gHyYabkje+hx90gs1FOsxMMHz6lZ495iVNpb6vrA9dtNYmzqC5F0ooUD1vKCz5up1vVrqfGs5v2ev7wsXTGBknpqLAH59Tt5wmLatvWg1OPp0qWkuQtHSos6BAV9p//1myRMG5EyhXMA40UbeEgftHD/M+/+d+IM93GpsY7x9/vErKxXG1SAaPeKbkypgBBzvH3jw6zM/ZhldyxBkRDjny8ifvz+vafUomlfMavOXk0FiVKBIxbGrQf5lO9YMWNSEv57Lqvfi+evqX6dYMbiOXyvtjwuU832GuoPP/b8wqfGxWaOmj08XdlzvsaahJcfWn9wZX01xfPae/asFvApkDkej0du7i5asxaENqmgEOJyjNnUuh+IZan1fGqp30uxnnyfs1wtKtu2jzxJCN88upMOLZqsk44EyxCAQsgyXG1CaodOjah123pSW75//0GPHr6grNnSmaQQ4g+38eJpW49w89cSbJoN37zf+VKXTsOlcuQB/iCsb040135zZ9biCmf8RXzPzmM0ccJC6fQWLWszq4saUh5u2jmYefk/wSw15Jsl6sflb2Zzh5P/mzvMFVWbNuwTlp4UvwjxqQE9erWSHvr5OcMGT6eDB07zYIibrSiEXj+4ReuHdQqxrWodVGs8i/XZuHU2pfz3tYl/MVy1fBvt23tS8jHA5/XXrluBTWesLileDDm1tLRCiE9d27P7OI2RLXvKHW526tyUEjPFlbjxr4ob2Eot8s0S1weu38jhFN6aXvDVun4tMZ759aL2/b5CxWLC9AXxJZQrmvlUEX//AOHynDN3BOUrmF26VNev2U0zpi+X4hERwHjRpo7nF20eYkyN5xduTVG6bGFRpDCd6/Sp/2j7lkMU0nQp6QRZQKmA4Fa1m9nz2rSpS6VcZcoWot592lIiV810In4gJN9F3DJEablerkJRrY+YYbUQ4mUfYs+JE8cvlKYqlS1XmLp1byF86OHH+canqS9fukUTkf3VpxAyRx4XrWZ7lf3Bn192bjtM48ctkFrBn1+6dmuuZYVlqD/488bu/UsExR4XwN9lVq/cIcx6EAXyd53mLWtJSkaeroaFkCg/pL2az0NiOWo9n1rq91KsJ9/z2QXt5mylWHHiSsm8zzcxdyOv7l6V0hCwLAEohCzLN1JL5zepdRtnCppzZUOCvn4TrG0usnnKfIqLqZu5TskqVylBw9nNQtwMee9vxHz39OjdUtL8b9mwnyZPXiyeZnBvbv3KlS8i+IEQC1i9YgfNmb1KjEp7viTn+En9pAcHYx/q1XigkiqhQqB4406UrXQ1kyW9fXSHtk3sZ/J5YTlB7fEst1gwZH3G6zmMrQaXyEXzEHmbTQlctGC9TvUtrRC6fuUedWgfbGIvVqBmrXI0YFAHafwZa3pv7vWB6xcKIXEMGrtX+/qVl2vueLbU/V75lZe/tA1lHw24DxA+hUT0w3fv7hNBWSRvU0SErUkhZM3jBfc/8+9/3Enu3HkjtRQ0fMzzF8nXr97TnTsPhY9rZ89cCfVSUCog+JSsrp11P1I2aFiFevcLdia8dtUumjVzRajyxQxK30dhVQgZsiavyNwTDBvZTbKc4T4G+UdQ5aZUCJkrTylfjIe1vcr+uHzpNvtoPEwUK+35833PPq2kuKH+4MqysROCrbn2sw93I4bNlM4TA4MGd6IatcuJ0XBTCFnifqDm86kE5F/A3N9LpTwez1qiEptlUJVckqagz34f6MGFY3Rhu+47k75zkaYOASiE1OFos1K4lcOceSMknyXKhn7w9qe1a3YKpuzfvn1XHjYYN/eG0rNnK2rUTKOA4F/hqlfuIFlmKAvdxZYndXNPJCQb8sWgPMfc+nGtuquriyT2wYOnUlgZ2H9ouTRn+eQJ5memj34/M/LzrE0hJK+bNYfVHM9yE2lzX8gsrRCaMXU5rV+3W2/X7Ny9UPqqePnSLYPWevKTzb0+cP2a/0Ik7w9zwo5OzpQqZ0G9Iip1GSKlX9y+mvzevJDiYuD904f0wcvw/U3Mp8ZezetXXh9zx7Ml7/cbt8wSVojh9eUfX0YMnUG9+rQh0fEpt07s22s8Xbt6R94ki4UxXojMHS+4/6lz/8vBVswcMbKHMH1I34DnTqBvXntAq1ZtM+h0mp+nVEDos5QV5R87tZb5hIktRI8dZavq9jd+SktYFSRKBc6CuczyZ5mu5Q+vlNzHIPeF1L7tILHq0l5teZJgRSCs7VW7P9p3bERt2gXPdujYbqje+yX/feEzD6JG1Sx4E14WQpa4H6j5fKroVrPvf0p5iFsHASiErKMfrLoW/EtbvfqViS+1aGjVhLt3HlOPrqPo06fPRrXF3Acqubkwnz9esVxLg+XKlx0NbZ6xKMTc+olyjNnLf8CNVVhBIWQMWf151BrPq9dNo/QZUgqFcKXkebYk7b69x/U6ZtZfk+BUSyuE2rUeZHAVsRWrJ1OmzGmEyhjyIxRcU03I3OsD1686L0TKfglLPGmGHNRo1NywnCqcc2rdArq0c02Yzzf1RLWuX3m55o5nuazQwqbe7/lKQmOZk2lxdUA+PdrBIYZUzPIlW2jB/HVS3NIBjBfzFUK4/6l3/+MrKbVk7gFKlC5AiV2Dpz/Lr4MA5mtn3Nh5Ou4CxDxKBURIv5fbdy0QVrTl5xr7vCaWE1YFiVKBE9Kqanyhi+w5MghFPn3yihrVD7akF+uhtjxRrnIf1vaq3R8DB3VkTqDLC9Xj08WKF9b2PSqv96FjKyU3E+GlELLE/UDN51M5Hx4Oz99LZdmIW44AFEKWY2tzkrkvg7ZsVZOWrevobRtXCrVpOUBYwlFvBlmiuTcUU85fuHgs5cydSSj90cPn1JQtYRnaZor80GRxZ3HJU3iQayIXcogV/CAvnsdfxkXneMY+YEAhJNIL+97c8az0acJrws3VueNDX19/4g4Lnzx9SXuZ7x7Rb5Sh2lpaIVSxbCvJ94iyDhFxfZhyfUVE/eSMbP36jWwv+GLfmHv9inL43pTxKD9PX9gS46UvWwK7XsPKOsXduMosANrpWgDoZFQxAePF/PFiynjD/c/4wVurdnkqVCQXZcqYllyZk2D5xhdUaNakr15LcqUCIqTfS1MVuvI6hFVBolTgNG/clwxZnc+dP5Ly5s8mFPv0KVMI1QtdIWSuPHkb5eGwtlft/jBlVbC9+5dK0xDDSyFkifuBms+n8j7lYVPqqzwXceslAIWQ9faNVdaseo0yxFcZ+8isclau2EadujbR+lo5hM1XPszmLYe2mXtDMeX8iHqg4hZVjZtUoyRJXUPDIR2HQkhCES4Bc8fztBmDqTBbzl305aGv0vyL1LUrd2n6tGUGlxyFQqi9PnRCGq5fg2hUOeCaIj1V7DxQryzXlOmkdP83r+jnj29SXAxc3b+Zbp/YJ0bDdW/u9StW1pTfE/Ec5d6S93te1ibmxF6+ZDJfqIBPfbh/74myKhaNY7yY/0JkynjD/S9sw5krFZo2r0ncolDcdm0/QmPHzBOj0l5tBYQkWBEIq4IECiHDH7SMUdDZo0KIDz21nk8VwxgKISUQG4lDIWQjHRlezRAfwMVl51Ok9KTFy8ZKJpY3b9wnbm4b2mbKA5E+WaacHxEPVHxFimEju0tm/rwN3HrkG1sa+K+iQbFiOUhOfSOrQih9/hLkljazomWhR/28ntGdUwdCz2ihHGqMZ76aHV/tJHWaZFrKUWWVvV6+oxbN+kqrgsiPQyFkXQohe7t+5WNRHrYmJ8HyeolhNa5fLsuU3xOxbPne0uOlYMGcNH5yf2mVHF42XwlpzsxVgg8/eV0iMozxYhx9U8Ybnl+MY6ovV568WWnc+L7knNBJOMxX6qtRVfe3Bgoh8yyO9LHnaWFVgKndH1oKIeZzrUyJpoaqTHsPMAuhxJpFQCKzhZDYQDWeT0VZ4t6U+5d4DvbWTwAKIevvI6uqofIBnFeOr6JUpVopoZ6Bn75Q2VLNQq2zuTcUU86PiAeq1eumMv8yqQQOv379FlYrWLN6p14LEWO+cCiBWtuUsYodB7IVAqooqxlqPDyXnddXGbXGM5fNHRIWKpyLUqVKRp7J3ClLtnSSolQs29AXSiiEdB/SRWa4fkUS4b+PbC/4nFBE/B5Z+n6/dsN0Spsuhc4A4Ja6XTuPoEePnusci4gEjBfjqOP5RT0fQqERn86teIvlEbJx/1vFCjXQOUVtBYROAf8SwqoggYWQeRZC8im33NF4lQptDU6hP3FmnbT0vC0ohMSxaM7zqShD3Jty/xLPwd76CUAhZP19FCE15F883d01U53+u3SDHjLfO3zT9wLN846TLR3Ote985ZOQNnNvKOOYk80y5YoIRfC54RXLtzJYnNxp7oP7z6h5kz4G84oHzKkfN1Hee3CpZB106sQl6tdngihaZw+FUCcdJmonWHo866svHwfcZL1FqzrSqhWGViPr0q0Z+5pWSxDDHVRXLt/G4APL7r2LJf8IZ09dpt69xukUr3zAbdNyIN2+9UAnH09YvmoSZc6SVjgWXk6lcf2G3wuR3k43MtFaXvAtff1a8/3+fwM7Uq265aUe40ti582fVZqmevXyHerUYah0PCIDGC/G0cf9z7z737iJfSl2rFgC7CtXbtOaVTsMglf+FupbYUqZx9p9CIXoVHrJOMqeK6PAQxWn0kbIMwQ/rAowtfujYaOq1Ktva6maY9kiCrt2HpXiYqB4iXw0eVrw9GlDCqEB/+tAtetVEE4LzUn1qDE9mZNvjQ/TZ8ynU68eY8TipL2l7wdSQbKAKc+nstOEoDm/l0pZiFsPASiErKcvrKom8pUKVq3YTnNnrxbqp08hJL+J8i8wJYo0Yubsf0Jsj7k3FLlFRajLzu9hy84n0Sw7f+7MVb03ZGVlzakfXxVm6ozgaXPz56ylFcu3KouQ4oeOsFUNEsQT4mGdMjZ00DQ6dPCMJDO8A9lKVaU0eTQKOlPK9n3zkk6vm2/KKWHKa+nxHFKl5Ks9eL/zpWpV2ulkr1GzLA0a2llKHzZ4Oh08cFqKywOnzm2gmDEdhKQdWw/T+HG6/JQPVCEto7uDLTufxCOxIO/Kf7epc8dh8uL0hs25PrhAXL/aL0QRff3q7WSWaC0v+Ja+fs0Zz5a833NF2IjRPaWpqG/f+FCr5v1pwsT+lDOP5iWD993SxZtp0YL1hrox3NIxXoxDjfufefe/7TvZSl+emg+WoSlEu3ZrTs1a1hQ6hk/bb9aoj45FnfL30toVQiE9U27ZNpeSpUgitNeQ03mlxZG58gyNemtRCGXPkZG5tgj+cPbg/lP2YbivTrWXrphAWbOll9INKYSatahFXbsHz4To1nkkXbp4QzpPHpBbd/KFd/j9W7lZ+n6gLE8eN+b5VJ6fh835vVTKEuPOrh7kkUHjDF1M83nxhHxePhaj2FuYABRCFgYcWcX369+O6jaoJFT/PXuJbVivG339+k2vhZD85vDwwTNq1jh0C5zR43pR+QrFBPlcidSyaT968uSl0biqVC0p+OgRT9jNtP1j9CydzB199u7XWvqaumXDfpo8ebF4msG9OfVLkyY5rd04PbjMjazMSfrLrFmrHA0cEmwhY6xCiM+Nn7dwlFT/vXuO06jhs6U4AtoE1B7PXDHath0zPY+iKWfi+IV09swV7UL/xWbMHEKFmONpvr1/94GqV2n/70jwjpvzbts1T/Ildebkf9Sn9/jgDP9C8gcHnjR10lLatHGvTj7lA+7V/5gVQUddK4Jq1UsLiqioUaMKMvbvPUkjhs3UkadMMOf64LJw/UaO69daXvDVvn7VHM+Wut/zL7grVk2WXu74VIcJYxcIX7YzZ0lHs+YOo3jx4ghN4Ra5vXuMpRvX7ymbFq5xjBfjcOP+Z979b/7C0ZQ7bxYBdhB7Lh3CPoidOX1ZL/yNW2ZRylSewjGf935UtXJbnXzK30trVwjduvmA2rYKtmQRG1SufBFBgRw9ejQh6Qhb4GUwW+hFuSkVQubKU8oX49aiEOL12bhlNhsHScWqEV9xmL838NkP6dKlFNxeZMyUWjrOA4aeh5QKphPHLtCAfpO0zuWRkqUK0JjxfYiviMk3Q/2h9v1A7edTofKyP+Y+/8lEScFijTpSgZravp32zh5F984ckvIgYFkCUAhZlm+klV6seD6aMj34B4ffPFev3E5x4jjSgEEdiDuV7tJpOHsprk9l2Y+QuK1YtpXmz10rRg3ulUsi8hfWtWt3GvxRVwpKkCA+bdw8S7Ks4WabO5m1xNSpS6WsjZtUF5zaJfjnUPDXr180+H9T6cTxi1IeQwFz63fg0HJK4BJfEB/gH0gD/zeZrly+rVVc5SolqGef1lp+ZoxVCHFBx06tZf0RW5D5kZXBv2Zs2byfvLzeaZWDCJHa47lEyfw0aer/JLRcEbp08SadscUd+rXt0ED6wn/t8l3q2GGIdJ48IJ86yP1Obd6wj2ZMXy5l4dPP+IMrf1HkG38Q5l+59C1pr3zA5V9Gt285RBMnLJTk8YfHbj1akJu7xnqOH5g1faVRTmrNvT5w/UaO67f7ikMULUYMYczsnDKYnl47J42f8Ayoff0q627ueLbE/V7+0M3re+zoeRrYf7JU9Y6dGwv3AzHB0HRU8Xh47DFe9CsllOxx/zPv/tejZ0tq3Ky6hJUretau2Unr1+2W0nLlzkKdOjehHP+mT/EDF8/foO5dR0p5xIDy99LaFUL893zfnhM0akTwR0D+TNKzV2vJcoq3bcG8dbR86RaxmdJeqRAyV54kWBGwJoUQ//g6YFBHafq+oqpS9NfPXxT9nwLHkIUQz7xn3xJK7JZQOI8/r+3ddYzGjQ221q5YqTh1ZONPtL7mGQ1Zaqt9P7DE86nQ0H9/zP29lMsSw/WHzKTk2fKIUfr47jUt6cE+umILNwJQCIUb6shX0IRJ/ahUmUIGK85XOYka9Z+JBMv1+tV7atSgB3HlTGgb17DPnDNMa9UUfeccZtOg+NcffVvrtvWI35jkG/9S+oX9H9PBQVAWyZcDN6Sdl58vhs2t31Q2D7kom48sbpzJjWv36cuXL/SH/ZgnTeouOJ2W8+N5TVEI8SUli/xzliiWo2//nq2sUV3Pyhr68tpymtrjec9+9kDgqnkgELl9+vSZfLz9KFq0qOTkFI8S/lMKiscXLdggKI7EuHzPp41xZWu0aJqve/wYl+Xv/0mwBHBn0x7l43n9mt1aCiO5LOUDrniMy/vy5asgJ2lSN+nBhx9//OgFNWnYS8wa4t7c64MLx/WL6zfEQaY4qPb1Kxdv7nhW+37Pv/DylxfxSz+3LOR+wHx8fOXVpqUrJrIpDumktA1r99D0acukuD0HrHm88H7B/c+8+9/KNVNIadHh6+NPAew3mE+p5r/NDg4aZTbnHRDwmfoyf3t8JVzlpvy9NFchFNrYU5Yvj+tzfK1U4HAFBL838A+zgYFf2Ol/yYP9nsvb++L5a6pfp5tctBRWW57a7VW7P8SG9+zVSvD9I065F9PFPX9HyJ0nq/TcFpJCqFHjatSjd0utZzLeF/7M0X8sNv5cEjtrPctdu8I+BrbX/zGQl6/2/UDt51OREd+b+3splyWGuyzZR7HjOYlRurhjDZ1ev0CKI2B5AlAIWZ5xpC2Ba63HjOsjOLAMrRHcNwp3nHz//pPQskrHu3dvQY2aVZOmyUgHZIHQFCR8ulpx9mVEnPIiO1UryL+eckd8/v4BWukhRcypX+LELrR46VhKklQzz91QObxe/Ec8TdrkQpbQ2iuXkzy5h6BU8wilDEPTlOSy7CGs9njmFjbc74+jo8ZKKzSGhr5Oys8bPrI7VaxcPNTxfPnSLcFCT36uPKx8oOIWeLnzaUzs5fnE8JcvQTRx3AKDfovEfPK9OdeHKAfX7zD2IB/yPQLXr2a0qH39imNQ3JszntW83/Ppo4uWjJUcx/OpYpMnLKbt23RN57kVBPdXJ1qKfvv2nQYNmGJw+qrYVnvYW/N4Efnj/hf2+1/WbBmIO+xN6ukm4jS45x8KF81fTxs36E6v5icpfy/NVQjJ3SgYrJSBAz+ZhUrRgvW1jioVOHxKufyDo1ZmFuHWw9OnLqOdO44oDwlxteWp3V61+0MOoTT7yF29ehly93AVFD/fg36Qr99HOsR8Nq5bu4sOHF5B4qyCkBRCXOZYNh2sNPPzFtr7x2uv9zTof1Po/r2Q34/UvB9Y4vlUztGc30u5HB5OlaMA1RkUPLXxR9BXWt67KQX6eSuzIm5BAlAIWRCuLYjmFgnccqFOvYrCsrfKG19AQCDt231CcJr88eMnk5tcq3Z5qlu/Erm6uQhWEHILCC7MGAVJ7ToViGvrufJFnKvLz+UP0n4fAmjPnmOC6SxPM3Uzp3583npHZsFUhDmZln+54XXgX4FuXn9As2etFJZJDotCiMvhD729+rSibNkyUsJE8aWVzfgxceOWW7VrBvspEtPtca/2eC5YKBc1bFiFKVuySo6e5Vy5KTY3Z9+374RRUyn5udy0uVnzWsz02409aARb4PFjH7z9acuW/XrNwPlxcVM+8NWs2pH69m9L+Qvm0BqL3Mrv8aPnNGPacp0pjaKskPbmXB+iXFy/uH7FsRDaXu3rV1meOeNZrfv9yNE9mFK4hFS1kycuUv8+E6W4MqD0K3b71iNmTTRAmc0u49Y8XsQOwf3PvPtfr96tqXzFYpJVh8iV77ll9uWLN2khs8x98OCp/JBWWPl7aa5CSDndU6uwUCJBQd+oZNHGWrmU9WtQtzu1a9+AihbPq/XMx583nj31otkzV9K5s1e1ZMgjasuzdHvN7Q9520MLm6IQ4rL49ct56nte44rI48y/0AymnONhYzY17wfHPm1CAABAAElEQVSWeD6Vt8Gc30u5nJLNulHeqsHTwx6eP067ZgyVZ0E4HAhAIRQOkG2lCEfHWMR9orRkfkwCP32hTu2H0rNnr4ibr1rLxrX/7u6JmXnwJ+b1/5aOiX1E1JMrbfIyhYGHh8ak188vQDBbfsRexLFFHAG1xzP/8eUOZrnc32yVvXdvvVk/PwizTyduAZYvf3ZKlDgBBXwMpGtX74b4UGsMyYyZ0lAONl2Tj0luLXeRrYzx/JmXMaeGSx5cv+GC2SYKUfv6VQsK7vdqkVRXjrWOF3krcf+T0zAtzH97c+TMxH4vE9IPpgi6z1aSunD+mmlCrDS3UoHTvHFf4VmAtzl3nizCM6+v70e6eOG6UYuzqC3PSrGZXC1u6bllxxxJyRaahZC8AE9Pd+KLvbix9w9uqckddV+7ekeexeSwmvcDtZ9PTW5MCCc0HDGPPDNlF3JwpeaWMb3oxW3j/LGFIBaHTCQAhZCJwOw9u75l5+2dCdofeQlgPEfevkPNQQDXL8aAKQQwXkyhhbzWQsCQAies9VNbXljrYW3nKZ0lr1y+jebNWWNt1bS5+nRbfpBiOmpWzHz/5D6tHtTW5toYGRoEhVBk6CUrqiMeqKyoM1AVswlgPJuNEAJAIMII4PqNMPSRsmCMl0jZbXZfabUVOGrLiywdxK03+ZR85eYQMwZlyZKesmRNS3HjaRQTPE+PLqPoArO6wmY5AunyFacafcdJBZxYOZsu79soxREIPwJQCIUfa5soCQ9UNtGNaMQ/AhjPGAogEHkJ4PqNvH0XETXHeIkI6ijTXAJqK3DUlmdu+8LrfD7Fbt2mGUYVxxfi6NQRfmyMgmVGpjKte1OuCrUFCV8/+tGirnXp18/QV6o2o0icaoAAFEIGwCBZP4HkKTyoTJnCxB1I61v1RP9ZSAUB6ySA8Wyd/YJagYAxBHD9GkMJeUQCGC8iCewjEwG1FThqy4ssLI1VCD1g/qdGDptllD+myNJ2a61no5HzKGlGjf+gG4d30OElU6y1qjZfLyiEbL6L0UAQAAEQAAEQAAEQAAEQAIHIRqB8haLUqXNTqdp9e48zS1mhtjypYlYe4At1zJw9TG8tv3z9Sr4+/nT9+j1avmyL3jxIVJ9A4uRpKVZcJ0Gwn9dz+vLJT/1CINEoAlAIGYUJmUAABEAABEAABEAABEAABEAABEAABEDAdghAIWQ7fYmWgAAIgAAIgAAIgAAIgAAIgAAIgAAIgIBRBKAQMgoTMoEACIAACIAACIAACIAACIAACIAACICA7RCAQsh2+hItAQEQAAEQAAEQAAEQAAEQAAEQAAEQAAGjCEAhZBQmZAIBEAABEAABEAABEAABEAABEAABEAAB2yEAhZDt9CVaAgIgAAIgAAIgAAIgAAIgAAIgAAIgAAJGEYBCyChMyAQCIAACIAACIAACIAACIAACIAACIAACtkMACiHb6Uu0BARAAARAAARAAARAAARAAARAAARAAASMIgCFkFGYkAkEQAAEQAAEQAAEQAAEQAAEQAAEQAAEbIcAFEK205doCQiAAAiAAAiAAAiAAAiAAAiAAAiAAAgYRQAKIaMwIRMIgAAIgAAIgAAIgAAIgAAIgAAIgAAI2A4BKIRspy/REhAAARAAARAAARAAARAAARAAARAAARAwigAUQkZhQiYQAAEQAAEQAAEQAAEQAAEQAAEQAAEQsB0CUAjZTl+iJSAAAiAAAiAAAiAAAiAAAiAAAiAAAiBgFAEohIzChEwgAAIgAAIgAAIgAAIgAAIgAAIgAAIgYDsEoBCynb5ES0AABEAABEAABEAABEAABEAABEAABEDAKAJQCBmFCZlAAARAAARAAARAAARAAARAAARAAARAwHYIQCFkO32JloAACIAACIAACIAACIAACIAACIAACICAUQSgEDIKEzKBAAiAAAiAAAiAAAiAAAiAAAiAAAiAgO0QgELIdvoSLQEBEAABEAABEAABEAABEAABEAABEAABowhAIWQUJmQCAW0C0aLHIGdXD/J980L7AGIgAAJ2RwD3A7vrcjTYzgg4JXKnb18C6UfQF1VarrY8VSoFISAAAiAAAnZJAAohu+x2NDqsBFxTpKOcFWpT+oKl6M2Dm7RtYv+wisJ5IAACkZwA7geRvANRfRAwkkCRem0pf43G9OTyWbp1Yi89u37ByDP1Z1Nbnv5SLJeaLl8x9hxUhhK4JyWnxO4UlX0kO7RgPD28dNJyhUIyCIAACICARQhAIWQRrPYhNLaDI2VMkoOe+jyggK9+Nt3omI5xqWjD9pSzfC2KEiWK0NanV89BIRQBvZ4lZTxyjBWN/rv/MQJKR5EgQIT7AUaBrRBInT4RxY4Vg+7cfGsrTbJIO7gCp1DdlpJs/vt/ePFUCvR7L6WZElBbnillm5M3jlNCqtFvPHmkz6IjZs/MEXT/3BGddCSAAAiAAAhYNwEohKy7f6y2dlVyNaCyWatTrBix6Mfvn7Tv2iY6eHOb1dbXnIrFT+xBDYbPZl/B3LTEPLxwnHZNH6qVZkzEOW4M+hz0i379/mtMduT5RyB6tCi0YkAeypwqPnGVnNeHr9Ru8lV65/cdjEAg3AiofT8It4qjIBCQEYgePSoNnVyZUqVLRPyG6vMukMYPPEAfvNWZEiUryiaCBWo0o2KNO2i15ee3INoxZRC9uPWfVroxEbXlGVOmGnkajZxHSTNm1ysKCiG9WJAIAiAAAlZPAAohq+8i66tgonhuNLjmVKYMii1V7uHbuzR9v+nKEUnAv0DmpLkojVtGcnVKQnFiOmkd3nF5Nb30faKVZumIk4sbNWQPQHJl0KvbV+nSrrXCQ+CfP39CrYKTY3RqXy0V5UnnTG4uscg5rgP9+vWHvD9+ozcfvtHG41509KpPqHLsPUPtYkloaPPMWhiW7ntGc7Y/1UpDxHIEokd3oMqN5whWclydefn4fHrz8qrlCrQyyWrcD8QmFS6ZmirW1nxl/8PuB4umn6E3rwLEw+Gyz5EnKdVpkTvUshZOOU2vX0acRV6ufJ5Uq1kuoZ7fvv6kcf87EGqdkSFkAiUrpKfW3QtrZdq98SZtXmWb17Ma11uSNJkoZ8U6lKV4RYnbr+/faMv4vuR177qUZmxAbXnGlhvWfImSpaGWU1ZKp3s/e0Q3j+2mp1fO0iffsFlKScIQAAEQAAEQiDACUAhFGPrIW3Ayl1Q0qMYUrQbcenmF5h0Zp5VmSsQ9vic1KdqJ0jJlkKFt2r5h9OjdHUOHVU+PFi06NZ+0glw8U0qyT6yaQ1f2baS/f42z7imfNzH1qp+e3BPEkmQoA1zS2Zs+NGTZPQr48lN5GPF/BKoXdqeRrbTN1NcffUmTNjwCo3Ai4O6ZnSo3mSOVdmhTf/J6Zp4vDUmYlQfUuB/Im1ixZhZq3C6flDRl6GG6efW1FA+PQKESqahT/xKhFjWi1x56+vBDqPkslaFo6TTUvk8xSXzbWmvox49fUhwB0wkUL5uW2vYqqnXi4V33aPXCi1ppERGp1SgHVa6TTSj67ZsAGtZ9t9nVUPN6S5OnCFXpNpwcYjsK9foR9JWW927Kpo95h6meassLUyWMOClriUpUsfNgIeef379oYcfa9OWTnxFnIgsIgAAIgIA1E4BCyJp7x4rrNqD6REqZKK1Qww+B72nh0Unk5fc8TDV2iu1MXF7COMx0PYRtwPo29Cko/L5S56/RlIo37ijV6Prh7XRkyVQpHlogQ7K4tKhvHuIWQvLtJ7MGiB4tKrOykKcS7bv4lgYvuaudiJgWgbWD81GmlE7ClLHXvkHUZfp1evH+q1YeRCxHIFOuWlSofC+hgL9//9D62TXoW1D4WrVYrnUhSzb3fqCUruYLqlK2sXEohIwlZZv5Rs6oRqnSughTxj68/0yThx2mt14Rfz236FyQylTRfBzi9RnQYbvZHaD29ZatVBWq0HGgVK+H59kU8hlht5JWW55UMRUD2UqyNnfStPlrgD/Na19NRekQBQIgAAIgEFEEoBCKKPI2UG5aNz595y89fn/PrNa0L92PcqUsKMj4/ec33fG6RrdeXSafT3IT5L/04O0ts8ox5WRHJ2dqP2cLRY+psez5+NaLVg5oST+Zebix26I+uShfxoRS9jPMCmjp/hd0/XEAmzYWgyoXdKPWlVKSi1NMIQ83Ohqw8CYdvoLpYxI0PQHuVDp2zGh0+UH4KQf1VMMukwqW6U6Z89YV2v410Ic2zKtjFxzUuB8oQan9gqqUb0zcLUk8ypTdXSdrAhdHqtVEM0WLH4SFkA4im0ngTqVjxYxBd29Zj1PpyKAQ4gOgVr8JlCZvsJXVhuFdyeu+6VPHxMGktjxRrlr7dPmKU42+Gkvw3z9/0PSmpdUSDTkgAAIgAAIRSAAKoQiEj6KJYsdwpImNl1MMNj2Lb8fu7KPNF5dGOJoc5WpSubZ9hXr8ZX6C1g3tRG8fGz9dLWaMaHRsejFyZIoLvp264UM95twUwvI/eTM405weOYnn59u2U140evUDeRaEQcBqCJSrM4GSpdX4HfH2ukV71naxmrpZsiLm3g/01c0aFEL66sXTsmRPQgPGV5AOQyEkoUAgHAhEFoVQHKcE1HLqaorNPiDx7daxPXRw4YQwE1JbXpgrYuBEj3RZqfGYBdLR2a0q0vevn6U4AiAAAiAAApGTABRCkbPfbKbWuVIUovZlNIqXX8w6aPDGDmxamH+Et6/+4BmUPHteoR6P/zvNVhIJNg03pnJFs7nQ7O45paxtJl2mq4/0m+Iv6J2LCmTSWBJdeehPbdnKWcZsKdwcKXUSR0oU30HwPfTKO4juvQz7wxm3WkrvGYcSxnNgdl9E3v7f6ZHXF/r8LWy+OtSWZwwTU/OkTRqHUro70nu2Utm9l4Fmr/yW2NmBMiWPxxR8USmQrSR388kn+vr9t6nVkvLHS+gqfIF+ff8m+bx8LKWHNWCuvNptVpFzopRC8Y9vH6RTe8dS1KjRKXGSjOSUwJN+sxUHfd7cpcCAsFkbxHVyJ1ePzBSNOa/+6PuCfN6aZ30YL34ScnZJSXHiJaYoUaPS96BP5P/hOfvfNEfk5t4P9PVXheqZqEmHAtKhSYMO0e0bb6S4qQEHh+iUOp0LuXvGp6+fv9PzJ77k/S5s94PIohByih+LUqZxoURuccnX+zM9uONN375Zjx+2uPFiClOyeP0++n6lh/e86cvnH6Z2rZTfM0UCSprMiXzZCovPH/sKixNIB60gwC3LUrH+iME+hHxl7Xx0zydM/WEJhZDa15uIu1CdVlSkfhshGhQYQPPZNCpjFpsQz1fu1ZanlG9O3Nk1KbWdvVESsaxHY/J791KKIwACIAACIBA5CUAhFDn7Ldxq3aJ4d8qXOtgkWlkwVxzMPTSW7r+5oTxkVJwvX181V30hL/dBNHZHH6POs2SmqOzFseea4xQ1msZq59CiSXTz6C6TiqyYz5XGt9c4xeQn1h9xgR69/qJXRr0SHtLUsqdvP9OCXc/15hMTuaPqFhVSUqYUzJeOwg/RC++vtP30a1p5wLiHNG7B1LxCMqpRNCm5McfXCnH0h3XwY69A2nzCi7acCv1lVU15O8cWIg+X2GKz9e7L9jltsiPuApkSUOcaaSgNUwbFiRXs3+n7z9/0mq36turgC9p5NmSFRpUC7jSilWbFM67wqTbwLPVrmJ7K5XWVrL14hX/9/ksX7vrSpPUP6ZVPkN42GEos374fZSlWkaI5xCRupeZ19zptHN3dUPZQ09WQ16zXAYrhoHGkevX0UuKORTPlrklxnNy0yg/we0UXDs+g18//00o3FMmQvQrlKNyc4sbn05eCR6G/z1O6dGweJU9biDLkqiGc7uf9hHatbGdIFDmw+mXOU5cy5KymUy/xpM8Bb+jm+bV0/8ZuMcngXo37gT7hfNWjjv2KS4cGdd5JXi9MV4Znz81WCmMrcCVLlZCiM0WkfAsM+EYnDz2iXRtumvRibq5CqHy1TNSobT6hKj9+/KYO9dbKq6UVHjmzGiVPmUBIO8ScGq9fqjtmlE6lW9dYRY2Z/KJl0lIsxxiSvN/MP9u9m+9oxdxzYVaGScJMCOQvkkJyzv3j+y/q124bVWuQnbjj5thxHCRJv9n94PG997Ry7gXyMnLVtqw5PVj/5qSkTBkUK3ZwW38yrt5sqfj92+7QqcOhO9afvLg2JXKNK9VFX6Bb0430OfC7vkNaaUVKpaG2PYsIad+ZAq5Pm63UlCk38xdNye4Pmt9NfpD3x53rb2n1ggv0/m2glgwx0rBVXqpQU3MvFdOiRo3CFLj/7gPsN+j3b/2reb5i14uxDqfVut7EOop7t5QZqNnEYKvm1QNa0/vnD8XDJu/VlmdyBUI4IUbM2NRj1WEph7lT5CRBCIAACIAACEQoASiEIhS/9Rfet+o4SuOaIcSKjtjand4HvA4xj0P0mOThnFwnT7XcDSmzp8aS5qXvU1p/dpFOHp7g5feMfv0Jm6WKXoEhJMaJ70KdFu2Ucqzo25w+vDLNooBb2mwcXlCSsWz/M5q9zTQZ0smyAF9pa1DTjFpKB9lhIciVdCtYebNCKS96tCi0pG9uypFWY+6ulKOMbzn5isauMfygq7a8vRMKh6oQKtnzlEkKoQGN0lHdEsmYU+9gpYOynTx+7rYv9Z53i7iSSN9WtaA7jW6TRTp04ro3lczpKsWVAX/2tbzTtGv04JVxFhvOrh5sed9Vkg8rUd6emcPp/rmjYtTovRryEiRKTbXarJDKfPPsP/JIpXnplxJlgd+/f9Dx7cPo5ZNzslTdYKkaIylVxlK6B/6lBH32ZdYVzylJijxCyvtX12nvOv2KMa4MqthwBiViFkuhb3/p3IGpTCkUsrJXjfuBvrpkzeFB/ceV1xxiF237umtNUtrwE1t0KkilKmVgyuuQx7P32080ma1iZuilXFk/cxVCFWtkpsbt8wtifzCFadvaq5VFSPExs6tT8tQaC8nThx/T4hlnpGNiQK4Q+sO01OeOP2XKoDTiYZ39p49BNHP0MXp030fnmCUSChRNQV0GBo/hi6eeUYHiqQwW9YUpXeZOOEm3r78xmIcfaN6xAJWqnJGihdK/t668ppljjoe48tr05XXJJRSFUOeG641SCMn7g9fz2oWXlKug7u87P8a3z5++0cTBh+jFU90VqRq1yUeVagffSzVnGPeXW4X1arXFqMxqXG/6CorCvsr0XH2UosVwEA5vm9Cfnl4L+Z6nT46YprY8Ua5a+56rjki/S7umDaGHF0+oJRpyQAAEQAAEIogAFEIRBD6yFDus9kxK4uxpsLpBP75S7zXNDB4XD2T1zENdyg8SoybvFx2dQtdenDf5vLCc4JYyPfvit0w6dW7bqhQU+FGKGxs4NasExYutsUB55/+NRiy/SxfvmW4BIJZXq2gSGtgkI8WIrrEC4NYnt58FCFO7nOPFECyGxPL4OasPvaBpmw1PM+pSMxW1rZJaFC/sg9hX5+dvv5ADszRI5upIDv/K4ge5omngolt08D9vIa/yj9ry1FYIVSvElq1vnUVmf0LCtK4g9sLKFn2jhMy5t/y1es3hFzR1k35+SoUQZ8PPfctWPnv9IYjisn5PkzQu840VbLFx8Z4fdWRKIWO2DAVLUbVeo3WyXt2/hY6tmKGTHlqCGvLSZalAxaoO1inq44fnFPjxNTnEjMMUMZnYdK+YUp43zy/TgY29pbgykKtIS8pVtLUs+S8F+L5k0018mWVFQorvkoJZwcl7hVms3dpPp/aNl50THCxdcxSlzFAyOIGFgj5/YAqll4JlUwLX1OzlWvPixjN9++JH6+bU1MqvjKh1P1DKTcKmdk1cWEtI/s6mZbars0aZJcR4ifLpqE13ZqUhw8MVIb4+XylmrGjk6u6kZTF0/9Y7Gve/AyHKFA9as0KI1/EPu/dxJZiv9xfyeR9IjswKxyOZc5jbK7Y7rHulQkiU48+mib1/84liO/L6xdeynnn28AMN77VHzKqzL8asi9r1LKrVv0FffjCl4S9BQeQUn1lPyvr+4I67tHbxJR05YoIlFULCjwOri9gfvL2eKZzZvSD4/neXWQpNGHxQrI60Dy+FkLnXm1RhPYH2c7eRUyLNB4FDCyfSzWOhWx7qESMlqS1PEqxCoOuyAxQrjsbSbCebSv+ITanHBgIgAAIgELkJQCEUufvP4rWPFSMWe1kOfoHiBTYv2pmyp9BYBrz2f0ljtvcKtR5lslanuvlbhJrPUIYx23vTa/8Xhg6rmp4ia16qN/TfSzdb+mtqoxLEl9g2dePWKA1LB381/cnM3new6Vwbjr+mp2++mCSOW7Tsm1iEEsfXvGx7f/xOw5ffYdORghVM3BfOmNaZKUuq+ILs3+xLesNRF+mxgalqqwflpaz/8nILlslsWtPJGx8knzdx2XSqKoXcqE/99JISKiSn12rLc3KMrqMMKJ7dhUYxpY64GWshpOT3jSm+lu57Tkv2PhdFUaX8btSrfjqJMbcOajPpCt15rjvVQakQ4lPrFu56Qov2BMvjDsNHsmll8mlvIfmSkiryL8BXuXNKzKdQaTY+PWvdkE707mnY/OqYKy9v8XaUvVCw8vfnjy/037H5WhY2SZLlpNK1RlPM2Jox+Jf5BVs+uZTYBK19Ivf0VKXJXEmBxC2BLh6dTU/vH5PyZcxZgwqW7cFe/oOn9l05tZhunNe1OOHT1uq2XyspfPw/PKOz+yeSN/NpJG4xYzlRyWpDKWnqYN8925e2DNGnkFr3A7EO4j46e1lesr0Z88EUhQL8g4hP1zFlm7O2ATk5a6ZUciucXRtu0K5NNyURfPWoFp0LUSrmV0jclsw4a9T0ImtXCP1lF9xu1tYtq4MVrJmzJaFW3QuRm4eT2FyaNeYYXT7/UopbKqBPIXRg+x3atOKK5OcnXcbE1IZNs+KKK3FbNPU0nTn2RIxKez42pjGLHueEjkIa79/dm27QTjb1T9z4FKiGbfJKefgUsrED9tNTpmjSt8WJ66BzP81VIBm168WUTv+2sFoI8f7Yse46bV9/QxRFvD/a9S6iZZU0fsABunf7nZSHB7jvK4d/iy+IB+q1yC1YvvH4u9cBNKrPPvGQ1v4v+3021ieTudebVsGKSPMJy8g1VXoh9dTa+XRp11pFDtOiasszrXTDubkPoTazNkjjaD1bbOP1w1uGT8AREAABEACBSEEACqFI0U3WVcn/VZ9EKRJpzPVvvbxM847o/1ovr3XhdKWpaMby8iRyiu1MLnETS2mv+LQw9tKrb5u+bxj9ZFNQwmNLkS0f1RsyXSiK+26Z2qh4mIrlTpVXMaVLssSah3pRCFcePPb6RBeYtdDe82/pIXPcHNrG/QZN7JBdyjZixV29fm4yJItLKwfmlaaUrTj4nGZu0X3h4IKOTC0qLXkfkjVM11qpyT1hLKHsKw/8afuZt1I95AG15clli2GlbyZjFUJ50jvTkn55RDFMGfSM5mx/KsXFQOlciWlKp+zsgVeTMmvbI1q+X/eFUqkQOvTfexqw6LYoRtpzeVM7B/fb5I0PaN0RL+l4SAG+xG/WkpUpcYq0FOD9lh5dOkFXD2wN6ZQQj5krT3tq1186f2g63bu2Q6fMQmV7UqY8tYV0/sK2fFIJnTw8IX/JjpS1QGPh2B82HfTYtiF6p5eVrzuRPNMUkmQc3TaYXjzS/SqdLX9jyleqo5Tv2PYh9PzhKSkuBlzc0lGWvPWFKFf0XjuznE1p0X5JFfPyvVr3A7lMMVyoRCqmwIpK34J+mqS4yJTNnQZOqCiKod0bb9LmVVeluBhw94hHI6ZXJce4GkXyiQMPaNns8+Jhg3trVwhdOf9CmCKlbAD3p9R7RFlpCt2ezbcEpYwyn9pxpULo1uXXNHl4sK8VsbxMWd2p/9jykuXMoZ13ac0iXaseZf/uYcqvTSt1+zdf4RTUdVBJ6QV9M1NA7WZtNnbj469T/+DrM6wKoUun2f2UTYFTbrx+3QYHK4TXsbYeYG0ObbOEU2leZlivt9Dq23TsYnJPm0nIdmrdArq00zRrP6V8teUp5YcW54qf6Mx3nbCx38KYjvEoYRJPyl+jKSXwSCYk+3q9oBV9m7KPZeyBBhsIgAAIgECkJgCFUKTuvoip/CS2THw89qWdb+YsE589WT7qVO5/gpw/7MWsx8pG4eYnSCjUwB81XwCTJY5N07pkp7Rs+pC+jVsN8SXpF+56ZtDpND+vXdWUgiNkHv709ReV6KH78M2P8W0VUwhlS62x0Dh85T31X6CrqOD55FOyzt/xpc4zrvPkMG9qy9NXkbAqhJqUS0Z9maUT3/hUO87P0Opf28cUpJRucYS8O8++oRErdC1ylAqhPvNu0LFr+r/MH59ejJzZ13m+bTz+iiasM+yHSchkpX+qN18k+ebh1jfbl7bQW9Os+RpQ/tJdhGNc4bJ8Ukm9+eTy3j6/Qvs36rc01LZM+ksb59WlL4E+OjLzFm/PLJiaSuVumFOLgr766+QzNUHN+4GpZRvKX71+NqrbQqPg5I6KO9VfZ9D/UP8x5SlrLg9B1IPb7wUrEkNyxXRrVwjNHnuc/jv3Qqyu1n7CgpqSFQ735TN3ouF7pdaJZkSUCqGFU07T2eP6FfGjmc+kFP98JnHfO9OZryPlVrFmFmrcTmOFG1r/8mmHfDoU3wz5YFLKF+NqKYRCssSat74RxWXTcfl2ZM89WjX/oli8wb2lFEIGCzTzgNoKHLXlmdo8efn6zn3/5D7tnDaUPn14q+8w0kAABEAABCIZASiEIlmHRXR1Ezi60LiGC1k12Gcjtq0/v4hO3dP1CyAcDOVPuWw1qXa+ZkKud2zVn5Fbu4VyRvgcVvsFkK+81aB0UqpVLKmOtZDYIj4FrPfcG3qnJ/E88ulnT958prrDDT9UT+6Ylcrm0az6dOm+H3WYek0sRmu/uG8uypshoZDGlSR7L7ylbade082nn7TyGRtRW56+csOqEJLz4/6cKvU/q0+8kDa/V04qmNlFCBvy+6NUCFUdeE7wHaRP6JaRBSiNh0YhaEjBpO88a0tr3G0nW9EpgVCte1e20vkjM/VWMU+xNmzFMI2y6CfzMbZ6erAli3hCDDYVtUnPfcKS9TzN0DQwfqxgmW6UOW89HqRvXz/SOvZCrW/TVhwR3b+6na6eWcasbwL0ZTc6Te37gdEFh5CRO5MuUzWjkIP7benVarPB3J7JnYkvB843P+bT5rURq1tZu0Kob5stBlcRkyvATPGbZBCgEQeUCqHBXXbSq+f6lZG9h5WhnGyqFt8es2XoR/XVnQ7FnUmXZSu18c3vwxfq2cJw/w5gFkdZ2EpkfDPkp0c4qOePWgqhkPpj3Lyagj8hXryxCisohNS1ONLT9SEmhaYQOrNhEV3YvipEGTgIAiAAAiAQeQhAIRR5+soqaporRSFqX6avVJcpewbTE+/7UtyUQPNi3f7P3nWARXV00RMLKiAgvYhYUey9927svdfYjb3FaNRYosbYe/vt3WjsvUSNvfeuiIhUFUQQ0Pwzb32PLW9hd9ldFnPn+/RNuXPnvjO7y76z995BhXzVhSk3/S9h6fEZ+kw3mawpHwArFnJEjRLOwjHzOZgXioJWU9xKUEQsWo2/IOu5MqajL9pUVzxEcM+WW0/fab1/HzdreHw9rv3Kwwj0+kOeEGpRxQO/dCmoood7f7+OiMFrdkT6K/bvvn8kjlwJ1ekkL2PrUzHsa8NQQkgZvxfB0Wg+7oKceqFvdv8ibI9chbo2/NQJofL9T2k9kWzr+DLw9VZ41KVVQojn52nbbxvDRPGKPbP/Nzy+c0gWw+qNJyB3wVrCGE84vXNVFw05D+8SaNAhkVA6vIXlCPO/oiHHO2q3mIoc+aoIY2FBD7BnXW9ZuRx5KqJ2q2lsLPFd9eVzPMvP8wpRbwMRGRHA8gndxcsn58BD1HQtpvw80NUGdTlTPzBbOiHUs/kGrSdqDRlXAyUr+AiQpRYhNLjLNvCE0nJlwOhq0glkTx4wQkgmP44++5uS+zUWIZTUfuhyipw6Tvrcv/rc1GgrEyjfQshYlfZ94ZW/iARlZhs7ls/ODVZZFMQyH7i0ZxNOb1wsyVCFECAECAFCIO0iQIRQ2t27VLG8QfHWaMKOiuclnuX7Gba+o8FhXqObzEBO57yCroM3d2LP1ZQlYhQUGeE/cz0AclJhWNt8yPY1nIibvmzvMyxl4WPqRZnQUB9Lqq2N0BDnTOzmhyYVPaWcOWK/8pUTUCeuhbATtx7j3Yd45SGNurH1qS9AhJA6IuZp++SrjFotfpMW+2t1D0SEPJHaypXGnZfCxVNBNAYw8uXon4qwUGWZgiVboHydIUIXDyvbNK8RPn36oCwi1Zt1WwVHlveHl+cPTuLk7gnSmHpFNc+R+qiizU8de3BjD67/s0ZeQK3XXJ8Hassm2TT1AzMRQknCrzGo7iFEhFAiREQIJWKha83YBJOu6yYllz5DRlRu1xtlGrcXxD7Hx2N5/5aIjoxIahqNEQKEACFACKQBBIgQSgObZEkmdq06EOXzVhdMCo16g/HbBxhk3nfsV/zZnTcic0ZFboHVp+bi0jPNRLEGKU/hJK/8xdB+0iJJy9xONZDAvvyYonBvnmXDS8AtW2ZB/fM30Wjxi6b3ijIhxMO7tOW/UbfxxpO3GLwg8WQa9XHe5qdrNankgWJ5HZDFKr2ciND3KCASHadeEXLwaBUygT7ltYgQUkbDfPVi7HSxUuyUMV4S4mOwbnY9rYu3H7ALWWwVIXf3ruzAhePzNWTL1xrEwsBaCf0fWT6gLYtbasiIHR0H7ZVOLbt9YSMu/81DVrUXvxLNkadgbTh55JdOHJOT1mabuqw5Pw/U19bWJkKIPITE1wZ5CIlIpN612x8b4OydUzDg5Jr5uHqQe1MaXoytz3BLVGdmyGiFgasPIT278vLnb8Px/Kb28HXV2dQiBAgBQoAQsFQEiBCy1J2xULuGfT8F+dwVuQ0evr6DuYe0/1qf1C042rhgatulkshvf40AP2XMEoqtgzP6Lks8PWlZv5aIigg2mWncq6ZpJUUOiBh2dHDFAac01lImhO694MTMZQ2ZlHbwY+aL5bVH3uw2yO1hgwqFnKQj2EXdy/c9w5Lduu2TsfVxG4gQEnfCvNeq349B3iINhEXfhftj50pF7i91K7KwHEPtfvxLOvVIcRLZLnUx1Gk5Hd55Kwr9IYF3sG9Dfw0Z3mFr5442QqiaYjipUDV1BTxPkatnYWRzyQMXr4LIwdZLn0FBQHPZhPhYbJj7fbLhY+b+PFC/D7k2EUJECImvCyKERCRS7zpgxT5ksXMQDNj1+2g8vao9R50uVhpbny5r6irz46qDyGybVRDfO+cXPLxwUtepJEcIEAKEACFgoQgQIWShG2OpZk1ps1Q6Kv6fR8ex4axhMeQFvUpgYL1xwm3yY0uHrOuAODMdK68LtkPWHUOGTAqvnS0TB+LVffk8PNp0jWqXDzZZMgjD/9wOE/LwaJNVz0fTdOw5vAyJURFXToqcXFJplYkpaGRI/x2aMc+hMR0LsOS/irwsF+6Fo9+cGwZpNYY+QwmhkWw/OtTKIdj9huVqajBa+xd25aTS2pJyq+/Zt55DqGGH+XDzLi7gF/jsAg5vHyX7GvDOXQF1Ws+Qxg5s/BFvXml6qDVlYWD8+Hdent0/jlN7fpXmKFfyFaqHKo3GSl1JhapJQloqWR08ULPpZDi5+0oSe9b2Qtibh1JbWyWlnwfa9Bra37lPOdRpoiDmk0sqzY+ed8imyP3xNuIjgoOikl02pSFjdVjC684s8TUvX5hHY+9WG7Xm/Pl9eXO4e9kLsqePPMbKeZrvzco186D3cEUeKS44vMcOhAbLhxiOmsxOVSupINhTK4dQUkmlh7Kk0iWSSSqtvL8RoSypdLckkkqzU+QKfT1F7v6tIEwbo/shD5RDSHjZpeg/qyw2gtfMd98p/kauHtoR4a/9DdZpbH0GGyIzkd/j0I2nkC69wpN45/RReHb9nIwkdREChAAhQAikJQSIEEpLu5XKtmZmv7j/0XEd0qdTfBnYdWUDjtzS/PVfFzNrFW6CVmW7CqJhUcH4Zbu8h4Auukwh0/X3NXDxUeQ3urhrPc5sSTpMRd2G7RPLSUfNH2NHv4/UcvQ7n9euZnZ2ilh+QcWXf4F6I88g7H2cisrejXKiX9M8Ql9yx86rTDRCQ/n0sOQSMuuyXEr0GUoIdaidHSPbKjBO7tj5nZPLI5e7jXAre869xoTVyR87/60TQjyhtA3z1uHlPju96/zROUJd/b+i5TqgdPW+QvcXlmNsw9z6SEhQfS3zweY91jDPndyC3ONb+3HmYCKJJHR+/U85QXVyoWrK87TVy1TrgyLlO0rDe9b2ZITQI6mtrZLSzwNteg3t1+dYcmWC5OnDUPw6bH+yy6oTQlNHHsDDeyHJzhMFijCCYiQjKsTy26iDeHA3WGyqXFfs6MRCAhXk+a6N17Fr002Vcd5QJ4SSOuZ82pJm8GInq/Fy+ewLLJh2Sqib8j/1HEJJHjs/nx07n8dRMOcaO3Z+rtyx800LokPvsoKMPsfOnz32BMvnnNX5VokQ0hkqrYK+ZauhyfCpwjj/cWtup5r4nGB4iLmx9Wk13ICBLFkdMGDlPmnmhjG98OaZ5t9HSYAqhAAhQAgQAmkCASKE0sQ2WYaRvh5FMLTBRMmYxUem4fYr+ZOBJCEtlU6V+6OSby1h9PbLq1h87DctkqnT3XjwJOSvWFNY/O3rAKwZ0Rmf2QOurkX56HdO4PT+4yoeBsj/or1uTGkUya34hdw/5COajT2vsUzd0i6Y0aeo1P/L/+5i3/k3Ulu5svan0nB3Ung3HbwYhLk7nioPC/VyftkwukN+KZn06KW38ehVtIYc75jU3Q+NWeJpXrQRQsbWJywm85+hhFDp/A5YMaKUpHEFC31bLBP6Vr2YM2YNKIavDlGYv/MxVh98Kc0TK+bwEMpdoiKKVP8ebnn88DbopeCaf+v4HtEEva+G6rOyskaHwfuZl5iCCL54bD7uXt0hu37l+qPgW6yRMBb1LhDbl7WXlWvRcz0cnHyEsZBXt7Fvo2YuMjevIqjXdhYyMCKaF22halyuzFcSistd/2ctAl9c4lWN0qDdXHj4lBT6P7Hj6DcvbJ5syBgXTunngYYhKewoWMQDP02vJ2nZu/Umtq+7LrXFiptHVkyc0wg2WTMJXWePP8Xy2WfEYa1Xj+z2mLGsuTS+b9stbFt7TWonV7G2tsKiLe1ZDieF18Tfhx9h1XxNT4L6SsQH1zlv8nFcvRCgoV6dENJG9BQu5onhk+tI6x7YcQdbVhv2N0rDiCQ61AmhG5cCMPvX4xozfP1c8dO0+uw1nU4YO7L7HjYs13ytqu/vns03sWOD5v6WKu+NQWNr4ruvH1jb11zF3u23NdbV1mGphFCHnmVQv3khwey42M8Y/sMOvH+n6jWr7Z7M3d9k6GT4lq8hLPvuzWusHNwmRSYYW1+KjFGb7OydG93+WCf1mjqcXlqIKoQAIUAIEAImRYAIIZPC+20pr1GoEdqU6y7cFP8lbOSmHoj+FGnQTY5sPA25XXyFuUdu78auy4lfMgxSaORJ3gVLou2E+ZJWfb2ElD1SuBJO9Mzf8QQnrodKOnO4ZsHQ1nlRvbir1HfgQhDGrrontcUKD7c6OKMSnO0VD3Zv3sZiAiOFLj14J4qAywxplRcdaytCo/jA3D8fY+0hTUKjoI8tNo4rJ829/CAC8/58grsvVMNJeMLp8V39kPlrsunj14IxYskdaZ5YMbY+Ua/61VBCKFPG9NjzWwW4Oijw40m5l+99irWHEx8+a5V0wYh2vnD/muA7LuELesy4ooEJt8kchFCv+dtg76Yg4vian+PjsHZUd0QYGI5gqD7PHCVRv/1cboJQDm0egtcv5ckBZcIlyP8qDm4ZKk5TuSqHjPFTxi4cnYf713dJMjz0rELdwbC1T7z/V0/P48iO0ZKMWOHEEieYxBL6+h5O/PULolmyarHYZHVB/mKNUbxSN7EryVA1SehrJaWfB+r6Utq2ssqA2atbws4hi6CKPzTv2nQd+/9MfG/65HZE94EVkdvXWVpuFQvH+puFZelSFm9uz3I4Kd4v/Aj1Q7vu4vTRx4j+EKfLdExewDxhmA28JMR/wfa17PXAdIilfJWc6NK/PFtDQfh9ZHpH9PwTH6I+iSLSVZ0Q+pe5Uu5k3kS7t9ySZDjZ8sOQSuBkllgWTTuJi2f9xabJruqEEP/7uG/bbUbSJb5PcuV1Qq+hlZE9ZzbJjuWzzuDsCU3Cnu/vHytbMNLUWpD9FJOAvzbfUNnfspV8BC8iR2cbQYZjPGXUATx7FCbpT65iqYRQ9Xq+6DGoomQ+JwD3bL0F/2cRUp8lVPKVqYqmIxJ/zPp7/SJc3rfZYNOMrc9gQ7RM9ClcGq1/SfxbMKdjjRR5Q2lZhroJAUKAECAEzIwAEUJmBjwtLDey8XRG1ijCpVTtVfzam9jH4pvUyrPQx5i5d4xar2Zzdqf17EQrxZfdtacX4MKTU5pCqdzTZuxc5ChaWrCCf8HfMmEAAh8mPoAkZ97SYSVQzk/xQMRlOVqvwz4i9F0cbFmIhJdLFpVTvcLef0K36VcRGCb/S2irqp4Yxbx6MqZX/Loc//kL7j6PRHjkJ3g4ZkFOlgjaOlN6ySyeK6fZuAv4FP9Z6lOucILE20WxB2I/1xUQ/JH9wp6OkU9W8HBSPHDycW4/J6H2avFMMqa+nzr4ok0Nb9Es6Zr8KxCI1ZKYu1EFd0zqUYidb5dY3rKH0PfR8cI+uDpkljymuMSmYy8xc6v8w7OpCaH85aqj8bApiYZ+rV3aswmnNy7W6E+uIyX6CpVqhXK1BwlL/PvlMzbOa8jywXyUXbJ1n83I6uAljD26uQ9nD/0uK1eycg8Vcoa/ut6GPsenj+9glcVOCCf77jvF61xUcP/qTpw/lvgwIvbza4eBe5DZ2kHq+sLsfBf2gh2JHMxC3Vzh4JxL8nDiQvGfonFk+0gEs4TWupaUfh7ouo6uclXr5EPPwZWg/ILmxE14yAdYsQTxHiwvT0alUwN5uNhUFrqVwIhOXUqvIZVRpY7M3wG1j/2gwPcY3SeRzBN187CxYRNrs0TeifsYEhSJCPYZmNU+MzwZcSN6tvA5m1deViGMRD38qk4ICR9G7I3M9UWxz6x0LLcJJ1qU7/cRC1Gbwu7XHEWdEOLkDPcCCmN5jiKZZwuHzDunI6yUPp+fM+JmwtB9Ws2rUiuvQCAp72/U+1iBMMucOSMji7JIydu5Em3eRnysK8vnVKthAV5VLcofhnxEbW95Vxwjz3u2TCRceZ/6fvRsrj3JtyHHzru622LSvMawtlUQknxNoajZd5h5WG1ccUkcNevVxs4R3Waz7zFZFQRk9NtwrBjUBglxmoSmLoYZW58ua+or41epDhoOmiBMi43+gIU96uurguQJAUKAECAELBABIoQscFNS26Tp7VbCnp0WZEi59+oGFhyZnORUe2tHTG+3QpKZvmc0/MOeSG1LqXjkLcRO81ommfM+JAjrf+oO/kVIl+LJwrbmDSwm5RJKag4nJiavvY+TN5L+dbdFFQ8W6lUAVkoPWXJ6Obk0Yslt3Hz6Xm5Y6CuWx16wz94mo1YZ5QFt3kuijDH1KZ+qJurX9RrLCLAK/U/JinO9LatmZ3mw1J+EVMV58uwhC29rJdNMTQg5unuj68w1SG+l+kB0bNVs3DiyU9VYHVop0VehzlD4lWwurMIJlq1LWsuumCGDFToNOcQSjmYQxi+fXIrblzbJylrbOqNp12XseHoX2XHeGfjsIjxzlWEPvQpCgXsR3bv2p6x8geJNUbHecNkx9U6e2+j0/t+Yh9Ax9aEk2yn9PEhSuYGDPQZWQLW6virEipwqnnh65vgjeB2g/fNAfZ4tCzP7eUYDZPdJJNrUZXg76JU8IcTH2nQrhQYtCkshXLxPo7CH/ItnnmPRjL81hsQOdQKCe4yUqZxTHNa4fmAkEc8zpC1vkcaEFHaoE0I8RK4a83LRVrg31KLpp3D7+mttIkI/P02uRv387D2V9OfVXaZnzqQTWhN3K59Kl+SCMoMCIdTCvIQQN6MeS5revmfZJO/9zNEnWDH3rIzVpu1Kly4dmo1kP5yVTPRiMvSzmVtqbH2munu/SrUZITRRUB/7IQoLf2hgqqVILyFACBAChIAZESBCyIxgp4WlMqTLgDldNiHD13wh+tr89/1D2HI+keyRm1/AsygG11f8yvQv+0ly2PpOiGVHQFtiqdt7NIrWaiyZFhUegsNLp+PFLd1/lexc1xvta3qzvD7sF11Jk6ISHZuAo1eCWT6bZ4LnkNqwbLNhOXd0a+CDPF62GvreMW+Xw5feYP2RAK2eRspK83rZoEvdHKhZ0hU2zKtAvTDHKHbiWTQ2Hn2J7X8n/fDC5xpL37A2edG5jo+6OTq1o1h4RdVB2h8uKxV2Qv+muRl+NuChZGLhyaYDw2Ow4bA/dpxO+l5rl3LBzL5FxakwRVLp+v1+RsHKdZAuQ0ZwD7WgR3exaXxfaU19K4bqq9V8Cnx8qwrLBQfcxP5NA2WXzuacG81/WCONHd0+GgHPzktt9Yq9ozeqNhwLZw8/FU8HntvnyZ3DeP7gJBp1XiJNO7hpMIICrktt9Ur+oo1QtEIn5qHkqT4ktL98SUDAk3O4dWEDQoMeyMok12mMz4Pk1tB3vGRZb7ToUoIRN9mk0wBFHTHRcUKI2F8sUfPHj3Fit85XHrrUsnMJFGGndjm72jIvLE3yOOD5W4z9cbdWnUVLeqFN91KCB494WqEgzD5bQt5EgtsmFzalrFCdcOnbehM69CqD8tVyq3jdfGGhZA/vBGPNovMCUaWsw5R1dft+7LAFTdoWZR5W+ZBFCTMe6sY9tVYvPI+AF291MqlYaS+06FwS2VmibGUPqM/M0yuMeYMd3HkXJw4+TFKXck6eJAVlBvlrqE+bTSoj6vdrbA8hcbFipbzQqE1RdgqdHQuP5B6cqn9BU4MQcvL0Qf3+Y+GRr6BoJoIe38OWiQMMCp8ytj7JKBNUsvsVR7uJCyXNf80cgydXzkhtqhAChAAhQAikTQSIEEqb+5amrW5aqhPqF1N4HIR9CMEv2/pZ7P3wL6DVOg1A6UbtVGwM9X8CHr5z/+wRlf6kGo52GeGXw47lsbFinidfWBLnD3gSGJ3UlCTHfLPbIBcLE+MhZJ/Zg4Z/cLSQGJoTG4YUTubkdLcWiCGuLyg8Fo+ZjTwptiHF2PoMsSG5OYVz2sHNMZMQNnaP5U/iuYUsqTi4eiK7XzGEv/JH0FPN3FL62mpsffquLydvY+cGV4+CzBMgI2JZyFhY0D18+qSbF56cPk5MObrmYQ/i2YThT7GReB8RwELSniI+hcSzMT8P5GxPSZ+NrRVy53OGk6sN4uO+CPlWXvnrRjqkZF1d53KPo7z5XYS8OB8iY/GUhUzxELeUFCdna+Ri98xD0Hg41SN2ElokuyZVvFloWbP2xTTIhaTmKI/duhqIU8wDSLmoEySDu2wT7s2e5XjKw3I4ObvZ4l3ERzy8G5Ki5Mh58rP9ZTmDPkTG4dnjMMTGxiubQXUTIuCVvxgqtekB70IlVV47AXfZyXgzRyMuRr/XsrH1mfDWJdU2dtnQa+F2ZMikyPvFB8JePheOno8MfYOH548j5kOkJE8VQoAQIAQIgbSBABFCaWOfvhkrbTJlxZQ2S8GPsOfl5L2D2HZhpcXfX5nGHVCtIyOulH6hfHbtHHbOGGXxtpOBhAAhYFwE6PPAuHiaU5t6wmJ91z6+/wHWLr6gMk0bIaQiRI00jUCl1j1RoVU3lXt4dvUc9swZx5Km6+99Z2x9KoaZsFG0ZmPU7TNadoV98ybiwTn9QnFlFVEnIUAIEAKEgFkRIELIrHD/9xbL7piTkT9ZWM6WDPD1KIySuSrA3d5LAuL3vT/jeWjS7u6ScCpXuLt0qfqtkKdMFebNkB5ECKXyhtDyhEAqIkCfB6kIfgqWTikhdGzffaxbclHFAiKEVOD4JhsigcPDd59fO4+rB7fD//Zlg+/V2PoMNsSAiQWr1EflNj1h5+quMpsIIRU4qEEIEAKEQJpBgAihNLNVadPQ39ouRzYbJ1njD9/6C39dUU1WKStoYZ22Ds4oWruJ4DZtyIlPFnY7ZA4hQAikAAH6PEgBeKkw1YWFb+XMI/83SRdzAl5E4M3rKBVRIoRU4PgmG/yELZ436NqBHXgXEpjiezS2vhQbpKeC9Cy3HU+07+DmCTsXd3aaYEbmHXQcoS+f6KmJxAkBQoAQIARSGwEihFJ7B77h9XlY2JzOGzXuMP5zPI7f3Yc9VzcKyXI1BKiDECAECAFCgBBIIwgQIZRGNorMJAQIAUKAECAECAENBIgQ0oCEOoyFgF2WbOhZY7ig7su/XxAeFYyQyCBcenoab6OTPl7dWDaQHkKAECAECAFCwJQI5C/oiq4DKkhLzBh7JEXJoyVFVCEECAFCgBAgBAgBQsDECBAhZGKAST0hQAgQAoQAIUAIEAKEACFACBAChAAhQAgQApaGABFClrYjZA8hQAgQAoQAIUAIEAKEACFACBAChAAhQAgQAiZGgAghEwNM6gkBQoAQIAQIAUKAECAECAFCgBAgBAgBQoAQsDQEiBCytB0hewgBQoAQIAQIAUKAECAECAFCgBAgBAgBQoAQMDECRAiZGGBSTwgQAoQAIUAIEAKEACFACBAChAAhQAgQAoSApSFAhJCl7QjZQwgQAoQAIUAIEAKEACFACBAChAAhQAgQAoSAiREgQsjEAJN6QoAQIAQIAUKAECAECAFCgBAgBAgBQoAQIAQsDQEihCxtR8geQoAQIAQIAUKAECAECAFCgBAgBAgBQoAQIARMjAARQiYG2FLVO7q4CaZFhAZbqolkFyFACBAChAAhQAgQAoQAIUAIEAKEACFACJgIASKETASspaslQsjSd4jsIwQIAUKAECAECAFCgBAgBAgBQoAQIARMhwARQqbD1qI1EyFk0dtDxhEChAAhQAgQAoQAIUAIEAKEACFACBACJkWACCGTwmu5yokQsty9IcsIAUKAECAECAFCgBAgBAgBQoAQIAQIAVMjQISQqRG2UP1ECFnoxpBZhAAhQAgQAoQAIUAIEAKEACFACBAChIAZECBCyAwgW+ISRAhZ4q6QTYQAIUAIEAKEACFACBAChAAhQAgQAoSAeRAgQsg8OFvcKkQIWdyWkEGEACFACBAChAAhQAgQAoQAIUAIEAKEgNkQIELIbFBb1kJECFnWfpA1hAAhQAgQAoQAIUAIEAKEACFACBAChIA5ESBCyJxoW9BaRAhZ0GaQKYQAIUAIEAKEACFACBAChAAhQAgQAoSAmREgQsjMgFvKckQIWcpOkB2EACFACBAChAAhQAgQAoQAIUAIEAKEgPkRIELI/JhbxIpECFnENpARhAAhQAgQAoQAIUAIEAKEACFACBAChECqIECEUKrAnvqLEiGUOnvg4GAHTy83fE74jIcPn6WOEbQqIUAIEAKEACFACBAChAAhQAgQAoTAfx4BIoT+oy8BIoRSZ+ObNK2FseMHIDzsHb6v1yN1jKBVCQFCgBAgBAgBMyGQPkNGOLh6Ivy1v5lWpGUIAULAnAjYObsjNjoKcTHR5lyW1iIECAEjIUCEkJGATGtqiBBKnR0jQih1cKdVCQFCgBAgBMyLgKtPPhSv1wK+5Wvg9cNb2DljlHkNoNUIAULALAhUat0TZZt2wNMr/+D2qf14fuOCWdalRQgBQsA4CBAhZBwc05wWIoRSZ8uIEEod3GlVQuC/gkChnFlhnTk9Lj9491+5ZbpPC0Mgk7UtKrfrHZXNQAAAOrJJREFUjeJ1m+O7774TrHt27RwRQha2T2RO8gjk9nVGlswZcfdWUPLC/2EJTghVaNVNQoC/34+umIWoiGCpjyqEACFguQgQIWS5e2NSy4gQMim8WpWLhFBE2Hs0qNddqxwNEAL/VQQcbDPiQ0wCEj7/+1+FwKD7zpD+O6wZXQoFc9mDP4K/CvuIXjOv4U3EJ4P00SRCwBAE7F080XbCAti5uKlMf3ThJPbM+UWljxqEgKUikCFDOvwy83vkyucM/oEa+iYK08YcQlgIhUTJ7Vm5pp1RpUMflaH42Bj89cfP8L99WaWfGoQAIWB5CBAhZHl7YhaLiBAyC8zCIlmz2qBhoxqoW78K8ubzQaZMVkL/61chuHr1Ng7u/5td75jPoP/QSs1b1EXHTk2TvePfZyzHpYs3k5UjAeMjYGedAb0b50KpfA5wc8oMB1srJCR8Qci7WLwOi8XWk69w/Fqo8Rf+xjS2qOKBX7oUVLmrVQeeY+EuSl6vAgo1TIaAnZMb2v26WIUMCrhzDZf2bBQeCr98+aLz2hWr50b9FoUE+S/s82D5nLN4HfBe5/nGECxWygstu5ZMVtWyP84g8GXqeeSVKJMdzTuXEOyM/RiP3346lKzNJJA0AtXr+aLHoIoqQnu33sL2dddU+r6VhjHebx55/FC8fksUqlpfgiXhUyx2TBuBV/dvSH1UIQQIActDgAghy9sTs1hEhJBZYEbBQvkw/fdRcHN30rrgv//+i22bD2DhgnWIi4vXKqc8MObnvmjQqLrQFfImHK1aDFAeTvW6pdjXpVsLDBjYKVk8Ro+YgVMnLyYrRwLGRaBuaRcMbeML92yZtSrmfkL/3ArFuP/dx/to3d4fWpV9wwNNKrrj1+6KB2jxNjcff4nftzwWm3QlBFQQ8CvRHH4lmwt98XHR2Lu+n8q4Po306TOgy+9r4JQ9pzTt1LqFuHpgK/jfOH1L/WaF0KFXGWnaH78cxa1rgVLbHJUK1XKh36hqyS41ceg+PHsUlqycqQQq18yD3sOrSOp7Nt/AvkskSG2q6I9A1dp50XNoZZWJR/fcx/plqf89oXn7Yvi+ZRHBtqDX7zF+0F4VOw1pGPP9lqdUJTQcOAFWWawFU+JiPmL1sE4sfCzEENNoDiFACJgBASKEzACyJS5BhJDpd8XR0QFbd8yHnb2tTottWLsbC+av1Ul2xsxRqF6zvCAb/CYMTRr21mmeuYQsxT4ihMy14/qvk9/bFstHlAL3EFIu8cwbIEP6dCz3iHIvcOBiEMauvKfaSS0VBDaOLQO/nHZCyFhgeAwGzLkB/+CPKjLUIAREBKo2HIu8hesJzffh/vhzZWdxSO9r2aadULVDX2nejaO7cGzlLKmtb8WYD6j6ri3KEyEkIvHfvP46tzFy5WU/5rG/RWHBHzBz/FEEvTKvl5oc8l37l0ethgWEIW7P6D675MT06jP2+61IjYao13eMZMOj8yxkdC6FjEqAUIUQsDAEiBCysA0xlzlECJke6V8nD0b97xW/LvJfSP8+dQmhwRFo3a4BPnz4iP+t2I6uPVrA3j6rYAx3p+/SYQQeP36RrHGWQrhoM9RS7CtW3A/lyhfXMNOJkXXNWtaR+slDSILCbJXlw0ugTAFHab2zzAto1UF/3HjynoWNZcT35d3Qo0FOONllEmS4k8HoZbdw9CqFj0mgyVR4UuksmdLjysPUC2GRMYu6LBCBhh0Xwi17UcGywGcXcXj7SIOstLZzQO+FO5Ahk8LT713QK6wd3Q3xLFzE0GLsB1RD7HDzyAq/ou4aU7M5WaN5R0WIFh8kDyENiL6ZDp5UOnOmjLh323KSSqcFQoi/AJqPnI48pRO9rLZM+BGvHlDo2Dfz5qAb+aYQIELom9pO3W+GCCHdsTJEkp+scvLMJmTJoniYPbDvFH6dMB9iUunwsHf4vl4PeHm5YeeeJdISK5ZuxcoVW6W2toqlEC5p1b5GjWvgl4kDJfOJEJKgMEslU8b0ODGnCqwZccHL6ZuhGLzwlsbapfM7YOHg4uDyvOw8/QqT1z/UkKMOQoAQ0B+Bdv13wDqrqzDx/rVdOH90jv5K2IxidZqhTs8Rwtx/2Q8bm37ph6Andw3SJU6yBEJItEX9WqioB0ZPU3hW8TEihNQRorYpEUgrhJCNXTZ0m7UeWRhhzMvtE/tweNl0U0JDugkBQsBABIgQMhC4tD6NCCHT7qA60TNk4GScP3ddgxDiVqzd8AcK+OUWDDpx7DzGjJ6ZrHGmIoTKVyiBPHly4M2bEFy8cFPwZErWGBkBU9lXsVJJFCrsi5iPMbh//ymuXjEsGTcRQjKbZsauykWcsGBQoufWD79fwbXH8q74S4eVQDk/hSfR1Udv0ZOdnKVL8XGzRm4PazjbWwm5hwJC2Gvm5QddpsrKcK8l3+w2cMxqBZ4RJeTtJzx+FY0PsYbl6jC2PlmjU9iZ18sGOd2tEcxOKrv/MirFJ7+5OFjBL0dWRvClQxQ7Se7W00h8/PTZYCuzOroKv0AHPriF0JdPDNYjTjS2PmtbZ7h6FoRVpqyIfBuAsDcPWML0OHE5va+ZMtnCyc2X5ebgYYHfISL0Kd5HvNRbD5/AdXUYvI+FZqYT5l88Ng93r/5pkK42Y+ciR9HSwtwnl8+wk4USQ0UMUsgm1Wvih459yknTf//5CO7cfC219a1YWWVA7nxOcM9uj48fPuHF03CEvDHs8yCtEEJ29pmRM48TnN1sER7yAQ/vhiA21nLysNlmzSSEZHH73oV/xKP7IYj+YPj7I7tPNnh52yGcnbD44km4cDiBvq8TU8pzz7JcbD8ysh9CPrL7fHw/1KD9MAUhZOz3m4hjhZbdUanND0IzJuo9lvRuDH2Sy4t6+NUtZ37kKFySfdY/xYtbl5SHqE4IEAIpRIAIoRQCmFanEyFk2p0rUjQ/Vq6eJi3Svcto3Lv7WJYQqlqtDEqVKiLIPnr0HPv3nZTm8crESYPZCWWJbre8L106nmMlMcnK58/yD1X8JLPkEk5zr6UO7CQuTy9X6QQ0vkZCfAJCQ99i/94TWLFcu9eSqe1r2qw22nVoDHcPZ1hbZ+GmSeUjI4bOnr6CxQs3IihI94SFRAhJEKZKpX4ZV0zrrXjNcwPaTLyAx4Hyx/m2ruYphZY9C/qApXteJGkzT1TdtV5O+Pmwh+bEt4gwxz/kI3adCcTaQ7o9RHMPpi71vNG0shfcWOJrNXX4wpihJ6+isP3UK+w4nfzDqjH17Z5aAZ5Oqu8HdWBqDz+jdyLucn7Z0L9pHuRhZJBN5sT8Tp/iPyOQnfq27rA/dv+TdPhEw3LumNi9oGAOJ3waj/kHI9v5ok5p9hnz1duLDyZ8/hcX7oXj982PEBAao25+ku26vUeiUJX6SG+VCdwr5dW9G9g6eVCSc5IaNKa+3H61UKJyD9hly67yOf3hfRCu/L0CLu754Ve6pWBORMhT7FnbKynTYO/ojdLV+sAzZylktLJRkY2LjcKTO4dw6eQS9qAlT066ehbC9x0XqMzjiVHSpVN43okDcvP//fcLDmz8EaFBD0QxlSv/WzRkw0mkS6/QdWT577h1fI+KjCENfupR35FVpak/99+NV/5vpbaulaIl2Ulh7AQu71yOyMCISOUS9T4Wfx95jD1bbun1YJ5SQqhuYz+071lGMCUu7jP6tN6obJZK/dd5jZEjZzah7whLarx51WWVcd5QTyrdo+k6dGD6K9fKi8zWGSX5zyw/2/1bb7Bm0TmDyTBJmR6VspV8pOTccZ8SMLLXTjRuWxQ8cXMWGytJ02f2efDkfjDWLrqAVzqe2la4uCfb3+LwYmRQ5iyJ9xrPcA1hR8Uf3HkXp48mn1h/5ooWcHZNOt/jwE5b8SHqk2SvtkqlGnnQc0glYfgTI+CG//AnOjFys2zlnOz9m/ie4/tx90YQ1i+9gOCgKFl17bqXRr1mis9SUSBdOkYHs39CYX+DPn+WP70vgL1fdE04baz3m2ijeOUkTucZq8Qm1o/ugeAXj6S2rpXGg39FvnLVpc+Z4KcPsHlCf/Y91XACUde1SY4Q+C8gQITQf2GXZe6RCCEZUIzY5ezsiP2HV0oaVy7fhhXLtsgSQpKQlsqkKUNQr0HiF2MtYrLdESw0rQELTdNWps0YISSn5l/qkyp37zzG8CG/4e1bTS8OU9o3jsWcN2D3niFj4oOpnJ3hjLgaMXy6QLrJjav3feuEkI2dIzJZqz44qmMg14758B4xHyLlhozaxz1ttk5QJEXniv938DkW7HyW4jX4SVs/dyqgQjqoK+XePWvYevOTWS9D+u+wckRJFMurcHdX16Pe3vF3AKZu0P5F19j69k+vmCwhVH3Iab0IodHt86FVNW+W1Fud+lK923N3wjFs8W1wkkiuNCrvjsk/FJKGTt0IQfXiitAkqVOp8pb9Wt5v9nU8DNDNY8PB1RPd/lgn5awRVe2bNwEPzh0XmzpfjalPkai5LltbHsP4T9F4G/oMrtkVhGhwwA3s36SdyPLwLo5qjcdJoV3abiqMETYHNw9CfLxm3p4CxZuiYr3h2qYm2c/z321Z1Bwx0RGycjb2Tui3fLc0tmZEF4QFpPy9XLiYJ0b9xnFkhb1pe7faqBdpw6d17VceNRrkZw+R8nvBZXgJCYrETHaKmbaHcoVU4v8pJYTqNy2IDr3LCgrjGGHas8X6ROVqtSkLmiBHboWH5JmjT7Bi7lk1CVVC6Atjqc+dfMbIoDwacmJH5LsYzJt8Ao8fhIpdJr2Wq+yDAWNqSGtcPP0c5armktrqlWhGuiya/jfu3EiaZO/StxxqfF8A6ZPZ39tXAzFvyskkT16bs7oVnJIhhPq326wTIaRO0F2/8BIlyudQv02p/SEyFjPGHoH/M833WPsfyqBBi8TPUmmSDhXuFTa0+w4dJAFjvN/kFuI/XA5ZfxzpMyqIv53TR+HZ9XNyolr73HMVQMepy/DdV9JZFDz+vzm4ftgwr0ZRB10JAUJAgQARQv/RVwIRQqbf+GMn1yOrneKhPCgwBIMGTkJxluR47PgBzKVZkUNIFytMRbj80KsNevdtp2JCTEws+C9a6dkpT6LtosDRw2cx7ufZYlO6msq+wUO6oUPnJtI6vJKQkICgwFDhV3fuMaRMFHHSqkfX0Sry2hrfOiFUn53uUZid8qFveXnrCrZNHaLvNIPkT8+vhqxZFETfm7exmLj6Hi7e198DQFy8eWUPjOlYABkzKMhN7n1y5/l7IbTLIWtGwWNIXI/PWX/EH7O3aw8zGtAsF3o2zC2qF64x7FfnF0HRsGKeBt6u1rD6uhYf5ETTmOW3cfiyvKeasfUZmxBqXIEdW9+jkAqNwcO6YtgDK/s4gCNL7q38WL3hqD9mbZPHT50Q4tjwuUHs5LPAsBjYsn3P42WLjFzx13LxfgT6MlJIl5K/fA00HjpZQ/TawR04sWauRn9yHcbSV6RsB5Sp0VdlOR7S9TEqDJltssHByYd9diXeMxd8cvsgTh9I9CZVnsw9jSrVG8FCTBR/R7gHT9jr+4iOCmXeEPZw9mCv969jfN5V5n1084ImuVC8YleUrPKDsmqd6zHR4di8sLlWebecvswD4H/S+KKejRAT9U5qG1rxYKFdM5Yp1v3EwjJ7tdygl6pqdfPhh0HMS0PpRcuJkPDQj8iUOT1c3e1UPIYe3H6D3346pNMalkwI8Rv4wj77OAkWHhLNDrKIgjXzwvH0djD4fnUCJQkhdUJIFH3LwsSCX0ciizW3z17Fe+b5ozBMGLpPFNW4VmHeRb2GVFbZ35joOEYaJggEkZ09855U2vvDf93DxhWXNPSIHaYkhIQ/DswWcT/4/Wb3cUB6pb8f95in0PSxh0VzpKu5CKGUvt8kg2UqvRfthJ2z4geBI8tm4NaJvTJS2ruK12mO2j01Ce1bx3fjyPKZ2ifSCCFACOiMABFCOkP1bQkSIWT6/ezTrz169GwtLfTpE4sZf+SPwkXy6UUIZctmj6xZFQ8EorIfB3dGteqK/Aohb8IxoN8EcUjlymO1X716o9LHG7a21kIya/GEs7i4eOzbfQIzpi+TZLt2a4GOXZpKp6DxELKxY2bh1MmLkgyvmMI+rnf7zkXI4ePBq+BE1bYtB7Bvzwm8fKn41bBa9bIYPLQ7vLK7CTL8v/Fj5+DwoTNSW1uFCCF5ZAIf3sbm8f3kB43cy71R2tVM/NU0nrm9/8XCubacDMSz19F6rcY9Wg7MqAQX+0zCvJB3nzBh9V0WjpRIMPFcOFN6FEShXPaCzGf2S3q7SRfxREuo2vqfS6PwV1nuwTKThTX9fTNMynljy8KpGlZww/A2vhIJlVTSa2Prs7POoBKOxG+qalEnTGKkjlh09RBSxy+WEV+rDrzAyv0vRFVoUNYNQ9vkkzDm3kE//H4Vd19ESTJiRZ0Q4qF1y/Y8xfJ9ifp4wvBfWViZcthbUrmkRN3ilZ9qZefiLjbZQ3ACNo3rhzfP7kt9+lRSqs/BKSeadF3OHroVJ219+vgOl04swuO7iQ95voUboEK9YexBUPE65fZdPc1InPOaJA4fa9tvO2zsFJ9v7yMCcO7QHwgKSCTNnN19Uav5FCajwCHyLQtdXN6BT9UomTLbqfTVajYJ7j4lhb7ggJs4tnOsyrjY+JeRUHFxH8WmxtWncGm0/uUrCce8iWa1rwYeZpbSkoE9LK/c1ZmFtX2H929jwMN19CkLN7aFnQMjBVjhXjh7ttzEnm23JBX89Kiu/SsgF8srJJaVc//RKbzI0gmhf9kbbi+71x3rE18rBYt4oPugCnDzTHwdzJ9yAlfOvxRv32RXOULo0K672LbmqpTnJ18BF/zAwqw4cSWW5bPO4OyJp2JTuvLXxmzm0ePgaC308f3du+0mdrPQP7HwEKh2P5SWZHgI2dTRB/GMEU1yxcbWSuPztEQ5b/Qaykinr8VQDyG+H39tuoFdm2+KqsD3o9ewSipeSdNGH8L9O6rf13juK6uvhy+Ik1t3LSl4vvH2m8D3mDT8gDikcuXefbrmZErp+01lYbVGl+n/g2suX6H39MYluLRHe4ik2lShyb2dey38k5HqiSF9/N62sXQKAfeuyU2hPkKAENATASKE9ATsWxEnQsj0O8lJl01b58HNPfELp7hqzMdYwdvm4oUbzMU/QezW+ZrSpM3fN6yGCeyPqVh43qJJExaITenanuXuGTysm/RFaceWg5g5c4U0rq2SUvvq1K2EKdOGS+rXr/kLCxesk9pipXqNcpj2+0ghpxLv27xhL+bOWS0Oa71+64RQ1Q79UKRmY633r20g6PFd7JwxUtuwUft5UuV1jHTxdlF8qReVc/LgyatIXGDeQvvPB+ERS9ycXOF5g2b0KSqJTVxzTzbPTX5vW6wdU1oKKVtz+AXm7dB84OCKjs2qLB15n5Q3zI/Nc8PdUUECXH34FrvOyufXMbY+6WaVKuq5mXQlhEr5OmDlyFKSplUHnmPhrmdSW6zULOGCP/oVZZ8Hip75Ox9j9UHNB0p1QujI5WCMXn5HVCNdub5Z/RP3bebWh9h07JU0nlQlX5mqKFz9e7j45MX7kCA8vnQK1w4ZHj6QUn2lmAdOsYpdBZM5IfL33sl4dl8zfK1G01+Rq0AN6daOMyLG/7EmiZ2vUF1UaTROkEtgYWCHtgxFyOu70jyxUpLlKipeqZvQjI+Lxvo5DcShJK8te20UchNxocfMS+mMFi+lJJWwQZ8iZdB63BxBjOdymtW+anJTdB6vUC2X4K0aGxOvF3HhV8QdY6bXl9bZu/UWtq/TfHB098yKiXMawdpWQdCdOvQQ/1twXpqnrWLphNDV8/5CiJS6/Tyf0rCJtaUQun3bbwukjLqcsdvqhNDtK4GYOeGoxjJ+hd0xampdyXPmyO572LBc06tHfX/3MfJr21rN/S1T0Qc//lxd+v6ynRFQe9k961r466/fqGqSuKGE0KUz7POUhcCpF27fwLGJnwWb2L0eYvecXDFFUmm+pqHvt+Ts7TR1Bdzz+glipzctxaXd+nn78YmFqzVgXs+N4OTlgw8RYXh44QQu7NL8TpicLTROCBAC8ggQISSPyzffS4SQebbYw8MVCxdPRPYcib9kK68cFvIWGzfsxs4/DzNX50/KQ0nWU0q4DBnSHe07KwgD7kXU5Ps+LIF0uOyae/YvZ6SWszD2z5mrGDZkqqyccmdK7eNeR66uTpLKhw81H07FwYNHVsPRyV5o/n3qIkYNnyEOab1aKiGUu0RFZMlqp9VuceAzC517cO6Y2EyzV2+XLJg9oCjysvAhucK9hviR9Mv2PNeadJrP69Uop5AImdcjPyag2mDNL998jJd1jBAqklvxejl6NRijlmoSFVxOOSTr/N1w9J97g3cbXIytT84QQwmhjnW8MYJ5OvHCQ+04ftpO/9o1pTxyuik8Fnf/8xoT12h65KgTQsMX38SJ6/K/zJ+cUwUO7Nd5XraeDMD0TdrzMAlCFvpfo06L4epVWLAuJPAO9m3oL2tpsQqdUapqr69j/2LrkjaIjgzWkK3fdjZLIl1a6H/+4CRO7p6gIcM7cheoiepNJwpjuhJC6dJlQOehByVPJW2hZoLSZP4zJSGUzNJah5u0KYJWXRUEJ09U3K/NJq35h0ZNqYvCJTwFXQ/vBAteJFoVfx2wdEJowdSTuHzOX/Y2pi9tJnnh8Fw+i2Zo/6yUVWBApzohtOyPM/jnpDwRP5nlTPL5mjOJ596Zw3IdqZf6zQqhQ68yQndy+8vDDnk4FC/acjAJgzL/GYsQSsoTa/Hm9rBl4bi8HNt3H+uWXJSxRLXLVISQ6irGaxmDEDKeNaSJECAE5BAgQkgOlf9AHxFC5ttk7inUus33aNO2IRydFV9M1Fe/d/cJBv84CZGRH9SHZNspJVx4MumatSsKut9GRKJ+nW6y6/DOtRv+QAG/3ML4g/vP0LXTCK2y4kBK7RP16HL9c9diiXDTlbCyVEKo87RVcMudP9nb/vQxGgu610tWLi0I8JO32tb0QvMqXhreQqL9PARs2KKbsuFJXEY5/Ozp6w9oNUH7l+qZfQujdilFGM6lBxHoM+u6uIzKdcWIEiid31Ho4yTJ/gtB2Hk6ELeeRarI6dowtj65dQ0lhJTx4/mcGoz6R0690LdkaHGUL6gga7Xl/VEnhBqNOSfkDpJTuuPXcsjjqSAEtRFMcvMsqU9BsBxiBIuC2Lp5bi2unlkla2IZdlpYkfIdhbFYFla2iT0Aq5csNo5o238H83xU5Ng6e2AGHt3ery4mtAsUa4KK9RWfyTxh9fq5DWTllDtdPPzQuEtiePDxnT8zL6WzyiI61y2REOLJpGs1KiDcA8/bMrT7dq33kz2HA/hx4LxEsJw2gTqcbmXphNCIH3ZoPUVMmQDTJ2+SVgB1GFAnhMYO2I2AF29lZw4bXwvFWagWL0/YMfSTRmiGQ/Fk0rXZSW28RIRFY0hX7fs7mnkcFWInkfGiLU+PMCjzn7EIoaT247fFzYR8Qnx5XQkrIoRkNou6CAFCIEUIECGUIvjS7mQihMy/dxnZSVk9e7dFtx4tZRfnpNAP3Uazo4NZzEwyJaWEiz7zl62YiuIlFV++Hj96gU7thyVjHaCP/uSU8eTXOXw84ersBKvMGTXE/QrmYWEF6YV+IoQ04ElTHRULOaJGCWfhmPkczAvlOyXrgyJi0Wr8BVnPlTEdfdGmuuIhgnu23HqqPamtj5s1PL4e137lYQR6/SFPCLWo4oFfuhRUsoAljmZvzdcRMXjNjkh/xf7d94/EkSuhOp3kZWx9KoZ9bRhKCCnj9yI4Gs3HXZBTL/TN7l+E7ZGrUNeGnzohVL7/Ka0nkm0dXwa+3gqvuLRKCLl6FkSjzkslzI7t+Akvn56T2sqVGk0mIpdfTaEr7M1D2SPnvXNXQJ3WM6Rpoa/vgXv/yBVrWxc4OOcUhqLeBWL7svZyYip9+Ys2QqUGo772MS+lxa2ERNUqQjo2LJIQ6s8IoYYKQijo1XuM7rNLx7vRTczSCaGezTdoPVFryLgaKFnBR7jR1CKEBnfZBp5QWq4MGF1NOoHsyQNGCMnkx9GHEEnJ/RqLEEpqP3Q5RU4dJ33uX31uarTJQyg1UKc1CQH9ECBCSD+8vhlpIoRSZyubNK0lnDL2jnnlrF2zE/1+7Agrq0SSYxxL2nz0iPZf50WrU0q46DM/tQgh7lHVoWNjeHgpHj7Fe0/qmtYJofr9foZrznxJ3aIwFhv1HtumDElWLi0LcFJhWNt8yPY1nIjfy7K9z7CUhY+pF2VCQ30sqbY2QkOcM7GbH5pU9JRy5oj9yldOQJ24FsJO3HqMdx/ilYc06sbWp74AEULqiJinrQ/B0pgRRy6MQOLlxcNTOPHXeA0ji5Rtz04r66fRn1xHkP81HNyS/OdC2er9ULicgjiK/fiWeSk1TU611nEihICJ7DQsbcmK5YAz5bHzfL2kCIiUECRy96JLn7qHEBFCiagRIZSIBdUIAUIg9RAgQij1sE/VlYkQSh34RUJIPHbeJ2d2rPjfVOkkr1s3H6BXj5+TNU4fQkdOmT7zU4MQqlW7Asb/OgiZMyti6/k98FMlYmM+CSe4Kt9T5sxWUlLptE4IKd9XSuq+ZavBLa+qd4su+iJePcfd04d0ETWLDPfmWTa8BNyyZRbWe/4mGi1+0fReUSaEeHiXtvw36kbfePIWgxfcUu9WafPTtZpU8kCxvA7IYqXwRFMR+Np4FBCJjlOvCDl45MbFPmPrE/XyKxFCymiYr65KsMiHgYnWtB+wC1lsFSF3ty9sxOW/E0O3RJlK9UYif3Exx1sCEuJixKEkr0/vHsX5Y3OTlOGD/GQyH19F8uewoAfYs653snO0CXjlL4b2kxZJw3M71UBCfNLEqCRsooqpPSjIQ0i/jSNCSLvH1n+BEOr2xwY4e+cUXjQn18zH1YPb9HsBkTQhQAiYHAEihEwOsWUuQIRQ6uyLOiHErRg/cSAaNq4hGBQVGY3aNTona5w+hI6cMn3mpwYhtH7TLPjmzyWYnpDwGQf3n8KG9bvx4rnmCUTfUg4hub0ypK9+3zHsRI6Gek8157HzuhrHvWqaVlLkgIhhRwdXHHBKY6oyIXTvBSdmLmvIpLSDHzNfLK898ma3QW4PG1Qo5CQdwS7qXr7vGZbs1vRgEseVr8bWx3UTIaSMsPnqleuPhm8xxfvtXdgL7FzVRXZxV89CLLRsiTR2dv80PLpzUGqLlfptZ7GE0mWE5kuW2+cYy/FjzNKs2yo4uik8EZNKWK3LmrYOzui77C9JdFm/loiKCJbaqVEhQkg7AUEeQrr/4EEhY8Z59w5YsQ9Z7BwEZbt+H42nV5P3gjfOyqSFECAEdEWACCFdkfrG5IgQMu2Gcg8Xd3dFqNPlSzfxiOXe4UWOEOKyvykd9V2rWid8+CAfXy8oYf/pQ+iIc5Svv00fjlp1Kgldb8Pfo37d7srDKvU162eC5+nh5eGD5+jScbjKuFwjJfbxJNz7D6+SvINOn7qEkcOnyy0j9BEhpAmNpRNCo9rlg00WRcLcf26HCXl4NO9C0aOej6bp2HN4GaLqMaGcFDm5pNLa1tG3P0P679CMeQ6N6ViAeagpsh1duBeOfnNu6KtKkDeGPkMJoZFsPzrUyiHY8YblamowWvsXduWk0tqScqvv2beeQ6jK92OQr0gDAb/3ES/x54pOsq+BinWGokDJ5tLYX6t7ICLkidQWK826/w+OrnmF5r0rO3Dh+HxxyCjXjoP2IVMWRd6mW+c34Mrp5SnSO2TdMWTIpPDi28J+4Hh1Xz4vV4oW0WNy5z7lUKeJnzAjuaTS/Oh5h2zWguzbiI8IDopKdqWUegjVYQmvO7PE17x8YR6NvVtt1Jrz5/flzeHuZS/Inj7yGCvnab43K9fMg97Dqwgy/L/hPXYgNFj+gIpRk9mpaiUVBHtq5RBKKqn0UJZUukQySaWV9zcilCWV7rZdunf1ymh2ilyhr6fI3b8VhGljDquLaG0TIaQVGp0HrLLYYODqQyzsWvE3cvXQjgh/7a/zfBIkBAgB8yBAhJB5cLa4VYgQMu2WrPjfNBQtpjgtat2aXVi0YL2woBwhVLVaGcycPUYYj4uLR7VK7Vli6S9JGpgSwoUrHjS4Gzp2UZxuk+yx8/vYsfMezoI9585ew9DBU5K0jQ+mxL7KVUpj1tzEX8SXLNyINav/1LrmkWNrYZ8tqzBuaMjYLz/PxpHDZ7WukdYGitRohDylFISfPraHv36JM5sSPRj0mauP7PaJ5aSj5o+xo99Hajn6netsVzM7O0VM8V7i+dbrjTyDsPdxKsv1bpQT/ZoqSMvkjp1XmWiEhvLpYcklZNZluZToM5QQ6lA7O0a2VWCc3LHzOyeXRy53G+FW9px7jQmr72vc1n+NEKracCzyFq4n4MBDWw9uGog3r1RDEXmi6FotpiJdegURmhAfg3WzFXPUAVT24DEGYaOsP6uDB1r32Sp1ndn/Gx7f0d1rQpqoVOn6+xq4+CgIrIu71uPMFs0wOCVxk1f1OZZcmSB5+jAUvw7bn6x96oTQ1JEH8PBeSLLzRIEijKAYyYgKsfw26iAe3JX3qlqxoxMj7xSvmV0br2PXppviNOmqTggldcz5tCXN4MVOVuPl8tkXWDDtlFA35X/qIWNJHjs/nx07n8dRMOcaO3Z+rtyx800LokPvsoKMPsfOnz32BMvn6P53ngihlL8qePh6k+FTBUX8s3Fup5r4nKB/SKmDqyc88xdRMSjU/ylCX2oS6ipC1CAECAGdECBCSCeYvj0hIoRMu6cjR/VCq7aKX4yD34SjXeuB+PgxVtZDSJk8efTwOTp3SN4DZ/JvQ1G3nuIXQU4ides0Ek+fvtT5pho2qi7k6BEn7N19HFOU8kCI/Tyx87CRPaRfd3ZsOYiZM1eIw1qvKbEvT54c2Lh1TuKaW9mav8uv2ax5HYwZ10+yQ1dCqFTpwli8bJI0b/++k5g0YYHUpoppEVA++p0TOL3/uIqHAfK/aK8bUxpFcit+IfcP+YhmY89rGFe3tAtm9Ckq9f/yv7vYd/6N1FaurP2pNNydFN4MBy8GYe6Op8rDQr2cXzaM7pBfSiY9eultPHoVrSHHOyZ1Z0d4s8TTvGgjhIytT1hM5j9DCaHS+R2wYkQpSeMKFvq2WCb0rXoxZ8waUAxfHaIwf+djrD6o+bljDkIod4mKKFL9e7jl8cPboJd4eOEkbh3fI92DvpWU6CtStgNLAt1XWjLmQxiun12DoIAbsGZHyPN8PTwnUPoMmSSZd+H+2Lmys9RWrjTtuhJO7r5Cl7bE01ZW1qjdcjrssileeyHsJDK5BNXKenndPXsxfN8x8bPuxK5xePHotLqYXu3Ggychf8Wawpy3rwOwZkRnfP6coJcOYwoXLOKBn6Ynkm17t97E9nWaXktuHlkxcU4j2GRV7MvZ40+xfPaZZE3xyG6PGcsSPb32bbuFbWuvJTtPFLC2tsKiLe3Z6ZgKr4m/Dz/Cqvmap9IpJ5/mc+dNPo6rFwJENdJVnRDSRvQULuaJ4ZPrSOse2HEHW1ZfkfSYqqJOCN24FIDZvx7XWM7XzxU/TauPDBnTCWNHdt/DhuWXNOTU93fP5pvYsUFzf0uV98agsTXx3dcPrO1rrmLv9tsa+rR1WCoh1KFnGdRvXkgwOy72M4b/sAPv36l6zWq7J3P3Nxk6Gb7lawjLvnvzGisHtzHIhCrt+6JcM1XPy/0LJuH+2SMG6aNJhAAhoIoAEUKqePxnWkQImXarq1Qtgz/mKLx++Er8uPb1a3fBxsYao3/uA55UekC/CejJjlSvXTfRk2PN//7EkkUbkzWuT7/26NGztSR37fJdbNy4G2fP6PblLls2e2zdPl/yrPn0KQ67/zyKWbNWSTo7dGyCLt1aIJujndCXkJCAsT/NwqmTFyUZbZWU2nfoyGpkc1KQAO/fRmHMTzNx9codleW+b1gNQ4b3kBJy80FdCSEue+L0RrYfWXgV79gaPE/Rju0H8eqVPJEgCNJ/RkFA2SOFK+REz/wdT3DieqikP4drFgxtnRfViytCL/nAgQtBGLvqniQjVni41cEZleBsr3iwe/M2FhMYKXTpwTtRBFxmSKu86FhbERrFB+b++RhrD2kSGgV9bLFxXDlp7uUHEZj35xPcfREl9fEKTxA9vqsfMn9NNn38WjBGLFF9nXI5Y+vjOuWKoYRQpozpsee3CnB1UODHk3Iv3/sUaw8nPnzWKumCEe184f41wXdcwhf0mHFFAxNulzkIoV7zt8HeTUGG8DU/x8dh7ajuiDAwHCEl+jJlskXrvlthlVnhqcjtSa4EPruAw9tHyYrVaz0TXrkVrz/uSXRq968qx9hnyGCFao3HS4mhuZKrp1fg5vn1svqUO92zF2WE0EKp68XDv3Hj3BoWuvZU6tO34l2wJNpOSAxrS20vISurDJi9uiXsHBSf7/yhedem69j/Z+J70ye3I7oPrIjcvs7S7a5i4Vh/s7AsXcrize1ha6d4v/Aj1A/tuovTRx8j+kOcLtMxeQHzhGE28JIQ/wXb117FQaZDLOWr5ESX/uXZGgry+iPTO6Lnn/gQ9UkUka7qhNC/zJVyJ/Mm2r3lliTDyZYfhlQCJ7PEsmjaSVw86y82TXZVJ4S4p8i+bbcZSZdIouXK64ReQysje85skh3LZ53B2ROar0u+v3+sbAEHJ0Wo36eYBPy1+YbK/pat5CN4ETk6K7wZOcZTRh3Q6zQ4SyWEqtfzRY9BFSWcOAG4Z+st+D+LkPosoZKvTFU0HfGbZMrf6xfh8r7NUlufSptx85CjSClpyrs3gYxcaiu1qUIIEAIpQ4AIoZThl2ZnEyFk+q2b/vtI1KhVQetCX9iXNjH3CBcKDAhG+7aDwcmZ5ErRYgUwb+F4WFsrvixqkz/KwqDGsXAoucIJJU7cKBeeuyia/ctkZSWQRWLcN5c5duQfjB0zS1lcaz2l9s1iIXSVWSidWDgmN68/QHR0NL6wL5NeXu5C0mll/LisPoTQ7LljUalK4hcMcS31a3BQGJo06q3eTe0UIrB0WAmU81M8EHFVLBoMr8M+IvRdHGxZiISXSxaVU73C3n9Ct+lXERgm/0toq6qeGMW8ejKmV/y6HP/5C+4+j0R45Cd4OGZBTpYI2jpTeslqniun2bgL+BT/WepTrnCCxNtF8cAh9nNdAcEf2S/s6Rj5ZAUPJ8UDJx/n9nMSaq8WzyRj6vupgy/a1PAWzZKuCn8DqalxIh8fidWSmLtRBXdM6lEIyjresofQ99Hxwj64OmSWPKa4nk3HXmLmVvmHZ1MTQvnLVUfjYVO4GSrl0p5NOL1xsUqfLg1j6PMt8j3K1R6IjFaKB1DVdf/Fw+t7kD1POdjYuQtD96/twvmjc1TFvray5yqPum1msJZiN74wb5vQ13cRw46Iz2rvCXunHMyLIvGz/23oM+xe05OFGifvlcNDxlr0XM9ew1Zqa/NXcGK5fWGT7AloiRKqtTZj5yJH0dJCJ3/g3zJhAAIfJhISqtKmb1Wtkw89B7MfW5Re0Jy4CQ/5wIi7DPBgeXkyKp0ayMPFprLQrQRGdOpSeg2pjCp1FGFyKvKqMCIo8D1G99mlIsIbPGxs2MTazGtM8XnF+0KCIhHBPgOz2meGJyNuRM8WPrZ55WUVwoj3iUWdEBLe+Oy+ub4o9pmVjuVv4USL8v0+YiFqU9j9mqOoE0KcnOFeQGEsz1Ek82zhkHnndISV0ufz80dhmDB0n1bzqtTKKxBIyvsb9T5WIMwyZ87IyKIskpcxV6LN24iPdWX5nGo1LMCrqkXptSMMqO0t74tj5HnPlqpErPp+9GyuPcm3IaeMubrbYtK8xrC2VRCSktFq9h1mHlYbV2h6WEnyJqzY2Dmi2+z1yJJVQUBGvw3HikFt2ImJmoSmLmYMWHmA6VL8OMnlL/61AWc2L9VlKskQAoSADggQIaQDSN+iCBFCpt9V7oUz5bfhKF22cLKLhbCwMp44+cEDzV/DtE0eNKgr2nduLB25LieXHEHCw9WqVi+bpA6u9/69pxg6aArevn0vt4xsX0rsc3FxwopVU9mX9kTvELlFuF1WVhmRJ6/C6yO5+1XWkSOHp0CqeSazRvAbRgg1JEJIGTtj1D1Z2Na8gcWkXEJJ6eTExOS193HyRlhSYmhRxYOFehWAldJDltwETi6NWHIbN59qfz0Xy2Mv2Gdvk1FOhUafNu8lUdCY+pRPVRP163qNZQRYhf6nZMW53pZVsyO9GBMmKwXw5NlDFt7WSqaZmhBydPdG15lrkN5K9YHo2KrZuHFkpxartXcbS5+bVxEUKNEM9o7eLAzJBZ9ioxD1LhAPGBkUEngbHQbvYw+pCgLg4rH5uHt1h1ajajT9FbkK1NA6Lg6EBN7Fyd3jER2V6F0njmm7Vms0DnkK1dU2LPRfPrkEty/p/mu+R95C7HS/ZZLO9yFBWP9Td8RGf5D6zF3pMbACqtX1VSFW5Gzgiadnjj+C1wHaPw/U59myMLOfZzRAdh9FPh71cbEd9EqeEOLjbbqVQoMWhaUQLnGOypU95F888xyLZvyt0q3cUCcguMdImco5lUVU6h8YScTzDGnLW6QibISGOiHEQ+SqMS8XbYV7Qy2afgq3r7/WJiL089PkatTPz/JyqTM3qtPuMj1zJp3Qmrhb+VQ61ZnJtwRCqIV5CSFuVT2WNL19T/bdLYl7P3P0CVbM1T1nUvJ3q5tEunTp0GzkdOQumejFZOhnM18xV7FyaPlz4o+RcTEfsXpYJ3aaYYhuBpEUIUAIJIsAEULJQvRtChAhZJ595R42TZvVRsvW9ZE3n48G8fL+fRQO7D0lJE1+9y5Sb6Oat6iLVm0awNXNCVmz2qj8IsaV6UKQtGhZD+07NBbIl4wZM0g2fP78mf1a+R779p3A0sWbpH59KimxL2eu7OjLPJgqsSTTnPRRLjxv0q0bD7Fg/lqMZ6faGEIIcX2ctBs6vDuKFCkAR2d76WQz5bW451aLZv2Uu6huRAQ61/VG+5reLK8P+0VXTW90bAKOXglm+WyeCZ5DasOyzYbl3NGtgQ/yeNlq6HvHvF0OX3qD9UcCtHoaKSvN62WDLnVzoGZJV9gwrwL1whwh2Iln0dh49CW2/530wwufayx9w9rkRec6Purm6NSOYuEVVQdpf7isVNgJ/ZvmZvjZgIeSiYUnmw4Mj8GGw/7YcTrpe61dygUz+xYVp8IUp4zV7/czClaug3QZMoJ7pAQ9uotN4/tKa+pbMbY+9fW92DHy9dhx8mI5tHkIXr+8JjZlrzw3UdHy7VlS4cQwH1EwPPgxntxmyYxv7mVeLcl7lYrzxGupKj/AJ391FpLkyrw1Ej3dxPGj20cj4Nl5sanTtW7v0Shaq7EkGxUegsNLp+PFrdTxUuCGlCzrjRZdSjDiJpuKRy4fi4mOE0LE/mKJmj9+1B9DHrrUsnMJFGGndjm72iKzterfKb5GwPO3GPvjbl6VLUVLeqFN91KCB4+Kxyv7bAl5Ewlum1zYlLIydcKlb+tN6NCrDMpXy63idcO9kh/eCcaaRefBiSpzFXX7fuywBU3aFmUeVvmQRQkzHurGPbVWLzyPgBdvdTKvWGkvtOhcEtlZomxlD6jPzNMrjHmDHdx5FycOPkxSl3JOniQFZQb5a6hPG9XvR+r3a2wPIdGMYqW80KhNUXYKnR0Lj+QenKp/QVODEHLy9EH9/mPhka+gaCaCHt/DlokDDEomzZVU7zwQpRslhoc9On8Se+b+IumnCiFACKQcASKEUo5hmtRAhJD5t42Hd3VlOXm6/dCKuXFHo1/vX/D8eQD7Mv/Z/MZoWbEmC3Fzd3fB+/eRuHTxNkJDw7VImq+bkzalyxSGp6ebQAxFRLzHrZsP8PjxC/MZQSuZHAFHu4zwy2HH8thYMc+TLyyJ8wc8CYw2eF3f7DbIxcLEeAjZZ/ag4R8cLSSG5sSGIYWTOTndrQViiOsLCo/FY2YjT4ptSDG2PkNsSG5O4Zx2cHPMJISN3WP5k3huIUsq/OSZ7H7FEP7KH0FPNXNL6WursfUpr1+mWh8UKd9R6PryOR6b5jdmHgsflUW01u0dc8CJHUP/XboM+BQTibfhzxEdGaxVPrUG+ANptU4D2MNbOxUTQv2fgIfzpWYCWBtbK+TO58xwtEF83Bch38orf91IB5WbMVGDexzlze8i5MX5EBmLpyxkioe4paQ4OVsjF7tnHoLGw6kesZPQItk1qeLNQsuatS+mQS4kNUd57NbVQJxiHkDKRZ0gGdxlm3Bv9izHUx6Ww8nZzRbvIj7i4d2QFCVHzpOf7S/LGfQhMg7PHochNjZe2QyqmxABr/zFUKlND3gXKqny2gm4y07Gmzka3KvH0NJu4mL2Oa/4gYGT/zumDIX/nSuGqqN5hAAhIIMAEUIyoPwXuogQSp1dljt2PnUsoVUJAUKAECAEzIFAZubhw/P2ZLZWhBcFB9zEfnY0/bdayjTugGodmVelksfCs2vnsHPGqG/1lr+Z+1JPWKzvjR3f/wBrF19QmaaNEFIRokaaRqBS656o0Kqbyj08u3oOe+aMY0nT9fe+U1Y0cPVhZLJW5GYLfvoA63/uqTxMdUKAEDACAkQIGQHEtKiCCKHU2TUihFIHd1qVECAECAFTIpCThV+lT68aMpSO5Qty8SwEz1yl2PHw3tLy+ubnkSamoUp2v+IoVb8V8pSpwvKcpAcRQmlj81JKCB3bdx/rllxUuVkihFTg+CYbIiHEPXieXzuPqwe3w//25RTfq/pJZafWLsCVA1tTrJcUEAKEgCoCRAip4vGfaREhlDpbTYRQ6uBOqxIChAAhYCoE+LHzygmjk1rn9YvLOLR1eFIi39SYrYMzitZuggyZMht0Atw3BUYauBkXFr6VM4+TwZYGvIjAm9dRKvOJEFKB45ts+FWqI+QNunZgB96FBBrtHmv1GIYS9VoI+j6+i8DyH1ul2OPIaMaRIkLgG0KACKFvaDP1uRUihPRBy3iyOXw8UatWRfAE0rt2HjGeYtJECBAChAAhkCoIeOUsyxJG/5Hk2v/++wUBT87h7MEZiI0xX0LfJI2iQULADAgQIWQGkL/RJdr/uhheBRT5g24e/QtHVyb9OfuNwkC3RQiYHAEihEwOsWUuQISQZe4LWUUIEAKEACGQthDIkaciSlXrrWE0D5+IjQ5nCX2D8eLBSQT6UyJUDZCo45tHIH9BV3QdUEG6zxljj6QoebSkiCrfPAIuOfIis62dcJ8Rr16wZPoR3/w90w0SAqmBABFCqYG6BaxJhJAFbAKZQAgQAoQAIUAIEAKEACFACBAChAAhQAikEgJECKUS8Km9LBFCqb0DtD4hQAgQAoQAIUAIEAKEACFACBAChAAhkHoIECGUetin6spECKUq/LQ4IUAIEAKEACFACBAChAAhQAgQAoQAIZCqCBAhlKrwp97iRAilHva0MiFACBAChAAhQAgQAoQAIUAIEAKEACGQ2ggQIZTaO5BK6xMhlErA07KEACFACBAChAAhQAgQAoQAIUAIEAKEgAUgQISQBWxCaphAhFBqoE5rEgKEACFACBAChAAhQAgQAoQAIUAIEAKWgQARQpaxD2a3ggghs0NOCxIChAAhQAgQAoQAIUAIEAKEACFACBACFoMAEUIWsxXmNYQIIfPiTasRAoQAIUAIEAKEACFACBAChAAhQAgQApaEABFClrQbZAshQAgQAoQAIUAIEAKEACFACBAChAAhQAgQAmZAgAghM4BMSxAChAAhQAgQAoQAIUAIEAKEACFACBAChAAhYEkIECFkSbtBthAChAAhQAgQAoQAIUAIEAKEACFACBAChAAhYAYEiBAyA8i0BCFACBAChAAhQAgQAoQAIUAIEAKEACFACBACloQAEUKWtBtkCyFACBAChAAhQAgQAoQAIUAIEAKEACFACBACZkCACCEzgExLEAKEACFACBAChAAhQAgQAoQAIUAIEAKEACFgSQgQIWRJu0G2EAKEACFACBAChAAhQAgQAoQAIUAIEAKEACFgBgT+DwAA///gErGEAABAAElEQVTs3QeYE0UbwPFXej16r4oISFEQFKQqVVEQpHeQItKbKCggCghIE0Q60kERpCvSRKQj0pQi9aOXA+5oUr+dDbskueQuuUsuyeWf59FsnfKb3eP2vZnZp/IXe+WRBOAnbYZMeqlDL10IwNJTZAQQQAABBBBAAAEEEEAAAQQQQMB3Ak8REPIdPjkjgAACCCCAAAIIIIAAAggggAACvhAgIOQLdfJEAAEEEEAAAQQQQAABBBBAAAEEfChAQMiH+GSNAAIIIIAAAggggAACCCCAAAII+EKAgJAv1MkTAQQQQAABBBBAAAEEEEAAAQQQ8KEAASEf4pM1AggggAACCCCAAAIIIIAAAggg4AsBAkK+UA+APJOHpJXmw7+TePETSHjoJbl+4Yyc3L9L9q5dKg/u3wuAGlBEBBBAAAEEEEAAAQQQQAABBBBwJkBAyJlMkG9PkzmHvDdmXgSFsIvnZemoT+X8sX8i7GMDAggggAACCCCAAAIIIIAAAggEhgABocBop1gvpbOAkCrItfNnZWbv5nL3zu1YLxcZIoAAAggggAACCCCAAAIIIIBAzAUICMXcME6nkDRFiOR+4RV5vmxVebpoSbOuqycOlb3rlpnrLCCAAAIIIIAAAggggAACCCCAQOAIEBAKnLbyaUnjx48vLUfMkdRZsuvl2PzDNNm8cJpPy0TmCCCAAAIIIIAAAggggAACCCAQPQECQtFzC8qzavceLs8UK6XXffcvi2TttJFB6UClEUAAAQQQQAABBBBAAAEEEAh0AQJCgd6CsVj+hp99K9nyF9Zz3Lp4pmyaPykWcycrBBBAAAEEEEAAAQQQQAABBBDwlAABIU9JBkE6rcd8L6kzZ9Vrum76aPnz54VBUGuqiAACCCCAAAIIIIAAAggggEDcEyAgFPfa1Gs16jLjV0mYJKme/jLt1fOHtq73Wl4kjAACCCCAAAIIIIAAAggggAAC3hMgIOQ92ziVcsLESaTLzDVmneYP6Cin//nLXGcBAQQQQAABBBBAAAEEEEAAAQQCR4CAUOC0lU9LGpI+i7T95gezDNO6NJLQ86fMdRYQQAABBBBAAAEEEEAAAQQQQCBwBAgIBU5b+bSkKdNmknbf/miWYUavFnLp1L/mOgsIIIAAAggggAACCCCAAAIIIBA4AgSEAqetfFrShImTSqfpP0u8+PH1cmyYOVZ2rljg0zKROQIIIIAAAggggAACCCCAAAIIRE+AgFD03ILyrDc7firPl62q1/1OeJhs+2mWXDh+RG6FXRV59Ejffvf2TQm7ciEofag0AggggAACCCCAAAIIIIAAAoEiQEAoUFrKD8qZKGlyqd6xn+QpXtppaR7cuyujmrzudD87EEAAAQQQQAABBBBAAAEEEEDA9wIEhHzfBgFVgudeqSA1un/htMyPHj6UEQ3LOd3PDgQQQAABBBBAAAEEEEAAAQQQ8L0AASHft0HAlKBA6UryZqf+8tRTT+llfnDvnoRdOq8NGbumjRh7qG9TAaEFAzsFTJ0oKAIIIIAAAggggAACCCCAAALBKEBAKBhbPRp1VkGg90bPl9SZs+lnn/hrm6wYN1Buh1+PRmqcggACCCCAAAIIIIAAAggggAACvhQgIORL/QDKO2nK1NJhynKzxHM/eV/OHtlvrrOAAAIIIIAAAggggAACCCCAAAKBI0BAKHDayqclTZ0xm7Qe++Q181M61ZdrF8/4tExkjgACCCCAAAIIIIAAAggggAAC0RMgIBQ9t6A7K3mqdNJ+0hKz3jM/bCkXTx4x11lAAAEEEEAAAQQQQAABBBBAAIHAESAgFDht5dOSxosXT7rN/c2cUPrHwT3k+J5tPi0TmSOAAAIIIIAAAggggAACCCCAQPQECAhFzy0oz/pg0jJJliqNXvefxw+S/b+tCkoHKo0AAggggAACCCCAAAIIIIBAoAsQEAr0FozF8rcYPlPS53xGz3HjnG9l+9I5sZg7WSGAAAIIIIAAAggggAACCCCAgKcECAh5SjII0qnXd7TkLFJcr+muFQtk/cyxQVBrqogAAggggAACCCCAAAIIIIBA3BMgIBT32tRrNarbd5TkKlJCT/+v1YtlzdQRXsuLhBFAAAEEEEAAAQQQQAABBBBAwHsCBIS8ZxunUk6bJac0GzpNEiROotdrx7J58tvsb+JUHakMAggggAACCCCAAAIIIIAAAsEiQEAoWFrazXomTpZCCpSuLElSppKnX3hFsj5XUJ7S3jRmfBYO6i4n9m43VvlGAAEEEEAAAQQQQAABBBBAAIEAEiAgFECNFZtFTZM5h7w3Zp7DLP/dvlGWjOwrjx49crifjQgggAACCCCAAAIIIIAAAggg4N8CBIT8u318VjpHAaG7t2+JGiq2Y9lcuX/3P5+VjYwRQAABBBBAAAEEEEAAAQQQQCBmAgSEYuYXZ89Oqg0VK169gdYL6KGEX7ko1y+clfPHDsqdm+Fxts5UDAEEEEAAAQQQQAABBBBAAIFgESAgFCwtTT0RQAABBBBAAAEEEEAAAQQQQACBxwIEhLgUEEAAAQQQQAABBBBAAAEEEEAAgSATICAUZA1OdRFAAAEEEEAAAQQQQAABBBBAAAECQlwDCCCAAAIIIIAAAggggAACCCCAQJAJEBAKsganuggggAACCCCAAAIIIIAAAggggAABIa4BBBBAAAEEEEAAAQQQQAABBBBAIMgECAgFWYNTXQQQQAABBBBAAAEEEEAAAQQQQICAENcAAggggAACCCCAAAIIIIAAAgggEGQCBISCrMGpLgIIIIAAAggggAACCCCAAAIIIEBAiGsAAQQQQAABBBBAAAEEEEAAAQQQCDIBAkJB1uBUFwEEEEAAAQQQQAABBBBAAAEEECAgxDWAAAIIIIAAAggggAACCCCAAAIIBJkAAaEga3CqiwACCCCAAAIIIIAAAggggAACCBAQ4hpAAAEEEEAAAQQQQAABBBBAAAEEgkyAgFCQNTjVRQABBBBAAAEEEEAAAQQQQAABBAgIcQ0ggAACCCCAAAIIIIAAAggggAACQSZAQCjIGpzqIoAAAggggAACCCCAAAIIIIAAAgSEuAYQQAABBBBAAAEEEEAAAQQQQACBIBMgIBRkDU51EUAAAQQQQAABBBBAAAEEEEAAAQJCXAMIIIAAAggggAACCCCAAAIIIIBAkAkQEAqyBqe6CCCAAAIIIIAAAggggAACCCCAAAEhrgEEYlEgdeoQyZotkzy4/0AOHToWizmTFQIIIIAAAggggAACCCCAAAJPBAgIPbFgCQGXBeInSCipM2aVK2dPunyOOrBGzYrSt18HuXL5mrxZtZVb53IwAggggEBwCISkzyx3bobL3ds3g6PC1BIBBBBAAAEEfCJAQMgn7GQaqAIZc+WVF6vWludKviZnD+2VRUM/dKsqBITc4uJgBBBAICgFStdtLS/XbCRHd/4h+zaskON/bQ0oh7wlymr/TlaUNJmzSUiGzBJP+yPK6glD5PD23wKqHhQWAQQQQACBuC5AQCiut7AX65c0UTLJn+UFOXbpkFy/FerFnHyfdOJkKaRMg7byYpVa8tRTT+kFOvbnZgJCvm8aSuBjgQqvvSIpUiST5cvW+7gkZI9A3BFQAaFSdVqYFVL/3vw6eYSEh14wt/njQvKQtFKz1xDJ+lzBCMVbPmaAHNy8JsJ2NiCAAAIIIICA7wQICPnOPqBzrl60vlQqVEOSJEwidx/ck5W7v5df9i4K6Do5K3yqDFmlfv+x2l85M9kccnjrelk66lObbVGtGD2EQi9flzeqtozqcPYj4LcCKgg0bcZQyZU7m17Gy5euSq8eX8rfB474bZkpGAKxLZAyUQIJv3vf7WxfqdlUyjZqZ3PevTu35aev+sjJfTtstvvTSsPPxku2/EUcFomAkEMWNiKAAAIIIOBTAQJCPuUPzMzTp8wkfd8ZoQWDkpoVOHzubxm1yr3giHmy1cLz2YpKnkz5JWNIFkmeOMRqj8hPO2fJqStHbbZ5eyUkXSZpoP2Cax0M+t/+P2X70jn6L+UPHz6MsggpUyaX6m+9JlWqlZVn8+aSxIkT6eecPX1Rdu3aJ6tW/KZ9748yHQ5AwBsCk6YMlrRpU+lJ/7Fpl4waOc2lbNq1byitWte1OXaF1kto4ICxNttYQSCYBNImTSQtXswhz6VNIVlTJpFUiRPKrXsP5OyNO3Lq+i2Zvfe0HL3q2rxAWfIUkBervSsFy1UzCe//d0cWDukpp//5y9zmLwvpc+SRFl/NMItz8fgR2btumRzb9YeEXfHvnk1moVlAAAEEEEAgyAQICAVZg3uiujnSPS19an5lk9S+U7tk/JrBNtvcWcmcKrs0LtNentWCQc4+I1f2kyPnDzjb7fHt8eMnkGbDvpN02XObaW+YOU52rVwgjx49MrdFtvB8wbzy5bAPJVPmdE4PU2l9P2+ljBs7U+7evef0OHYg4A2BFaumSvqMafSk16z+Q/p+PMKlbFq3qS9t3q9vc+zaNZulT2/bnw02B7ASEAIf93lf3nirgl7Wi+evSJ3aHQKi3L4u5JvPZpK2L+WWNEkSOi3Kfw8eyvcHzsiU3SedHmO/I89LpaV6p/6SKGkyfdfd27dkevcm2vCxi/aH+nS9UPk3pNoHffUyPHxwXya+X1tuhoX6tExkjgACCCCAAAKRCxAQityHvU4EetcYKrnTP6vvvRx+QSauHSanQ084OTryzSFJU4tKL23y9JEe2HveexJ2+1qkx3hy58s1m0i5Ru+bSf7162JZM8W1h2V1Utq0qWXBwq8lJFUKM43IFmbPWCJjv37y19XIjmUfAp4SiG5ASOX//Y/jtCFjWfWiqDfnfdp3pOzaSW83T7WNr9IZOvxDqfB6ST37C+cvS43qbX1VlIDJ96UsqWV45YIS//Ecc6rgD7Rgf+ide5IqUUJJFP8pm7p8s/O4Hhiy2RjJSuHXqkvV9z82jzi8RRuyPDrmvXLNBD2wULiCVsb2ljLeun5Vxrd92wOpkgQCCCCAAAIIeFOAgJA3deN42s9mel6r4SP598I/Mapp29d7SdHcloePBw8fyIHTu2Xf/3bKpTDrLuaP5NC5fTHKx52Tk4WklrbjFkqCxEn0066dOy0zereQe1p3fVc/n33eRaq9WV4/XPUC+m3Ddrl0IVTqNnhDbty4JdMm/yDNW9WWVKlS6seo4WfNGvWUI0dOuJoFxyEQY4GYBIRU5mpS6eTJk8qK5RtiXBYS8A8BAkLutUPi+PFkyttFJWcqyzDq+w8fycJ/zsrMPf+Tm/fua8GgeFI9byZpXSy3pEgYX0/8hjaMrN3yv+R02G2XM6vV60vJU7yMefz8/h3l9EH/GTqWt0Q5qdnT0lP4wb27MqrJ62ZZWUAAAQQQQAAB/xQgIOSf7RI0pUqaMJkMbTRdEmrDs9Rn3YGV8sO2qT6v/wuV35HKrXvq5XikBWrmftpezv3r+nA19Say9b/PlaRJE+tprNQelj/r/7UYk0qr3hRvVm0l2bJlkkVLvzXrO3nCApkyeYG5zgIC3haIaUDI2+Uj/dgX8LeAUP5XK8qd8DA54aeTKZfOkVYGv67+QGL5TP7zhMzed9pYNb9fyZZGhlYsqL2p0rJJBYym/uX60LHkIWmkxYhZklT7g4X67Fu3XH6Z+KUlMT/4f9a8haTRFxPMkoxtWU3+u3XDXGcBAQQQQAABBPxPgICQ/7VJUJWoaK5S0raiJfByX+sd1HdBO21Y2FWfG9TrO1pyFimul+PfHb9rb3Z50lXflcLZB3q6dvpctmzeHSEgpNKaMfsryV/gGT3ZdWu2yMe9h7uShaRJk0pefqWI5H46u4SH3ZT9+w/L3j0HXTrX2UElS2mTeufJKefPX5RtW/foPZmcHeuL7TlzZpWixZ6XLFkyyuXLV2Xrlt1y+vT5aBfF0/XNl+8ZKfJCPn3i8PDwm7L5j91y6dKVaJfPkydWqVpGntHaNvTKdf1aMd4G5i8BIXUdFy78nKTRhlqqHnUXL1zWrudDcu5c9OZJCcb7w1PXn78FhKppQ6UKavPTGBP6+1tgqFmRHPJe0Vz67Xruxn/SeNFOfbiYo/t3aMXnpWT2tPqu9Scuy4Df3PuZXerdllK63nv6+bfDr8u32rAsV15u4Kgsnt6WOmM2aT32yR80pnVpJKHnT3k6G9JDAAEEEEAAAQ8KEBDyIGZcTKp5uc5S4pknXdTt66imVv5m9SA5eHaP/S6X1tXr698qWk8/Vs1BNOinHi6d582D4sWLJ11nr5d48S1d+1dPGiZ71y51K8vCRfLJlOlDzHNaNuutv47bvoeQOqBc+RLy0kuF9WMPHz6uDb1Zb57naOGdWpWlUZMaki17ZkmQwFJG47gbWhBi4287ZPy4OS4HIlSZGjWpKVmzZTTfgKbSu68NdbikvUp8xbJ1MnnSk1/yjbysvzt1biYNm1jmi7innVe+dEPr3TbLP2jzzmTLkUnfpiYx7vfJaJv9aqVR4xrSsUtTfftd7ZXNLZr2ktZt60mZssW1XleWYXxqp3oQOvrvKRk3ZqZs3era0AlP1LdlqzrmhMr//XdPmjbsLr16t5XiJQpJgoSW3m6qfA8ePJB//j4mX4/+Tvb8FbOhlSo9dz8ZMqSTj/q0k5dLviCJtHlMjI8q157dB7U5q2bKsOG9JUMmywNqZJNKL185RdKmt7yNzEjH/rtBnS5y6tRZ+81O11X52mjtWq7CK1ogyPatguokFRg6e/qCrF69SSaMn+s0HesdwXB/ePL6GzCwi/YGRNuf8epnoOrlaHzU9eLoo96UGBsTTquAUCFtDh31UT02/S0w9Gm5fFLp6Qx6+bacDpWP1v6tLzv6XxstcNRECyCpz5HQG9J6mWs/t4y0MuXOJ02HPulFO6t3K7lw4rCx26ffCRMnlS4zfzXL4G9D2syCsYAAAggggAACpgABIZOCBUcCPd8aLHky5nO0y9w24MfOcuH6GXPd0UKiBIkla+qcEXa9XayBPJ/9RX37qSvHZN4fkyIcozacDj0u9x/ed7jP0xuTp0on7SctMZP9rmczufy/Y+a6Kwvp06eVFb9MMQ+dMul7mTxxvsMeQuZBLix8OayXlNfmbFEPbJF9Ll0M1d8WFVUQYsjQnvrksVGld2D/EenRdbBcvXrdYbadu7SQxs1q6PtUQKhMSUuQz9HBPy4eL9lzZtZ3/fH7LunedVCEwxprAarO3Zqb23ds2yclXrEEzcyNVgu3bt2WUV9Nk6VL1lptjbjoqfq2fK+OvP9BIzMDFVx5oWh+c91+Qc0Z1V8LfG36faf9Lq+tq95UX4/rJ1m0QJ+zz4njpyVZ0qSS8fFb8CILCK36ZZoWEErtLCl9e91aHV0OCKVIkUwmTxui9VqyPBxHmrC287f12+TDnkMjPSxY7g9PXn8Dv+gqVd8oF6mrs52h2tDXN7Shr97+VGrdQ16sXMsmG38KDA16rYCUyWl5k+SyI+flq83/2pTVeuWd/Fmk2yt59E1nwu9II603kTsfFajrOmutxE+YSD9t0ZcfyrHdm91JwqvHdp25xpx7b+nIT+Twtg1ezY/EEUAAAQQQQCBmAgSEYuYX58/uV3uMZEmd3Wk9b9+9Jd1nN3W639hRKPtL0qFKH2PV7e9Ja7+S3Se3uH1edE7IlPs57S+w08xTv2n9ltwOv2auu7qwZv0sSRmSXD/83JmL0rnTQHnxxQLSt18HMeYQcjUtdVybdg30XjLW56ihYqGh1yWx1vsjfca0Nj2GDh86IU0bdbc+3Gb5vTb1pO37DWy23b59R/7T3ooTX5sE1Si7ccCvv2yST/qMNFZtvr0dEDIyu3Y1XO/5lCRxYsmSNYNNb5yTJ85IvXc7GYdG+PZkfe0fyI3M1HAsNZQtaRItAJo9o+b4pAfXwX+OSfMmluGRxvHe/B6iBQ9fr1jKJosL5y7L9bBwCQlJKZm0IJB1LxB1YGwGhD7VJsR9q8brNuW7e/eenNfKqHq+ZdR6LSVI8KS3lTpw3NezZNaMxTbnGCvBdH948voLhIBQAi34UfytBlL49RqSKqMlmGy0uxkYWjZXTuzdbmyO1W+bgNDhc/LVlqNO86+pBYS6xyAgpBJu+80iCUlvCfSunjhU9q5b5jS/2N7RcdrPkiS55c2aS7Sh1ke0Idd8EEAAAQQQQMB/BQgI+W/b+EXJkiRMIvHjWf4SaRSoWZkPpEiuEvrqmaun5IvF3YxdTr8rFqohdV5+0uPD6YFOdnyxuLucuer65JtOknFpc65CxaXup6Mtx2pDVkY0LK8NXXno0rnWB7Vr31Bata5rbvrvv7ty5PBJKVQ4b7QCQtYBJvXgvOyntTJs6JMeVeptTx90bGq+BlxlPGXiAofDvVTvDDWZtfGGM5Xe8iXrZOiXE83yNm9RW+v1U9M8Rg0h6/vxCNmg9dSw/8RGQGj1z7/L0CETzXmNKlV+VTp1bi6ZtcCQ8VHDiqZPXWismt+erq/9A7ka2rRk0a8yZPAEM8/qb1WQjp2a2fSqUb2Efl610TzGWwvPF8wrk6YOkoSPh6/dunVHZn63yMZGXZvNWtSyGYIXWUAouzZE0b4nWWVtXiLroKI7PYQW/DhWcufOphOoHlQzpy+SlSt+M4c6qnmiatepqg+PNIZG/q69qa9nD8eT6AbT/eHJ60/NtZQypSVwbVyParhmeW0Yn/pcPH9FOrTvb+yy+VZDNmMyh5dNYi6uvFyjsbxQSfu5lCmrzRm+DAxFFhAK0YL1YdrPV+PjiYBQsy+nScann9OT3DjnW9m+dI6RvE+/1RxC73093ww0z9NexnDm8D6flonMEUAAAQQQQCByAQJCkfuw14HARzWGSa70li7v+07tlPFrnsyV4+BwfdOreV+XMvmr2OwOSZpa0qV48jD/PzUs7IHjYWGjVvaTew/u2pzvrZVchUtI3U9G6cmrh4wRDaM3nEIFIeYuGKP3xLAv623tAV31ttmmzXujhlhF9Xmzennpr831YXxWLFsvAweMNVbN76LFCsrIMX0lWTLLPDvOHqAjpKfNWzSwf8T0GjZ6W7p0b2H+gr9w/ioZPnyymZ+x4O2AkBqy1qp5byM787uaNtSl32edzJ44zgIanq6v/QP5zu37tYfmfma5jAXl17VHS2NV5sxcKl+P+c5c99aCmoNJtZvxcdZuffq2l5q1KxuHRdpDyDzIaqGZFjTs0KmJucWdgJB1ACey3mf9BnSS9OnS6HnsP3BEJk2YZ+ZnLERo3zh+f3j7+vO3SaWNdrb+LvFWQz0wlDqLbQ9WXwSGHAWEUidJKINeLyAF04fIyes3ZbjWa2j/xTDxRECoyaDJkvnZAjrHxrkTZPuS2dY0Xl9WgZ8EiRJb8tGmmkqcLKWk1drh5ZpNJE1WyxDQK6dPync9m+jzgHm9QGSAAAIIIIAAAtEWICAUbbrgPXGY9pr4lEksE8DG5DXxRXKUkPaVP9IhH2o9cLrMaBhr8wRF1nqeCgipPFQvh3HjB5hz5tjne/niVZkze4ks+vEXuXPnP/vd5nqvD9tInfpv6Ovqr/I13mxn9qQwD3q88N2s4VLgeUvA7t8jJ6Vxg4g9uLp2bSkNm1omgY4qvaUrJmlBrfR66s7m/PF2QGjCN1rPn2kRe/6oQlnPSaTm8mnbOuLQRE/X1/6BXM1fNH/e8sctYPu1buMcSZ48qb5x3VrtLXIfuvYWOdtU3Fvr/VE7qV23qn6SmhC4etXWDud/Uten6ikWL55lAmFnATVnucckIGQ9J9E/fx/VJw53lk9U24Pt/vD29RcIASHjmij+Zn15ofI7ZiDC2K4CQ/s3rIyV17I7CgjVL5hNPij+tFEcWX3sogz6/XCcCAhZB6TMClotXDh6UJaM/FTCLp+z2soiAggggAACCPijAAEhf2wVPy5TmmTpZHADNazI8gA5b8sk2fjPL9EqceXC70jtEpb5h85fPyuf/eh8/pdoZRDNkzwZEFJFUD2F6tZ7U+rVr+70LU1/H/hXunQcKGFhNxyWWk2W+9rj+WCuavPUVKvS0uFxamPJki+aAZxz5y7J9m17IhyrJld+vdKr+varoWFSrXKLCMcYG2bM/kryF3hGX3U2D463A0LdOn+hvcL9T6NINt9qYmL1qnf1OXb0f9Kw3pOeVMaBnq6v/QN5m1Z9tFekHzSys/levHSC/gY3tdFZQM3mBA+sWM8fFNX1snrdDHNYYGwGhGbNHSnP5cut11YFJbf8sVsbMrZe1vy62W2BYLs/vH39BVJAyLhYilV7V+sxVEvS5bBcU2r7mUP7ZF6/9sYhXvt2FBBqUji7tCmW28zTeMV8XOghFFVAaNP8SbJ18Uyz7iwggAACCCCAgP8KEBDy37bxy5IVzVVK2lbsaZbtq+V95ehFxw/C5kFOFpqV7SSl8lbQ9+45uV0mrB3q5MjY3ezpgJBRejWfS+u29aVFq3eNTTbfKij0Xove2qvUH9lsVyuefkBzJ72JkwfJi8UK6GU6cviENNFesW7/8XZAqFmjnnLo0DH7bPX1b779TIq/bHkD2bFjWkCobsSAkKfra/9AXq1SS4c9cFQBrXswxVZAyJ36rlg1VZuQ3DIkKzYDQvZzbCkrNReTmpj7ypWroibAPnrslKjhkVG9yt6d+qp8ovq4k54v7g9vX3/u1D8qy9jcn1sb7luheWdJn8PSM8eXAaFMyRPLmGpFJEuKxPocQl9sPCzbzlyNEz2EyjZ8X7Lls/zMVe2bJHmIhGTIJImSJjObe/vSubJxznhznQUEEEAAAQQQ8E8BAkL+2S5+W6o3XqwrNbRXxavPPW2+n+6zGkd7mFfvGkMld/pn9bRW7VkkS3f5x8SY3goIqYrWqFlRf8vYNa1Xzgxtkt/2HRtLIm3SUePziTZp86+r/zBWzW9PP6C5k54vHnjtXztPQMi8FFxacKd9fRUQUhUZObqvvFqmmDlHlaPKqcnYd+/6W0aNnCYnjp92dEjQBUwJCNleBnmKlZbi1etL9oJFba4lXwaEjBIWzpRKjly5IXfuP9A3xYUeQkbdrL/jJ0goZRq0lRJvN9Q3P7h3TyZ98K7cDAu1PoxlBBBAAAEEEPAzAQJCftYg/l6c5uU6SclnK+jFvBR+Xvr90CFaRX5KG3I2sukcSZIwsX7+9A2jZfsx/3g9bbZ8L0jDgd+Y9Rrd5DW5r/1y64mPERAyXjufK3d2mTxtkDlkRw07UsOP7D/uPODbn+to3Z30CAhF7BHl7QdyR23mzjZ32teXASFVJ/U2OzV88Zk8OWyCo/b1PX3qvDRv2tN8y5z1fnfqa32es2V30vPF/eHt68+d+jszjI3teUuUk5e0QFC2/EVsAkH6xNIHdssO7VX0x/ds83pRHA0Zc5apJwJCLb6arfWCyq1nsf67r2XXqu+dZRer2xMkTCSdpv8s8bVv9flxcI9Y8Y/VSpIZAggggAACcUyAgFAca1BvV6f7m19I3syW4UOHzu6X0T87fh1xVOVImzyDDKo/wTxs8E89Rb1lzB8+KVKnl/cn/mQWZWL7dyU89IK5HpMF+4CQSku9Ran626/pyYaH3ZRKr1nmVbLOx9MPaO6k54sHXnoIWbe++8vutK+vA0JG7dQE16VeLSpPP51DsufILAUL5zUDpcYxSxevkUFfRByG4k59jbQi+3YnPV/cH8EeEMpX6nV56Y16kjVfIZtmjO1AkJF5bAeEOkxeLklDUuvZLx7WW47uitir1ChbbH93nLpKkqRIqWe7bNSncmjr+tguAvkhgAACCCCAgBsCBITcwOJQkS/qTTBfFf/H4bUye1PEhzNXnJ7PVlQ6Vf1EP1TNG9J1ZiO5G0uvlXelfF1nrpEEiS2vbp+vBWxO/7PbldPMYypWKiWZM2fU13ds3yOHtbl31MdRQEgdO3hoL32/+l/F8k0i9IIYrE0CXdGYBDqKSaXVq+czZkyrp3f+/GXZ89c/ZtrGwuAve0jFyqX11agmHbZ+a9mhg8elWeMeRjLmd4dOTaVZi1r6upog+M0q7zmdU2fZismSMXM6/dg/Nu6U7t0Gm+kYC/YBoUgnlZ4yWIoUza+f6mxSaU/X19sP5IZDdL+tJ1lWc/K8Eckk5KvXaJNKp7E8wMXmHEJR1U1Nxt6k2TvSvOW75lvQnL2NLNjuD29ff+4ExKJqR0/uL1CmihYIqmu+ct1I21eBICP/AeXzy2u5LW9iNCaPNvbZfzcpok02XTS3vvnU9dvS9Kdd9odEup4oaXK9F85TT1le7DC9W2O5cvZkpOfE1k5Vpm5zNki8+PH1LBd9+aEc2+3+JPGxVV7yQQABBBBAAAHtVVH5i70ScQbbAJBJq01gqD6hlzzTcyMAquzzIiZJmES+ajxT4sez/LK3eOdsWb13cbTKVbFQDanzcnP93MvhF+TTHz6IVjreOqn5sO8kQy7L/EbbFs+S3+erN6u5/rF+89XM7xbLN2Nn6Sc7CgiVK19Cho/8WN9/9+49KV+6oTax9EObzNx5bfr0mcPk+YKWsqs5V+rX6WyTllqxngQ6ytfOL9deO5/F8rCzedOf0q3LFxHSq/lOJenz6ZM27Nd3lPzy8+8RjlMbNm6eL4kTW4YU/PTjrzJk8LcRjrMPCH07bo58N/3HCMepDQsXfSM5cmXR9+35U3vtfJuIQ+48XV9vP5A7rKgbGz/6+H2pVaeKfsZ9be6SqhWbRwgyqp0ZMqSTpSsnagGXePqx/hQQ0guk/c/6bWQXz1+Rt6u3MXaZ38F2f3j7+vO3gNCzxctKqXdbSqZnnjPbXC34OhBkFKat9jaxxtpbxdTn39Ab8t6yv4xdEb4/KZtPKj+TQd++52KYdF61N8IxkW147uXyUqPHIP0Q9ceU0U1elwf3PTOkObJ8XdmXNGVq6TBluXno7I/byPljEf8gYR7AAgIIIIAAAgj4XICAkM+bIHAK8FyWwtLtjQFmgcevHiL7Tu80191ZaFLmAyn9XEX9lH2ndsn4NYPdOd3rx77dZaDke/V1PZ+rZ/8n3/VsKg+0SbRd/fT6sI3Uqf+GfvgF7SG2Qd1OcuvWHYc9hKwfvg4fOi5NG0XsgVP9rQrS77MngZ3lS9fJ55+Ni1CcF14sIKPHfiLJkiXV923RAjhdHQRw7NNbtmStfGE1b5KRcL361aV7r1bm/BwL56+S4cMnG7vNbzXcZ9HS8WZgYdNvO6RH9yHmfmPBOjCjto0YNlW+X7DC2G1+2weE9u09JK1bWoJm5kHaQuUqpWXA510lQQJLkNJZQMPT9fX2A7l1HaOzbO+3YO4KGTliaoSken/UTmrXrWpud+ZnHmC30Eyb/6dDpybm1rq1Okb5RjB1sAqMtm5TX/uThOXUoUMmyh+bHPeUGD3mEymlTTytPhe0Hm81qre1nGT1f/v2jev3h7evv88Hd5MqVcvqwipI3aJJLzl69JSVeOwuVnv/Yyn0WnUzU38JBBkFqvxMRvmkrCVYpf7C9un6f+T3U1eM3eZ3jpCkMumtFyVZQsvPq5X/XpChfxwx97uyUKPb5/JcScsQ42vnz8qULvVcOS1Wjkmf4xlp8dVMMy9PDrc2E2UBAQQQQAABBDwqQEDIo5xxO7HXCr4l9V5pqVdS/WWy19xWcvO/sGhVutfbQ+SZDJZfoFfvWyKLdzz5JTJaCXr4pBzPF5P6/b82U3W3l1DZciXkq1FPAhjqde2zZiyW5MmTSe8+7URNKt2hfX/tobieVNKCGsbnu2k/yrffzDFWze80aVLJD4vGScqQ5Po29ZD208LVMsLqIb9M2eLSqWtzyZ07m3nelEnfy+SJ8811Y0Glt+CHr82hQupNTku03jrW6TVqXEMbBlZb0qQN0U+7f/++9P1ohGxYv81Ixubb+vXqqlfKD/NXyuhR081j1PAf9SCrhgKpz20tQNascU+HAQT7gIa63lYu3yADB4w10ytf4WXp2q2VZM1uGZqndkwYP1emT11oHmMseLq+3n4gN8od3e9ChfPJhMmfS8KECfQkbt68LdOm/CCzZz6ZG6tp81rSqnVdLXhoGRqpDoytgJBqu2EjPjKrpwKhUyd/H+HaUhNOt25X35xsevfOv+X9dpahpubJ2kKw3R/evv7atW+oXxuG8Z87DsicOUtk0+/R+wOAkU50v42AkL8Fgoz6pE+WWL6rWVRSJrLcb5dv35Xhm/+VradDjUMkT5rk8nGZvJI3bQpzW9df9snu89fN9agW1CTaNXs++ePJb7O+kR3L50V1Wqztz1WouNT9dLSZ36jGr/lN7yWzUCwggAACCCCAgI0AASEbDlaUQK+3v9SCNZYhR7Yij/+cb26MONrw2KUjMnzZk0CIeajdwsgmsyRpIktgYMbGsbL13w12R/h+tV7f0ZKzSHG9ICogMb9/BzlzaK/LBbOex8XRSQ8fPjLnRlH7z/zvgjSs30VUcMbRp03b+vrDsfW+a1fDJTT0miTWXl2fKXN6SfA4AKCOUcPF3mvxkcOhQmq/CgaoBz/rz40bt+Sm9l/iRIn0YJExT4U6JqpggRo2poJd8R/PH6HOuXQxVJtLKExSpkwumbVhZ9bpzZu9zCZgpI43PvYBIRVgUr2AVCAtPPymdtgjyZotkxkoUOedPHFG6r3byUgiwrcn6+vtB/IIhY/GhqFffSgVXitpnqmu4bOnL8rNW7cluRYEypo9k017qAOdtXFU17KZiYMFFbwsW0rrDWT3Wb5qimR4PNeVsSss7IZ+zcSPH09CQlJK2nSpjF3696QJ8/XAkc3GxyvBdH94+/or8kJ+GTOun02w0JH5r79skk/6jHS0y6PbytRvK1nzFoy1t4ZFp/C1C2SRLi/nMU/VfrzLoSvaz2ctOJQicULJly6FJNGua+Oz9PA5GbHlqLEa5XfykLTSYqT272ZKyz1x8+oVmdy5nty/+1+U58bWAQVKV5bqnfvr2d25eUPGtaoWW1mTDwIIIIAAAghEU4CAUDTh4vJpXzaYIqmSpYlWFf8+/ZeMXf15pOemSpZWvmzwZNjRl0t7y8nL/0Z6ji92Znm2oDQeNNHM+vrFczLro5aiftF15aN6LXyhvXa3+MuFojxczY3Sq8eXcvBg5A8IX2m9Kspocw5ZB1YcJa4mEu7Xd6Ts2LHP0W5zmxquVk7rrWHMIWPusFtQk/mqiZ2vXo38r9n9tWFt1d4sF2V6O7fv03tI2WVjrtoHhNQQNFVvZx/V22jUiGmy5Kc1zg7Rt3uqvt5+II+0Ei7uzJkzq4wdP0APxDk75czpC5JEm88pXQbL/e4sIGQ9rNFZWs6237t3X8qUjDisRQ33U/NOGcMbnZ1vbN+2ZY907viZserwO1juj9i4/jp3bi4Nm74d6b38x++7pHtXy3w2DhskyDZ+VPo5qfZsRmMkpNPaLz50VkZvPeZ0v/0O9fP5nV7aH2qKvWruWjN1pPy1epG57g8LBUpX0gJCA/Si3LkRLuPeswyb9oeyUQYEEEAAAQQQcCxAQMixS9BuTRAvgYxqNlcSPJ442l2I3/75WeZveRLscXR+/qxFpEs1y18RH2k9PbrPaiJ37t1xdKjPt1Vp21uKVHzbLEf4lYvyy4Qv5cTe7ea2yBZU4Eb1nHm3bjV5Nm+uCA9X16+Hy8plG/QJk69dC4ssKXNf3XpvSMNGb0sWrYdMvHi2vbZu374jv2/cIePHzpFz5y6a50S2UPvdqo/Ty2gOMVLHP3jwQEIvX5fly9fpQ7EiS8N63zu1KkvTZrX0Hij25bt88aosXLjK4bAu6zTsA0JqYmzVA6RMueKSJEli81DV6+X4sdMydswM2fzHn+b2yBY8UV/78lWr1NJpsMx6KF1sP0CruZ0+/KitvFyyiNbDyjKcRdmo3mkH9h/R3QZqczBlzppBJ1u1YoMM6Pd1BD7rOWUi7Ixig7omK5Rp5PCokqWKSoMG1aVYiULmROPWB6r2vXQhVFau3OBwKKX1scZyMN4f3rr+atWuInW0nzcZM6XTe/nZB6Jj+3o22tifv1/NkVbaFMsluVMlF7sfz3Luxn+y4oj2h4W9p12uQrqsuaTaB30lS97nzXPOHflb5g/o4HfDsbIXeFEaDHgyt91Pwz+Wf3f+bpabBQQQQAABBBDwPwECQv7XJnG+RDVfaiLVXqil1/PyjYvy6fft/bbO6gGofJMOUvytBjZlvHTyX9m+dK78s2m1zfbIVtRcLWpOlBbaPDrhYTelfdtP5fjx/4kaDhWdT/bsmeWl4oW0oWIZ5K42zOzgwWOydcvu6CRlnvN6xVKSWUvv+vUw2b5tn1y6FHFiVPPgKBZUD5USLxeR9Frvk+vXwmX3n3/LoUOu/VXcPuDSrFFP/dw8eXJKsZcK6mW8cuWabNv6V4wmu/VkfaPgcLr71dLFpGnTWlH2+nKWwO6/DsjEbyOfR0T1ViurBdPSpUsj97VA38G//42y95iz/Ly1XQWHVPuq++SB9pa981pAc++eQ3L69PloZRmX749ogXBSrAok04bv5k2XXEK0eYVUYOh8+H9ySHsDmaufbPlekNL1WkmOgsVsfjb878BuWTy8t9y9fcvVpGLtuOQhaaTNuB8kQeIn85JdPnVcf/V82KXzcmjLWrl9w7U/fMRaockIAQQQQACBIBcgIBTkF0BsVz954pTyRb0Jol5hrz7r/14l32+dEtvFcDu/Em83kvKNtcCVFiAyPsf+3CyLhn5orLr07ei18y6dGGQHOQsIxUUG+wl83a3jhnVbpXevYe6exvEIIODHAqXrtpZSdVrYlPDYrs2ydNQncv+e43nmbA720UqR19+WKu16O8x9+ZgBcnBz5MN6HZ7IRgQQQAABBBDwmgABIa/RkrASyJ42txb8SSrxtaFoz2UpJMWe1nqgpHryFqxhy/rI8UuHAgJLdYd/qVodyVOirMTTJk4mIOS9ZiMg5LrturVb5OMPh7t+AkcigIDfCxgBIX1Y7J9bZNeqH+Tkvh1+X25VwOfLVpMy9VpLSMbMNuUlIGTDwQoCCCCAAAJ+IUBAyC+aIe4WYnD9SZImeTqHFfxl70/y085ZDvf588YUqdNLkUo19G7xG+eMd6uo9BByjSuYAkLqFfGFCz/nGoyDo9RQwd1/HnCwh00IIBCoAuqNXWreoD9XLpRrF88EXDXiJ0go6sUMqTNllZAMmUWtH9y8Vi6d8r8XSAQcLgVGAAEEEEDAgwIEhDyISVK2AmpY2Kimc2w3amv3HtyTtQeWy9Jdc0T99TOYPjlzZZWKFV8VNYH04kWuzz8UTEaqrsEUEAq2tqW+CCCAAAIIIIAAAggg4B8CBIT8ox3iZClCkqaR1q/10Ov28NFDuRJ+QS6GnZPtRzfK1ZuX42SdqZRnBKpULSPtP2hiJtaz++AYTR5tJsQCAggggAACCCCAAAIIIICALkBAiAsBAQQQQAABBBBAAAEEEEAAAQQQCDIBAkJB1uBUFwEEEEAAAQQQQAABBBBAAAEEECAgxDWAAAIIIIAAAggggAACCCCAAAIIBJkAAaEga3CqiwACCCCAAAIIIIAAAggggAACCBAQ4hpAAAEEEEAAAQQQQAABBBBAAAEEgkyAgFCQNTjVRQABBBBAAAEEEEAAAQQQQAABBAgIcQ0ggAACCCCAAAIIIIAAAggggAACQSZAQCjIGpzqIoAAAggggAACCCCAAAIIIIAAAgSEgvQaSJshk17z0EsXglSAaiOAAAIIIIAAAggggAACCCAQvAIEhIK07QkIBWnDU20EEEAAAQQQQAABBBBAAAEENAECQkF6GRAQCtKGp9oIIIAAAggggAACCCCAAAIIaAIEhIL0MiAgFKQNT7URQAABBBBAAAEEEEAAAQQQ0AQICAXpZUBAKEgbnmojgAACCCCAAAIIIIAAAgggoAkQEArSy4CAUJA2PNVGAAEEEEAAAQQQQAABBBBAQBMgIBSklwEBoSBteKqNAAIIIIAAAggggAACCCCAgCZAQChILwMCQkHa8FQbAQQQQAABBBBAAAEEEEAAAU2AgFCQXgYEhIK04ak2AggggAACCCCAAAIIIIAAApoAAaEgvQwICAVpw1NtBBBAAAEEEEAAAQQQQAABBDQBAkJBehkQEArShqfaCCCAAAIIIIAAAggggAACCGgCBISC9DIgIOSbhk+dOkSyZsskD+4/kEOHjvmmEOSKgJ8KcH/4acNQLAQQQAABBBBAAIE4KUBAKE42a9SVIiAUtZE3jqhRs6L07ddBrly+Jm9WbeWNLEgTgYAV4P4I2Kaj4AgggAACCCCAAAIBKEBAKAAbzRNFJiDkCUX30+CB130zzggeAe6P4GlraooAAggggAACCCDgewECQr5vA5+UgICQT9iFB17fuJNrYAhwfwRGO1FK1wUqvPaKpEiRTJYvW+/6SRyJAAIIIIAAAgjEkgABoViC9rdsCAj5pkWMB97Qy9fljaotfVMIckXATwW4P/y0YSiW2wIqCDRtxlDJlTubfu7lS1elV48v5e8DR9xOixMQQAABBBBAAAFvCRAQ8pasn6dLQCj2GihlyuRS/a3XpEq1svJs3lySOHEiPfOzpy/Krl37ZNWK37Tv/bFXoCDKqVbtKtK4Sc0oazxs6CTZvm1PlMdxgOcFuD88b0qKnhOYNGWwpE2bSk/wj027ZNTIaS4l3q59Q2nVuq7NsSu0XkIDB4y12cYKAggggAACCCDgSwECQr7U92HeBIRiB//5gnnly2EfSqbM6Zxm+OjRI/l+3koZN3am3L17z+lx1js+7vO+vPFWBX3TxfNXpE7tDta7fb7sL+Vr1qK2dOjUJEqP3j2Hyob126I8jgM8K+Ct+8OzpSS1YBZYsWqqpM+YRidYs/oP6fvxCJc4WrepL23er29z7No1m6VP769strESeAL+8u9b4MlRYgQQQAABfxQgIOSPrRILZSIg5H3ktGlTy4KFX0tIqhQuZTZ7xhIZ+/UMl44dOvxDqfB6Sf3YC+cvS43qbV06L7YO8pfyERCKrRZ3Px9v3h/ul4YzEHAsEN2AkErt+x/HaUPGsuoJqzdLftp3pOzaSW9Qx9KBs9Vf/n0LHDFKigACCCDgzwIEhPy5dbxYNgJCXsR9nPRnn3eRam+W19dUL6DfNmyXSxdCpW6DN+TGjVsybfIP0rxVbUmVKqV+zMOHD6VZo55y5MiJxyk4//L3X0j9pXwvvFhAXin5YgTIdFqw7p13K5vb6SFkUsTagjfvj1irBBnFeYGYBIQUjppUOnnypLJi+YY4bxUsFfSXf9+CxZt6IoAAAgh4V4CAkHd9/TZ1AkLebZqnnnpK1v8+V5ImTaxntFJ7GPis/9cR3jKWLVsmWbT0W7MwkycskCmTF5jrzhb8/RdSfy/fW2+/Jp8O6GTyEhAyKWJlwdv3R6xUgkyCQiCmAaGgQAqySvr7v29B1hxUFwEEEEAghgIEhGIIGKinExDybsvZB3q6dvpctmzeHSEgpEoxY/ZXkr/AM3qB1q3ZIh/3Hh5l4bz1C2nJUkUlT56ccv78Rdm2dY/ekynKwjg4wFvle7V0MSlY6Dm5feu2/PPP0WgPvyAg5KDRYnGTt+8PVZU0aVLJy68UkdxPZ5fwsJuyf/9h2bvnYIxq6an7I0aFiOTknDmzStFiz0uWLBnl8uWrsnXLbjl9+nwkZ0S+y9P1zZfvGSnyQj59Yv3w8Juy+Y/dcunSlcgLEUt7q1QtI89oP/tCr1zXrxXjbWD+EhBS13Hhws9JGq13o+pxevHCZe16PiTnzl2MllAw3h+euv689e9bptz5JGehYnLp1FE5sXd7tNqVkxBAAAEEEHBXgICQu2Jx5HgCQt5tyMJF8smU6UPMTFo2662/bth4rbaaT+LNqq30/eXKl5CXXiqsLx8+fFwbWrDePE8tDBjYRXtDWRmbbfHixRPVy8L4PHjwwFi0+VZvMotqwmlVpkbam7iyZstovgFNJXL/3n3tYe2qrFi2TiZPct5rydvlq/lOJWnQ6G3JnCW9JEuW1KZ+t7TA0KaNO2X8uDluPRgRELJhjPUVT94f9oV/p1Zl7XquIdmyZ5YECeLb7L6hBSE2/rZDv15cDUTE9P5QBejUuZk0bPK2XpZ72n1VvnRDm3JZr/ygzTuTLUcmfZOaxLjfJ6Otd+vLjRrXkI5dmurLd+/elxZNe0nrtvWkTNniWq/EJObxahjq0X9PybgxM2Xr1r/M7ZEteKK+LVvVMSdU/u+/e9K0YXfp1butFC9RSBIkTGBmr35u/fP3Mfl69Hey569/zO2xtZAhQzr5qE87ebnkC5IoUUIzW1WuPbsPanO6zZRhw3tLhkxp9X2RTSq9fOUUSZve8jYyMyG7hQZ1usipU2fttjpfVeVro7VruQqvaIGgkAgHqsDQ2dMXZPXqTTJh/NwI+x1tCIb7w5PXn7f/fTPa6O0un0neVypIvPiWn1kXjh6Uef0/0P4dvmscwjcCCCCAAAJeESAg5BVW/0+UgJB32yh9+rSy4pcpZiZTJn0vkyfOd9hDyDzIycLAL7pK1TfKOdkb+eZQLfD0xuPAk6MjhwztqU9OrQJMkX0O7D8iPboOlqtXr0c4zJvl+6R/R3lDq7v1Q2SEAmgbrmiBq549vtSDbo7222+L6wGh5CFpJXGy5PbVjnL99o3rcvtGWJTHxfQAT94f1mX5clgvKa/N2RLV9XzpYqj+tqioghCeuD9U+Tp3aSGNm9XQi6oCQmVK1rMuts3yj4vHS/acmfVtf/y+S7p3HWSzX6001gK4nbs1N7fv2LZPSrxiCSqbG60WVOB01FfTZOmStVZbIy56qr4t36sj73/QyMxABVdeKJrfXLdfUHOq9dcCX5t+32m/y2vrqjfV1+P6SRYtEO7sc+L4aUmWNKlkfPyWyMgCQqt+maYFhFI7S0rfXrdWR5cDQilSJJPJ04ZovZZyRJqmsfM37S2JH2pvS4zsEyz3hyevP2/++2a0Vean80vjQRPlqcfBIGP72mmjZPcvPxqrfCOAAAIIIOAVAQJCXmH1/0QJCHm/jdasnyUpQywP5efOXJTOnQbKi9okx337dRDrHkJRlcRbv5C+16aetH2/gU32t2/fkf/u3JP48eOZZTcO+PWXTfJJn5HGqvntrfJ16dpCGjW1PEQbmd2/f1/Onbmk945SPYasA0UqaNWqeW/j0Ei/43pAqNr7H0uh16pHauBo56m9O+X7QV0d7fL4Nk/dH0bB2rRroPeSMdbVtxoqFhp6XRJrvT/SZ0xr02Po8KET0rRRd+vDbZY9dX+oRL0dEDIKfu1quD4EK0nixJIlawab++PkiTNS791OxqERvj1ZX/sHciMzNRxLDWVLmiSxZM2eUfs586QH18F/jknzJj2NQ73+PUQLHr5esZRNPhfOXZbrYeESEpJSMmlBIOtemOrA2AwIfaoFw9+q8bpN+e7evSfntTKqnm8ZtV5LCRI86W2lDhz39SyZNWOxzTnGSjDdH568/rz175vRLur7xcq1pFLrHtab9OW9a5fI6klRDyGPcCIbEEAAAQQQcEOAgJAbWHHpUAJC3m/Ndu0bSqvWdc2M/vvvrhw5fFIKFc7rVkBIzfWQMqVtbw81XKS8NoxAfS6evyId2vc387FeUENGHM0hov76rCazNt5wph40li9ZJ0O/nGie3rxFba1XQ03zGDWErO/HI2SD9pdo6483yqfS/2HRN5IzVxY9KxWo+n7+Slm+dJ35F/byFV6WLt1aakODLMNr1IH9+o6SX37+XT8nsv8REHKsc+bQPpnXr73jnR7e6qn7wyiWdYBJXc/Lflorw4ZOMnbrb3v6oGNT8zXgaseUiQscDof05P2h8omNgNBq7bofOmSiOe9XpcqvakPVmktmLTBkfNSwoulTFxqr5ren62v/QK6GL1aL3QAANw5JREFUNi1Z9KsMGTzBzLP6WxWkY6dmNr1qVC+hn1dtNI/x1sLzBfPKpKmDJOHj4Wu3bt2Rmd8tsrFRP7ubtahlMwQvsoBQdm2Ion3PtMravETWQXd3eggt+HGs5M6dTSdQPahmTl8kK1f8Zs65pOaJql2nqj480hga+bv2JkvVU9LRJ5juD09ef9769826jVRvzjbjfpQkyVOYm9U98702XPx/f/9pbmMBAQQQQAABbwgQEPKGagCkSUDI+42kHrLmLhij/6XZPrfb2gOI6m2zTZvXQw0hcfcT00kt36xeXvprv2waHzVv0cD+Y41V87uhNndPl+4tzL+UL5y/SoYPn2zud7YQ0/JVrlJavhjy5C+ms777ScaNnRkhO/VKZ/WXfuNBbN7sZTJ61PQIx9lviOsBoXKN2kvh1y1z1tjXPbL1c0cOyKKhvSI7xGP7PHl/RLiel2nX84CI13PRYgVl5Ji+2lxUlnl2nD1AR0gvhveHtwNCznrHVdOGW/b7rJPZE8dZQMPT9bV/IN+5fb8WtO4X4dpRP1+69mhpbp8zc6l8PeY7c91bC2oOJvVzzfg4+7nWp297qVm7snFYpD2EzIOsFpppQfUOnZqYW9wJCFkHcJz1zlQJ99Pelpg+XRo9j/0HjsikCfPM/IyFCO0bx+8Pb19/Mf33zWgX6+9C5d/QenW+Jemy5ZIboZfl0NZ1snVxxH/zrM9hGQEEEEAAAU8IEBDyhGIApkFAKHYaTf0Vd9z4AeacIPa5Xr54VebMXiKLfvxF7tz5z3630/WY/kLatWtLadjUEjBQvYhqvNnO/MuzfaZLV0zSglrp9c3O5jSxPyem5VN/lc2YMZ2Z7KFDx8xl+4VVq6dL2nSWyVx/26DNo9Ej8nk01Pn+GhB6puirkjRliH0VI6w/0IbOHdy8JsL2QNvgqfuj14dtpE79N/TqR3U9fzdruBR4Po9+7L9HTkrjBt0isHn6/vB2QGjCN1rPn2kRe/6oilnPSaTm8mnbuo/X62v/QK7mL5o/b3mEfNWGdRvnSPLkSfV969Zqb1n80PtDZHp/1E5q162q56kmkK5etbXD+dHU9al6UsaLZ5nA31lATU/Iwf9iEhCynpPon7+P6hOHO8jCpU3Bdn94+/qL6b9vLjUaByGAAAIIIBBLAgSEYgna37IhIBR7LaJ6QtSt96bUq1/d6Vto/j7wr3TpOFDCwm64VLCY/kKqJo99vdKrel5XQ8OkWuUWTvOdMfsryV/gGX2/q/N8xLR8TgvjYIf1A6+rASt/DQg1HTJVMj2Tz0EtbTf9d+umjG1peaC13RN4a564P9Rkua89ng/mqjZPTbUqT3qd2IuULPmiGeA8d+6SbN+2x/4Q8fT94e2AULfOX2ivcHc8tERNTKxe9a4+x47+TxrWe9Iz0Ki4p+tr/0DeplUf7RXpB43sbL4XL52gv+FQbXT1/rVJIBor1vMHRXW9rF43wxw2G5sBoVlzR8pz+XLrtVNBzi1/7NaGjK2XNb9udrvGwXZ/ePv6i81/39xubE5AAAEEEEDATQECQm6CxZXDCQjFfkuq+Spat60vLVq96zBzFRR6r0VvefjwkcP91htj+gupO+dPnDxIXixWQM/+yOET0kR7hXRUH3fSjyotNdltzlxZJWP6dJIoyZNXQxvnqd4exuS0rj5QEhAy9PznOyb3hyevNyXiTnqu3B/eDgg1a9RTnPWi++bbz6T4y4X1hj52TAsI1Y0YEPJ0fe0fyKtVaumwB44qVHQCunplYvA/d+q7YtVUbUJyy5Cs2AwI2c+xpaqr5pVRE3NfuXJV1ATYR4+dkhXa8K+oXmXvTn1dYXUnPV/cH96+/typvyueHIMAAggggIAvBQgI+VLfh3kTEPINfo2aFfW3jF3TeuXM0CYxbd+xsSTS3oBkfD7RJm3+dfUfxqrT75j+QurO+a78Qm9fUHfStz/XWFc9qho1fjvS10IbxxrfgR4Qqta+j2TMndeojtPvO+HX5fsvYudtYE4L4YUd0b0/PHG9WVfHnfRcuT8ICBEQUteXO3MIqeNHju4rr5YpZs7hprbZf9TLCnbv+ltGjZwmJ46ftt+tr7tzPTtMwG6jO+n54v4gIGTXYKwigAACCCAQiQABoUhw4vIuAkK+aV3jgdd47Xyu3Nll8rRB5pAENaxCDa+I6uPOL+SO0nLnfFd+obfPw5307c9V6xUrldImw+0sSbTXUxsf9dfxO7f/E/v+U0mSJDInlQ70gJBR15h+P/dyecn07PNuJxN6+rgc2Piz2+d56oTo3h8xvd7sy+9Oeq7cHwSECAipa8zdgJA6R73tUQ3vfSZPDps/Hqh91p/Tp85L86Y9zbfMWe9z53q2Ps/Zsjvp+eL+ICDkrOXYjgACCCCAQEQBAkIRTYJiCwEh3zSz/QOvKoV6S0z1t1/TCxQedlMqvdY0ysK58wu5o8TcOd+VX+jt83Anfftz1fqsuSO0+TOe1nfdv/9AVq3YILNnLXH4F/DoDDnx1yFjjiyis63a+x9rb6yp7vapsfnaeUeFi+79EdPrzb4s7qTnyv1BQIiAkLrGohMQMq5NNcF1qVeLytNP55DsOTJLwcJ5zT8kGMcsXbxGBn0x3lg1v925ns2TIllwJz1f3B8EhCJpPHYhgAACCCBgJ0BAyA4kWFYJCHm3pVUPl8yZM+qZ7Ni+Rw5rc++oj6MHXnXsYKtXfVcs38ThX3n1BB7/z51fyK3PM5YHf9lDKlYura9GNamq9VuZDh08Ls0a9zCScfodk/KpSYZX/DLV7B20ccN26dXjS6d5ERCKSOPvASFP3x+DtUnSKxqTpEcxqbR69XzGjGl1tPPnL8uev/6JAOjp+6NDp6bSrEUtPR81QfCbVd5zOqfOshWTJWNmyxv2/ti4U7p3GxyhfI2b1JTO3Zqb2yOdVHrKYClSNL9+rLNJpT1dX28/kJsVj+aC9STLak6eNyKZhHz1Gm1S6TQp9Zxicw6hqKqmfk42afaONG/5rvkWNGdvIwu2+8Pb119M/n2Lql3ZjwACCCCAQGwLEBCKbXE/yY+AkHcbwvrNPjO/WyzfjJ2lZ+goIFSufAkZPvJjff/du/ekfOmG2sTSDyMtYEx/IbXusRDVa7qXLtdeO5/F8tr5zZv+lG5dvoi0bGpnTMpXpmxxGTH6ybC5b8fNke+m/+g0T+sHtugOGfu0z0hZ/csmp3kE2o7Cr70leV6yBPzcKfuVs6fk97nfunNKtI719P3hzmvip88cJs8XfFYvt5pzpX6dzhHq4On7o+Y7laTPpx+Y+fTrO0p++fl3c916YePm+ZI4cSJ9008//ipDBkdsD/uAUGT3yMJF30iOXFn09Pb8qb12vs2Te8vI19P19fYDuVHu6H5/9PH7UqtOFf101QOxasXmDoPwGTKkk6UrJ5pDUv0pIGTU3fptZBfPX5G3q7cxdpnfwXZ/ePv6i8m/b2aj2C2kzphVsuazTP5u7Lp08qhcOvWvsco3AggggAACXhEgIOQVVv9PlICQd9uo14dtpE79N/RMLmi/pDeo20lu3brjsIeQ9S+Xhw8dl6aNou6B8/ngblKlalk9fRVEatGklxw9esrlSlV/q4I+R49xwrIla+WLgd8Yq+a3mti5e69W5qSmC+evkuHDJ5v7nS3EpHx58uSUOQtGPclzgZbnMMd5vlOrsnz8SXuzGK4GhF4qXkjGTxxonrdi+XoZ2H+suc6CdwU8fX/YX8/Ll66Tzz8bF6ESL7xYQEaP/USSJUuq79uiBTi7Oghw2qcX0/tDDfdZtHS8GVjY9NsO6dF9SITyWQdm1M4Rw6bK9wtWRDjOPiC0b+8had3SElS2PrhyldIy4POukiBBfH2zs4CGp+vr7Qdy6zpGZ9neb8HcFTJyxNQISfX+qJ3UrlvV3O7MzzzAbqGZNv9Ph05NzK2uDhlTfzho3aa+yFOWU4cOmSh/bNplpmO9MHrMJ1JKm3hafS5oPd5qVG9rvVtftm/fuH5/ePv6i8m/bxEa5/GGsg3fl1feeXKtqM0rxg6UfzatdnYK2xFAAAEEEPCIAAEhjzAGXiIEhLzbZmXLlZCvRj15QFOva581Y7EkT55MevdpJ2pS6Q7t+2u/9NeTStpDm/H5btqP8u03c4xVp9/2ryT+c8cBmTNniWz6fafTc6x3pEmTShb88LU5FEK9qWaJ1hthhNVDUaPGNbRhLrUlTdoQ/dT79+9L349GyIb126yTcrgc0/L9vHq6pEmXSk/7+tVw+fij4bJr536bvN6sXl669mhlM4+GqwEhldC6jXO09rAEBq5peah5ihb+sEpOnz5vkw8rnhfw9P2hrucfFo2TlCHJ9cKqIOlPC1fbXM+q51mnrs0ld+5sZoWmTPpeJk+cb64bC964P6yHNqpeKT/MXymjR003stSH/6gHWTUUSH1uawHkZo17OnyluH1AQ024vnL5Bhk44ElQs3yFl6Vrt1aSNbtl6KpKc8L4uTJ96kK1aPPxdH29/UBuU/horBQqnE8mTP5cEiZMoJ998+ZtmTblB5k98ycztabNa0mr1nW14GESc1tsBYRU2w0b8ZGZr/pDwdTJ30f42asmnG7drr452fTunX/L++0+Mc8zFoLt/vD29RfTf9+MdrH+rvfJGMlZ+CVz07XzZ2RKFy0oyAcBBBBAAAEvCxAQ8jKwvyZPQMj7LWM9T4Wj3B4+fGTO/aD2n/nfBWlYv4uo4ExUnyIv5Jcx4/rZPKw4OudXbRjUJ9pwKEcf9bCjfrG1/ty4cUtuav8lTpRIDxY99dTjP1FrB7nzMBTT8o3QhtCV0YbSGR9lsmf3Qbl586Y81B5+s2XLrE86HS/ek/KpY90JCKlXOpcu++QXcCMv++8L57S/ur8V8a/u9sex7p6Ap++PNm3r6w/H1qVQgb7Q0Gva9ZxQMmVOLwkeBwDUMWq42HstPnI4VEjt9/T9oYaNqWBw/PiW3joqj0sXQ7W5hMIkZcrkklkblml9v82bvcwmYKSONz72ASEVYFK9gFSgOTz8pnbYI8maLZMZKFDnnTxxRuq928lIIsK3J+vr7QfyCIWPxoahX30oFV4raZ6pgmpnT1+Um7duS3ItCJQ1eyab9lAHOvsZGNW1bGbiYEEFL8uWivjgv3zVFMnweK4r47SwsBv6NRM/fjwJCUkpaR8HzY39kybM1wNHxrr1dzDdH96+/mL675t1uxjLHaaslKQpLX98Udu2/TRbfp83wdjNNwIIIIAAAl4TICDkNVr/TpiAkPfbR/1V9ovBPaT4y4WizEzN/aAmTj548GiUxxoHdO7cXBo2fdschmJst/6OKkCihquV0/4aHS9ePOvTIiyryUrVxLVXr16PsM/ZhpiUT83dMXnqIMmS7UnvBkf5qHIl0h728zybU98dVX2t08iZM6seVMsaRR7OhmFYp8Wy+wLeuD++0npVqECidWDFUcnURML9+o6UHTv2OdptbvP0/dH/s85S7c1yUd5vO7fv03sQmgWxW7APCKkhaNYBVLvD9d5Go0ZMkyU/rbHfZbPuqfp6+4HcptDRXFH3/9jxA/RAnLMkzpy+IEm0+ZzSZUijH+IsIGQ97NdZWs6237t3X8qUrBdhtxrup+adMoY3RjjAbsO2LXukc8fP7LbargbL/REb119M/n2zbRWRp194Rd7tM8LcfPf2LZnevYmEh140t7GAAAIIIICAtwQICHlL1s/TJSAUOw2kHkxVz4B361aTZ/PmivAgeP16uKxctkGfNPnatTC3C1WrdhWpU+8NyZgpnd7LwP5B2JUASe13q0rDRm/rwRdjCIUqyIMHDyT08nVZvnydPtTE7cJpJ8SkfLmfzi7vaz2YSmtDfVTQx/qj/qq+969DMvbrGdJvQKdoBYRUeioo0a1HSylcOL+kTZ/KfLOZdV6q51btd57MU2S9j+WYCXjj/qir3Q+W6zmTdr/Z9iC7ffuO/L5xh4wfO0fOnXPtYcvT94ea96pps1p6DxT78l2+eFUWLlzlcFiXtbR9QEhNjK16gJQpV9zmGla9Xo4fOy1jx8yQzX/8aZ2E02VP1Ne+fNUq+ddr543Kq7mdPvyorbxcsojWw8oyfEztU703D+w/orsN1OZgypw1g36KGlY6oN/Xxunmt/WcMuZGFxfUNVmhTCOHR5csVVQaNKguxUoUMicatz5Qte+lC6GycuUGl4Yaq3OD8f7w1vUXk3/frNuxQtNOUvytJ73EDm9ZL0tHf2p9CMsIIIAAAgh4TYCAkNdo/TthAkKx3z5qLgo150MLbZ6Q8LCb0r7tp3L8+P9EDffwl8/rFUtJ5swZ5Pr1MNm+bZ9cunTF50VTQZvi2gNR1qyWITChoddl756DcuTICZ+XjQJ4TsDT90f27JlFTR6eSbue72pDDg8ePCZbt+yOUYE9eX+oHiolXi4i6bXeJ9evhcvuP/+WQ4eOuVQ++4BLs0Y99XPVhOzFXiqo38NXrlyTbVv/cmuyefvMPVlf+7RdXX+1dDFp2rRWlL2+nKW3+68DMvHbec5269vVz5iyWjAtXbo0cl8LhB/8+98oe49FmqAXdqrgkGpfdZ880N5CeV4LaO7dcyjac57F5fvDC/xeTbLBgPGSvUARPQ8V5Fv4RTc5ud+1+QC9WjASRwABBBAICgECQkHRzBErSUAooklsbHH02vnYyJc8EAgEAe4P11rJWUDItbMD6yj7CXzdLf2GdVuld69h7p7G8QjEmkCn6b9I4mSWCfEvHD0os/q0jrW8yQgBBBBAAAECQkF6DRAQ8k3D88DrG3dyDQwB7g/X2omAkGtO6qh1a7fIxx8Od/0EjkQgFgXylignNXsONnPcMGOs7Fy5wFxnAQEEEEAAAW8LEBDytrCfpk9AyDcNwwOvb9zJNTAEuD9ca6dgCgipV8QXLvycazAOjlJDBXf/ecDBHjYh4HuBiq26S9GqtfWC3LoWKpM61pH796J+06jvS04JEEAAAQTiigABobjSkm7Wg4CQm2AeOjxnrqxSseKroiaQXrxotYdSJRkE4oYA94dr7RhMASHXRDgKgcAUaPjZeMmW3zJ/0J5ff5Jfp3wVmBWh1AgggAACAStAQChgmy5mBScgFDM/zkYAAQR8JVClahlp/0ETM/ue3QfHaPJoMyEWEEAgVgUy5HxWkqQI0fMMPX1CboaFxmr+ZIYAAggggAABoSC9BggIBWnDU20EEEAAAQQQQAABBBBAAAEENAECQkF6GRAQCtKGp9oIIIAAAggggAACCCCAAAIIaAIEhIL0MiAgFKQNT7URQAABBBBAAAEEEEAAAQQQ0AQICAXpZUBAKEgbnmojgAACCCCAAAIIIIAAAgggoAkQEArSy4CAUJA2PNVGAAEEEEAAAQQQQAABBBBAQBMgIBSklwEBoSBteKqNAAIIIIAAAggggAACCCCAgCZAQChILwMCQkHa8FQbAQQQQAABBBBAAAEEEEAAAU2AgFCQXgYEhIK04ak2AggggAACCCCAAAIIIIAAApoAASEuAwQQQAABBBBAAAEEEEAAAQQQQCDIBAgIBVmDU10EEEAAAQQQQAABBBBAAAEEEECAgBDXAAIIIIAAAggggAACCCCAAAIIIBBkAgSEgqzBqS4CCCCAAAIIIIAAAggggAACCCBAQIhrAAEEEEAAAQQQQAABBBBAAAEEEAgyAQJCQdbgVBcBBBBAAAEEEEAAAQQQQAABBBAgIMQ1gAACCCCAAAIIIIAAAggggAACCASZAAGhIGtwqosAAggggAACCCCAAAIIIIAAAggQEOIaQAABBBBAAAEEEEAAAQQQQAABBIJMgIBQkDU41UUAAQQQQAABBBBAAAEEEEAAAQQICHENIIAAAggggAACCCCAAAIIIIAAAkEmQEAoyBqc6iKAAAIIIIAAAggggAACCCCAAAIEhLgGEEAAAQQQQAABBBBAAAEEEEAAgSATICAUZA3uanWTh6SV5sO/k3jxE0h46CW5fuGMnNy/S/auXSoP7t9zNRmOQwABBBBAAAEEEEAAAQQQQAABPxQgIOSHjeIPRUqTOYe8N2ZehKKEXTwvS0d9KueP/RNhHxsQQAABBBBAAAEEEEAAAQQQQCAwBAgIBUY7xXopnQWEVEGunT8rM3s3l7t3bsd6ucgQAQQQQAABBBBAAAEEEEAAAQRiLkBAKOaGcTqFpClCJPcLr8jzZavK00VLmnVdPXGo7F23zFxnAQEEEEAAAQQQQAABBBBAAAEEAkeAgFDgtJVPSxo/fnxpOWKOpM6SXS/H5h+myeaF03xaJjJHAAEEEEAAAQQQQAABBBBAAIHoCRAQip5bUJ5Vu/dweaZYKb3uu39ZJGunjQxKByqNAAIIIIAAAggggAACCCCAQKALEBAK9BaMxfI3/OxbyZa/sJ7j1sUzZdP8SbGYO1khgAACCCCAAAIIIIAAAggggICnBAgIeUoyCNJpPeZ7SZ05q17TddNHy58/LwyCWlNFBBBAAAEEEEAAAQQQQAABBOKeAAGhuNemXqtRlxm/SsIkSfX0l2mvnj+0db3X8iJhBBBAAAEEEEAAAQQQQAABBBDwngABIe/ZxqmUEyZOIl1mrjHrNH9ARzn9z1/mOgsIIIAAAggggAACCCCAAAIIIBA4AgSEAqetfFrSkPRZpO03P5hlmNalkYSeP2Wus4AAAggggAACCCCAAAIIIIAAAoEjQEAocNrKpyVNmTaTtPv2R7MMM3q1kEun/jXXWUAAAQQQQAABBBBAAAEEEEAAgcARICAUOG3l05ImTJxUOk3/WeLFj6+XY8PMsbJzxQKflonMEUAAAQQQQAABBBBAAAEEEEAgegIEhKLnFpRnvdnxU3m+bFW97nfCw2TbT7PkwvEjcivsqsijR/r2u7dvStiVC0HpQ6URQAABBBBAAAEEEEAAAQQQCBQBAkKB0lJ+UM5ESZNL9Y79JE/x0k5L8+DeXRnV5HWn+9mBAAIIIIAAAggggAACCCCAAAK+FyAg5Ps2CKgSPPdKBanR/QunZX708KGMaFjO6X52IIAAAggggAACCCCAAAIIIICA7wUICPm+DQKmBAVKV5I3O/WXp556Si/zg3v3JOzSeW3I2DVtxNhDfZsKCC0Y2Clg6kRBEUAAAQQQQAABBBBAAAEEEAhGAQJCwdjq0aizCgK9N3q+pM6cTT/7xF/bZMW4gXI7/Ho0UuMUBBBAAAEEEEAAAQQQQAABBBDwpQABIV/qB1DeSVOmlg5TlpslnvvJ+3L2yH5znQUEEEAAAQQQQAABBBBAAAEEEAgcAQJCgdNWPi1p6ozZpPXYJ6+Zn9Kpvly7eManZSJzBBBAAAEEEEAAAQQQQAABBBCIngABoei5Bd1ZyVOlk/aTlpj1nvlhS7l48oi5zgICCCCAAAIIIIAAAggggAACCASOAAGhwGkrn5Y0Xrx40m3ub+aE0j8O7iHH92zzaZnIHAEEEEAAAQQQQAABBBBAAAEEoidAQCh6bkF51geTlkmyVGn0uv88fpDs/21VUDpQaQQQQAABBBBAAAEEEEAAAQQCXYCAUKC3YCyWv8XwmZI+5zN6jhvnfCvbl86JxdzJCgEEEEAAAQQQQAABBBBAAAEEPCVAQMhTkkGQTr2+oyVnkeJ6TXetWCDrZ44NglpTRQQQQAABBBBAAAEEEEAAAQTingABobjXpl6rUd2+oyRXkRJ6+n+tXixrpo7wWl4kjAACCCCAAAIIIIAAAggggAAC3hMgIOQ92ziVctosOaXZ0GmSIHESvV47ls2T32Z/E6fqSGUQQAABBBBAAAEEEEAAAQQQCBYBAkLB0tJu1jNxshRSoHRlSZIylTz9wiuS9bmC8pT2pjHjs3BQdzmxd7uxyjcCCCCAAAIIIIAAAggggAACCASQAAGhAGqs2Cxqmsw55L0x8xxm+e/2jbJkZF959OiRw/1sRAABBBBAAAEEEEAAAQQQQAAB/xYgIOTf7eOz0jkKCN29fUvUULEdy+bK/bv/+axsZIwAAggggAACCCCAAAIIIIAAAjETICAUM784e3ZSbahY8eoNtF5ADyX8ykW5fuGsnD92UO7cDI+zdaZiCCCAAAIIIIAAAggggAACCASLAAGhYGlp6okAAggggAACCCCAAAIIIIAAAgg8FiAgxKWAAAIIIIAAAggggAACCCCAAAIIBJkAAaEga3CqiwACCCCAAAIIIIAAAggggAACCBAQ4hpAAAEEEEAAAQQQQAABBBBAAAEEgkyAgFCQNTjVRQABBBBAAAEEEEAAAQQQQAABBAgIcQ0ggAACCCCAAAIIIIAAAggggAACQSZAQCjIGpzqIoAAAggggAACCCCAAAIIIIAAAgSEuAYQQAABBBBAAAEEEEAAAQQQQACBIBMgIBRkDU51EUAAAQQQQAABBBBAAAEEEEAAAQJCXAMIIIAAAggggAACCCCAAAIIIIBAkAkEbEAoyNqJ6iKAAAIIIIAAAggggAACCCCAAAIeEyAg5DFKEkIAAQQQQAABBBBAAAEEEEAAAQQCQ4CAUGC0E6VEAAEEEEAAAQQQQAABBBBAAAEEPCZAQMhjlCSEAAIIIIAAAggggAACCCCAAAIIBIYAAaHAaCdKiQACCCCAAAIIIIAAAggggAACCHhMgICQxyhJCAEEEEAAAQQQQAABBBBAAAEEEAgMAQJCgdFOlBIBBBBAAAEEEEAAAQQQQACB/7d353E6VX8Ax78YYxn7vu/7vq/ZhSIka5NKRdmikKUoWYuQRCUpUdYolEglyZolZF+HsYzdJDNofuecmXvdZ5n5KY/ieT5Xr3nOOffce895n/76vs6CAAI+EyAg5DNKXoQAAggggAACCCCAAAIIIIAAAgjcGwIEhO6NcaKVCCCAAAIIIIAAAggggAACCCCAgM8ECAj5jJIXIYAAAggggAACCCCAAAIIIIAAAveGAAGhe2OcaCUCCCCAAAIIIIAAAggggAACCCDgMwECQj6j5EUIIIAAAggggAACCCCAAAIIIIDAvSFAQOjeGCdaiQACCCCAAAIIIIAAAggggAACCPhMgICQzyh5EQIIIIAAAggggAACCCCAAAIIIHBvCBAQujfGiVYigAACCCCAAAIIIIAAAggggAACPhMI+IBQcJJgib4R7TNQXoQAAggggAACCCCAAAIIIIAAAgjc7QIBFRAKSpJUyuSuLFUK1pYcGfJIupQZJKkqu/TnBQk/HybHzx+V5b8tVPnzd/u4+aR9zSuGSqnc5c27jp45KDN/nuyT9yb0Eh2A69NsuCRKlFgkJkYWbpwpu8K3JfQI9xBAAAEEEEAAAQQQQAABBBBAwMcCARMQKpGzvDxeu4ekTZEuQcLIqMsya/UU2Xp0fYL1/OFmn6YjpFDWYqYru8O3y9vLXrvj3SqSrZS88OBQ+zuTV4yW7WEb7TwJBBBAAAEEEEAAAQQQQAABBBC48wIBERBqVqG9PFiutSRS//QVo/6djYyQ8HNH5PqN65I1XU7Jni6XJNazVuKuNxcPkkMRe6ysX/6ObPeBpA/JaPr2854VMmvNe3e8n/VKNpW2VZ8y34lRM4T6f/60XL568Y5/lw8ggAACCCCAAAIIIIAAAggggMBNAb8PCN1X9H4Jrfmc3eO9J3aqwMcUOX3phF2mE4WyFpdOdXtLhpBMpvy3o5tkynejXOr4UyZlcCoZEzrdDoJ9sfFTWbF90R3vYvvqnaVO8SbmOxevnJcBs5+549/kAwgggAACCCCAAAIIIIAAAggg4Crg1wEhPevn5ZbjJEniJKbXizfPlm+2zjczhFwZYnP5MxeWlx4abTJ6FtHgud3UTKLT3qre82Ulc1WQHo1etvsxafkI2Xlss52/U4kejV6Rkrli9y06GLFPxiwecKc+xXsRQAABBBBAAAEEEEAAAQQQQCAeAb8OCD1d90WpVKCm6frvx7bKpOXD4w0GWT6DWo6V3Bnym+yIRX3k2LnD1i2vv3qmTd5MBSUkWWpROyXLcVX/xIUwr3VvtTAocZDky1xEsqbJLtf+ui6HTu+RiMsnb/Vxl3qZUmeVApmLms2zT1w8JgfVu/R1f+mW0qpyR5P+K+Yv6Terk1yJjjT5W/mTL1MhyaYCbokksRw4vVvNuAq/lcdkSKu3zfI8XXnDgdUyfdUE8WV/rUb80/ZZz/OLAAIIIIAAAggggAACCCCAgD8L+G1AKIsKprz2yDsqRpNIrl6Lktfmd5eLt3B6WLeGg6R0nopmzBMKCOlgyMOVOkqR7KUkedLkLv+P/Bl9RdbvXyULNnws11VAJ6FrfMeZKlgTbKrMXT9NQoJTS61ijey9faxnT186KXPXTbvlWTz6HU3KPqKWwOk9gmL3TtLvClfBqoUbPpUyeSqZ7+iyC1fOycDZnXXS43Jvnw4A6X2AdLDKeemZVJ//MvX/tm98x1m219It8+SG8rmd/vq6fc4+kUYAAQQQQAABBBBAAAEEEEDAXwX8NiBUt0RTaVctdvPiLYfXyQffj7mlMXy+8RApnrOsqTtyUV8JO3fI47mi2cvIk3V6mmPrPW46Co6ePSDjvx6iAlJXHaU3k3pm0YDmb9oF+qSvYjlK23n3hN4Ae9oP4/7vCWhd6r8k5fNVdX/czl/684KcvHBcBbNKmrIDp/fK2CUD7ftWQs+y6d/8DSsrel+l0rkrmiCbXehIRF+Plg9V++I7NSxXhnxqCd9b9hO3219ft89uGAkEEEAAAQQQQAABBBBAAAEE/FzAbwNCXRsOULNgKpvhm/HTJFm7/weXoSyVq6JUK1xPsqfPrU4ai5IdYVvMrJ5n6r9oLxkbMq+7x1KtKgXrSIcandUslxTmfTf+uiFHzh6UC3+cNcvG8mYqYN/TFfS+RV9vnefybSvjvuG1VX7i4nE5e+mUJA9OKXlU0Cg4SVLrluwJ3yETlr1q590TD1XoYE5Uu1keI6fUBtoX/7ggqVOkkWxpc3oEdKylWzefiU3F175zf5yRs5cjJIVqn96nydqjST+1I2yzvLtihPurTL5G4frSsVZ3j3v/tL++bp9HwyhAAAEEEEAAAQQQQAABBBBAwE8F/DYgNDb0ExWgSWWGTR9trmfFWFc7ddJV3biTrqwy/XtR1UmRNKUEBwXLNTUbp9eM9qKPRndezqPa9TKuz3/5QHaHb7Or6FkrnRv0s08ri7h8SobM62bfdyZaVXlS7i/1kF2kZxIt2vSprNq1zC7Ts5E61+9j90Xv99N9ehv7vjOhv/1i0+FmvyBdro9zX7D+E1l/YJVdrXbxxtKmylMSlCTILtNLt5ZsmW3nrcQjqn0NHe3TM4C+2TZflm1bYFWRMrkryxO1e0rKZCGmLPrGNen1SXv7vjPxcOXHpVHpFnbR7fbX1+2zG0YCAQQQQAABBBBAAAEEEEAAAT8X8MuAUKrkaWXMox+ZodOBIB0Qsq4K+WqYAIuVj4y6LHvVrBu9fCpV8jRWsRw/f1SGL3zBzutE9UL15fHasTNcolRwZNK3r8v+U7tc6uhM84qh8kDZVqZcBz1e+DTUo44ueLZ+fymXr0rcvRiZs+4j+fH3rz3qdqjRRWoXa2zKdYCq2/TWHnV0gTNAogNH034YL5sP/+JRt/v9L0up3BXs8g9VvV8P/WznrcRzDfpL2bxW+0QWbpopy39baN22f0NrPid6to6+Empfl/r91FK2anHP3X5/fd2+uIbxgwACCCCAAAIIIIAAAggggIDfC/hlQKhQ1hLSp+kwM3h7T+yU8d8MsQdyYIs3JU/Ggib/854VMltthHwj5oZZ9tSj0RC1h08pc+/XQ2vVfjhj7ed0oneToVI07n5C+xJVKVBbOtXtZZ5NKCDkPNEs/MIxGfZF7DMuH1WZRmUeVhtYP2aKEwq4OPu27+QuGff1K+6vMvkW6l1N1Duta7CawXRGzWRyv/R+P3rfH32dVMvYhi543qTd/9Qt8aDaryk26KaX0PX4uK17FZMf2GKMsi9g0r7or6/b57XRFCKAAAIIIIAAAggggAACCCDghwJ+GRBy7i3z0+5vzbIuPXZpUqST0R0+VGduJRI9g0bvEaRPx7IuZ6Bkqdr3Z4na/8e60qbMICPavmfvl/PZmvdktQooebvqqOVo7dWyNH1dvfanmiEUG8xxrzs29OPY4+rVDb1MbPbaqe5VTN7ZrvgCTPqks7GhM+z2LdkyV5ZumeP1fW2rPSP1Sjxg7v0RFSl9Zz3htd5batldyrhld05H98oPlG2tZkV1MMV6WVmvGbFp93pjHp1uz8K63f7qd/u6fe7tJY8AAggggAACCCCAAAIIIICAvwr4ZUCoddWnpIE6Gl1fscuwlpp0uTzV5NmG/Ux6+9FfZfJ3I03a+vNk7V5StVBtk9XLrTY5llGVzVNFnmvY36oqh8/sl6vR3k8PSxuSXrKrzZv1debyaRk8r6v9nJXIlDqrDGsz2crKzNWTZc2+lXbemXimXh+pmL+GKTqhZhK97mUmUbEcZaVXk5szod75drj8fnyL8zV2ulvDgVJaHTuvr2PnDsuIRX3se1Yic+ps8nqbd62szPx5iqzZ+52ddyYeu6+71CxS3xTF19+MqbLI8La6v4lMvdvtr6/b5+wPaQQQQAABBBBAAAEEEEAAAQT8XcAvA0I9Gw2WErnKmbGbuOx12RW36XOTso9Ii4qPmvKvt85XJ4B97jK++gh4fRS8vnSQRAdLrKtxmVbSspL3vYCsOt5+9574XS1ZG+xxq0K+mmovoxft8lFf9pOj6rQyb5c++l1vGK2vnce2yKTlwz2q1SvZTNpW7WTK9eynfrM6yZXoSI96uuDlluPUUrC85t62IxvkvZVveNSrlP8+ebrezT2URn/1khw5c8Cjni5wLqWLr7/l81aXLg362s/fbn993T67YSQQQAABBBBAAAEEEEAAAQQQCAABvwwIDVdLuzKmymyGb9CcZ+W8OiZdX0/Ufl6qFapj0tN/nCAbDq42aevP+I4zzZHxMRIjvWeESvT1KOuWPHZfNzULpoHJ631yoq97nx1kPxCX2HjwZ3vJmvNes/LtpGn52L12otR3es+IDVQ561jpNzpMM8vddP5HtbRsjpelZXqJml6qpq+LV87LgNnPmLS3P86lVit2LJYvNnzsUc15fH1CJ4fpB/VMIj1jR19r9/0oM1a/Y9LOP03LtZVmFdqZIl/019ftc7aVNAIIIIAAAggggAACCCCAAAL+LuB3AaHgoGQy4fFZZp+gq9ei1P49NwMtzpk27jNU0odkkpHt3jfjfTYyQl6Z+5zL2PdSG0pbG07vCNss764Y4XL/72aerKOWpxWMXZ6W0IbNaVKkl9Htp0qiRLFLreau/0h+2Bm7BM75zR6NXpGSucqbokMR++TNxQOct+20+1K1WWovJL25tvvVqU5vqVKwlik+femEvDq/h3sVOz/xidn2UfdfqX2XvlH7L7lfT6pgXNW4YJwv+uvr9rm3lzwCCCCAAAIIIIAAAggggAAC/izgdwGh3Bnyiz69S196iZNe6mRdes8eHRDR12vqxKxT6uQs66pSoJY6Gay3yf5+bKu8s3yYdcv8vvLwOMmZPnaZVUIbIrs8lECmb7ORUjBLUVNj1/FtMlEdYe/tct+7aPzXr8rekzs8qjpP3PJ2Qpr1QI3C9aVjre5W1vh4WwrW76FRUiBzEVNvT/gOmbDsVfsZZ6K42rvoecfeRe+vHCNbj6xzVjHpPk1HSKGsxUzaF/31dfs8GkwBAggggAACCCCAAAIIIIAAAn4s4HcBocoqsPNUXGBn3f5V8slPE+3hG6Vm2qRTp4Xpy7npsp5989JDo+19elaqGTjz1Uwc5+Xcd2f59i9l4cYZztt/Oz2y3QeSPiSjeW717uXy2S+xs5PcX+Tc90gvVXtRnVgWfSPavZoMbjVBcqTLbcrjW7albzo3qI5SJ4L1judEMKdVQgGhtuq4+Xrq2Hl96RPV+n/2lNf2jVCzrzKoWVj68kV/fd0+0zD+IIAAAggggAACCCCAAAIIIBAgAn4XEHLuLfPlr5/Jsm0L7KEc2nqSZEmT3eT1sqU1e1fKyfPHpK46gt1abqVveltG5ZyBs/XwBnn/e8+NmFMEp5SuDQdJ5jSxs5COROz3umGzrjdWHemeOFFi05b5Gz6RlTu+Mmn3Px1r9ZAaheuZ4vhO8NI3X31komSLO9nsYMReGbN4oPurpHC2ktJdLS1LFhRs7p28GC5DF/T0qBeSLI28+eg0u33xBXqypMkhfZsNl9TJ05p37Dr+m5rpNNTjfbq/Yx79WJIkTmLu3W5/fd0+jwZTgAACCCCAAAIIIIAAAggggICfC/hdQMh5BPrU78fJ5sNr7CF0BovsQi+Jt5YOlv2nfne583zjIVI8Z1lTpjdF/njVRJelUcFJguXpui9KmbyV7eeWbJ4jS7fOtfNWokTOctKz8WArK86T0OzCuMQLDwyTItlLmNzeEzvViWU3j5Z31nUGrGJiYmTehukuew2VyV1Z2lZ/2t5sWz8b39KtUrkqqsDRIOfrxX2ZXP7MhaVDjS6SO2MBu97naz+Qn3Z9a+ethPuystvtr6/bZ7WTXwQQQAABBBBAAAEEEEAAAQQCRcDvAkLP1OsrFfNXN+M3ZcUb8lvYBnssddCmnQpiVC9U196kWc+S0ZsqF85aQgpmi93jZuiCXhJ59aL9nE6UVgGVbvf3V6nYzZ318q3DZ/bL5SsXJVOaLGrmUQ4Jjpt5o+uHXwiTUYv6yvW/ruusy9WgVHNpXeUJU6aPiO876wn5M/qKSx0rM6zNFLXvURaT/WXfD/Lp6knWLZff5hVD5YGyrRxlMaoNxyTyz8sSkjxEsqvlZNaMJKtSfEu37i/dUlpV7mhVs3/PXD6lTmw7J8mSBqv35bE3ktYVdoZtkUkrhtt1nQlf99fX7XO2lTQCCCCAAAIIIIAAAggggAACgSDgdwGhno0GS4lc5czYTV4xSraHbfIYx2RBySWrWl51WQV9rCPpPSp5KehSv5+Uz1fNyx3XIn3K14ffvyXn/ohwvRGXe7TGs1KrWCOTO//HWRk0p4vXejqANa7jTHuplfsSOOdD6VNmlP4t3pC06lSy+C49I6hojtJ2YGi+Om5+pTp23v0KrdlV7iva0BTrZWqRUZfs/ZXc6+q8Djy9++3wf62/vm6ftz5RhgACCCCAAAIIIIAAAggggIA/C/hdQMgZtPlm2xfy1a+zfDp+epPnhmqGT0iyVB7vPXbusKzb/6OsVsumvG38bD3QtcEAe2nZgdN7ZOwS1+VZVr1cGfKJXgpmXVNWjFYznjZaWY/fbOlyyZO1e0qejAXtGVC60pWoSFl/YLVsPrRG+jS9OYvn7WWvy+7wbR7v6dVkqBTLUcqU7zu5S+asnSrtqndWexAVd6l79dpV+WXv9/Llpk//1f76un0unSKDAAIIIIAAAggggAACCCCAQAAI+F1AqHGZVtKyUqgZusioyzJodhe55uVUrtsdW70ESx9xrzdKjlQBl/DzR+Rs5Onbfa1Pns+YKovkV0faJ00cpGZBXZKDKuh0JTrylt89tPW7aglcNlN/gwokTV81waTzZSokOdLnUcGfa3I+MkIOnN59y+/0ZcW7vX2+7CvvQgABBBBAAAEEEEAAAQQQQOBOCPhdQChvpoIyoPmbttWmg2vUqWGT1ZHoV+0yEvELBKkg0riOs9T+QEGm0tItc2XJljnxP/Av37nb2/cvc/A5BBBAAAEEEEAAAQQQQAABBP6RgN8FhLRCZ7WxdIW4jaV1Xh8x/932r+T4uSMqHSb6lDCJ0f+pP1wuAgXUzKJ+zUbaZe4ntdk3/qPE3d6+/4iFzyKAAAIIIIAAAggggAACCCDwtwT8MiCUTm2w/HyTIeokrFzxYhyM2CtjFg+M936g3qhdvLF0qG5tch0jL8/pGu9m0f+F0d3evv/ChG8igAACCCCAAAIIIIAAAggg8HcF/DIgpBFSBqeSx+7rKuXyVnXZYNkC2nZko7y3crSV5TdOoE3Vp6V+yQdNTu8/9NJnne4qm7u9fXcVFo1BAAEEEEAAAQQQQAABBBBAIB4Bvw0IWf3VGyxXLFBTMqfOKhlCMkvSoGTm1q/qxK1Vu76xqvEbJ9Ci0mNSJk8lkzt54bhM/X7MXWVzt7fvrsKiMQgggAACCCCAAAIIIIAAAgjEI+D3AaF4+k0xAggggAACCCCAAAIIIIAAAgggELACBIQCdujpOAIIIIAAAggggAACCCCAAAIIBKoAAaFAHXn6jQACCCCAAAIIIIAAAggggAACAStAQChgh56OI4AAAggggAACCCCAAAIIIIBAoAoQEArUkaffCCCAAAIIIIAAAggggAACCCAQsAIEhAJ26Ok4AggggAACCCCAAAIIIIAAAggEqgABoUAdefqNAAIIIIAAAggggAACCCCAAAIBK0BAKGCHno4jgAACCCCAAAIIIIAAAggggECgCiTKXbh4TKB2nn4jgAACCCCAAAIIIIAAAggggAACgShAQCgQR50+I4AAAggggAACCCCAAAIIIIBAQAsQEAro4afzCCCAAAIIIIAAAggggAACCCAQiAIEhAJx1OkzAggggAACCCCAAAIIIIAAAggEtAABoYAefjqPAAIIIIAAAggggAACCCCAAAKBKEBAKBBHnT4jgAACCCCAAAIIIIAAAggggEBACxAQCujhp/MIIIAAAggggAACCCCAAAIIIBCIAgSEAnHU6TMCCCCAAAIIIIAAAggggAACCAS0AAGhgB5+Oo8AAggggAACCCCAAAIIIIAAAoEoQEAoEEedPiOAAAIIIIAAAggggAACCCCAQEAL/A/1+m9ziXOg0QAAAABJRU5ErkJggg==;" parent="WIyWlLk6GJQsqaUBKTNV-1" vertex="1">
          <mxGeometry x="940" y="525" width="317.57" height="150" as="geometry" />
        </mxCell>
        <mxCell id="TAG7vl7gLuCY-1AviQvm-13" value="" style="endArrow=classic;html=1;rounded=0;" parent="WIyWlLk6GJQsqaUBKTNV-1" source="TAG7vl7gLuCY-1AviQvm-9" target="TAG7vl7gLuCY-1AviQvm-11" edge="1">
          <mxGeometry width="50" height="50" relative="1" as="geometry">
            <mxPoint x="760" y="700" as="sourcePoint" />
            <mxPoint x="810" y="650" as="targetPoint" />
            <Array as="points">
              <mxPoint x="830" y="600" />
            </Array>
          </mxGeometry>
        </mxCell>
        <mxCell id="TAG7vl7gLuCY-1AviQvm-14" value="" style="rounded=0;html=1;jettySize=auto;orthogonalLoop=1;fontSize=11;endArrow=block;endFill=0;endSize=8;strokeWidth=1;shadow=0;labelBackgroundColor=none;edgeStyle=orthogonalEdgeStyle;" parent="WIyWlLk6GJQsqaUBKTNV-1" source="TAG7vl7gLuCY-1AviQvm-15" target="TAG7vl7gLuCY-1AviQvm-17" edge="1">
          <mxGeometry relative="1" as="geometry" />
        </mxCell>
        <mxCell id="TAG7vl7gLuCY-1AviQvm-15" value="Add a new coupon" style="rounded=1;whiteSpace=wrap;html=1;fontSize=12;glass=0;strokeWidth=1;shadow=0;" parent="WIyWlLk6GJQsqaUBKTNV-1" vertex="1">
          <mxGeometry x="-120" y="80" width="120" height="40" as="geometry" />
        </mxCell>
        <mxCell id="TAG7vl7gLuCY-1AviQvm-16" value="" style="rounded=0;html=1;jettySize=auto;orthogonalLoop=1;fontSize=11;endArrow=block;endFill=0;endSize=8;strokeWidth=1;shadow=0;labelBackgroundColor=none;edgeStyle=orthogonalEdgeStyle;" parent="WIyWlLk6GJQsqaUBKTNV-1" source="TAG7vl7gLuCY-1AviQvm-17" edge="1">
          <mxGeometry x="0.0032" y="20" relative="1" as="geometry">
            <mxPoint as="offset" />
            <mxPoint x="-60" y="360" as="targetPoint" />
          </mxGeometry>
        </mxCell>
        <mxCell id="TAG7vl7gLuCY-1AviQvm-17" value="Go to CartCalculation: removeCoupon" style="rhombus;whiteSpace=wrap;html=1;shadow=0;fontFamily=Helvetica;fontSize=12;align=center;strokeWidth=1;spacing=6;spacingTop=-4;" parent="WIyWlLk6GJQsqaUBKTNV-1" vertex="1">
          <mxGeometry x="-130" y="180" width="140" height="90" as="geometry" />
        </mxCell>
        <mxCell id="TAG7vl7gLuCY-1AviQvm-20" style="edgeStyle=orthogonalEdgeStyle;rounded=0;orthogonalLoop=1;jettySize=auto;html=1;entryX=0.5;entryY=0;entryDx=0;entryDy=0;" parent="WIyWlLk6GJQsqaUBKTNV-1" source="TAG7vl7gLuCY-1AviQvm-21" target="TAG7vl7gLuCY-1AviQvm-22" edge="1">
          <mxGeometry relative="1" as="geometry">
            <mxPoint x="-60" y="510" as="targetPoint" />
          </mxGeometry>
        </mxCell>
        <mxCell id="TAG7vl7gLuCY-1AviQvm-21" value="go to&amp;nbsp;caluculationCoupon" style="rhombus;whiteSpace=wrap;html=1;shadow=0;fontFamily=Helvetica;fontSize=12;align=center;strokeWidth=1;spacing=6;spacingTop=-4;" parent="WIyWlLk6GJQsqaUBKTNV-1" vertex="1">
          <mxGeometry x="-110" y="360" width="100" height="80" as="geometry" />
        </mxCell>
        <mxCell id="TAG7vl7gLuCY-1AviQvm-22" value="return couponDiscount" style="rounded=1;whiteSpace=wrap;html=1;fontSize=12;glass=0;strokeWidth=1;shadow=0;" parent="WIyWlLk6GJQsqaUBKTNV-1" vertex="1">
          <mxGeometry x="-120" y="710" width="120" height="40" as="geometry" />
        </mxCell>
      </root>
    </mxGraphModel>
  </diagram>
</mxfile>
